<?xml version="1.0" encoding="utf-8"?>
<!-- Generator: Adobe Illustrator 25.4.1, SVG Export Plug-In . SVG Version: 6.00 Build 0)  -->
<svg version="1.1" id="ok" xmlns="http://www.w3.org/2000/svg" xmlns:xlink="http://www.w3.org/1999/xlink" x="0px" y="0px"
	 viewBox="0 0 292.4 425.9" style="enable-background:new 0 0 292.4 425.9;" xml:space="preserve">
<style type="text/css">
	.st0{fill:#62391B;}
</style>
<g>
	<path class="st0" d="M266.5,105.9c0.2,0.5,0.5,0.9,0.8,1.1c3.6,3.1,3.1,9,1.3,12.5c-3.3,6.5-6.8,13.1-10.3,19.5
		c-4.8,8.8-9.7,17.4-14.5,26c-7.1,12.5-14.4,24.8-22.4,36.7c-6.3,9.3-12.4,18.7-18.5,28.1c-1.6,2.6-3.3,5.1-5.1,7.5
		c-5.2,7.1-9.7,14.7-14.1,22.4c-4,6.9-8.1,13.8-12.6,20.2c-7.9,11.4-16,22.9-23.2,34.8c-1,1.6-2.4,3.1-3.7,4.3
		c-1.8,1.5-4.1,1.4-5.5,0.1c-1.5-1.4-1.9-3.4-1.3-5.5c0.3-1.2,0.8-2.3,1.1-3.4c-4.1-1.4-4.3-1.4-7.7-5.4
		c-9.9-10.9-20-21.4-30.6-30.9c-9.2-8.2-18.6-16.1-28.5-23c-15.4-11-30.8-21.7-46.2-32.6c-1.6-1.2-3.5-2.1-5.2-3.1
		c-1.5-0.9-2.3-2.3-2-3.6c0.5-1.6,1.4-2.9,3-3c1.3-0.1,2.9,0,4.2,0.5c2.4,0.9,4.8,2,7,3.3c11.9,6.9,23.6,14.4,35,22.3
		c20.6,14,39.6,30.4,57.3,48.4c5.1,5.2,9.9,10.6,14.8,16.1c1.2,1.4,2,3.3,3.2,5.2c0.9-1.2,1.8-2.3,2.7-3.5
		c5.6-8.1,11.3-16.1,16.9-24.2c5.5-7.9,10.9-16.1,15.9-24.5c2.9-4.9,5.8-9.7,9.1-14.1c5.7-8.2,11.1-16.7,16.2-25.2
		c4.7-7.5,9.5-14.9,14.1-22.3c8.9-13.8,17.4-27.8,25.5-42.3c5.6-10,11.8-20,17.7-29.9c0.3-0.7,0.7-1.3,1.1-2
		c-0.5-0.6-0.8-1.1-1.2-1.4c-11-10.3-22.4-19.8-34-29c-25.6-20.4-52.3-38.8-79.7-55.6c-1.3-0.8-2.8-1.5-4.3-2.3
		c-0.8,0.8-1.4,1.4-2.1,2.2c-6.4,8.2-11.9,17.2-17.4,26.2c-9.3,15.1-18.6,30-28.5,44.6c-12.4,18.3-24.7,36.8-36,55.9
		C51.5,169,44,181.1,36.8,193.3c-1.4,2.3-3,4.7-4.6,6.9c-0.8,1.1-1.6,2.2-2.6,3.1c-1.9,1.9-4.1,2.2-5.7,1c-1.6-1.2-2.2-3.7-1.2-6.4
		c0.7-1.8,1.4-3.4,2.4-5c2.8-4.8,5.7-9.3,8.5-14c7.1-11.8,14-23.6,21.3-35.3c6.3-10.2,12.7-20.4,19.3-30.5
		c8.8-13.4,17.7-26.5,26.5-39.8c5.6-8.8,11.1-17.9,16.5-26.8c4.2-6.9,8.6-13.7,14-19.4c2.3-2.4,5-4.7,7.5-7c0.7-0.6,1.5-1,1.9-1.8
		c0.9-1.8,2.3-2.3,3.9-2.2c2.6,0.1,5.1,0.2,7.6,0.8c4.4,1,8.9,2.1,13.2,3.6c21.8,7.8,43.4,16.5,64.5,26.7
		c12,5.8,23.6,13.1,34.3,21.5c3.6,2.9,7.1,6.2,10.5,9.5c1.1,1.1,2.1,2.6,2.9,4c0.8,1.5,0.5,3.1-1.1,4c-1.2,0.7-1.9,1.8-2.7,2.9
		C270,93.9,267.8,99.4,266.5,105.9z M182.4,37.1c0.7,0.8,1.3,1.8,2.4,1.3c0.8,0.6,1.3,1.6,2.4,1c1,0.7,1.9,1.3,2.9,1.9
		c5.4,2.8,10.9,5.4,16.1,8.2c10.4,5.5,20.8,11.2,31.3,16.7c3.4,1.9,7,3.4,10.4,5.4c1.4,0.9,2.9,2.1,4.1,3.3c0.9,0.9,1,2.3,0.5,3.5
		c-0.6,1.3-1.6,1.9-2.8,1.6c-1.5-0.3-3-0.8-4.4-1.5c-9.5-5-18.8-10.2-28.3-15.2c-1.1-0.6-2.2-1.4-4.2-1.4c1.9,1.4,3.2,2.7,4.6,3.6
		c4.4,3.4,8.8,6.9,13.3,10.2c2.6,1.9,5.2,3.6,7.9,5.4c4.9,3.1,9.8,6.1,14.7,9.2c1.1,0.7,2.2,1.6,2.8,2.8c0.6,1.1,0.3,2.7,0.5,4
		c0.6,0.6,1.2,1.2,1.9,1.8c0.7,0.6,1.1,1.4,1.9,1.1c1.2-3,2.2-6,3.6-8.5c1.5-2.8,3.5-5.1,5.5-7.8c-0.9-1-1.6-1.9-2.6-2.7
		c-8.2-7.6-17.2-13.8-26.7-19c-16.7-9.5-34.4-16-52.1-22.7c-0.3-0.1-0.8,0.1-1.1,0.2c-0.7-0.8-1.3-1.6-2.4-1
		c-0.7-0.9-1.4-1.4-2.6-1.3c-0.7-0.3-1.2-1-2-0.6c-3.2-2.3-7-3-10.4-4.6c-0.3-0.1-0.8,0-1.2,0.1c-0.1-0.2-0.3-0.3-0.5-0.6
		c0.1,0,0.2,0,0.3,0.1c0.1,0.1,0,0.3,0.1,0.5c1.8,1.1,3.5,2.3,5.4,3.4c0.7,0.5,1.5,0.6,2.3,0.7c1.3,0.1,2.7,0.1,4.1,0.2
		C181,37,181.5,37.9,182.4,37.1z"/>
	<path class="st0" d="M196.4,171.7c-2.1,3-4.8,5.8-7.7,8.3c-3.9,3.1-7.6,6.5-12,8.8c-3.5,1.8-7,3.3-11,3.5c-1.4,0.1-2.8,0.3-4.2,0.7
		c-8.4,2.1-16.6,0.8-24.7-2.2c-2.8-1.1-5.4-2.6-8.2-3.9c-2.1-1-3.9-2.7-5.4-4.6c-2-2.4-3.9-5-5.7-7.5c-4-5.4-6.8-11.7-8.6-18.2
		c-1.5-5.4-1.6-10.9-1.2-16.2c0.7-8.3,2.4-16.4,5.5-24c3.4-8.8,9.1-15.4,15.9-21c6.2-5.2,13.1-8.6,20.6-10.5
		c5.8-1.4,11.8-1.5,17.7-0.3c7.3,1.5,14.3,3.7,20.7,8.1c2.2,1.4,4.2,3.1,5.7,5.4c2,2.9,4.1,5.6,6.1,8.5c1.9,2.8,3.3,5.8,4,9.3
		c2.2,11.3,3.4,22.5,1.8,34.1c-1,7-3.1,13.3-7,18.9C197.9,169.5,197.4,170.5,196.4,171.7z M172.1,155.8c5.8-5.7,13-18.5,14-25.3
		c-1.3-1.6-2.7-3.5-4.1-5.2c-1.5-1.8-2.7-4.1-4.9-5.2c-2.7,1.8-4.8,4-6.9,6.3c-2,2.2-4.1,4.3-6.1,6.5c-2,2.3-4.6,4.1-6.1,7.3
		C162.6,145.8,167.1,150.9,172.1,155.8z M153.5,145.4c-4.3,3.6-11.9,13-13.5,16.6c1.2,1.6,2.6,3.5,4,5.4c4.8,5.6,5.1,5.6,11.7,2.8
		c4.6-2,8.4-5,11.8-8.9C165.5,158.3,157.1,148.7,153.5,145.4z M188.9,170.9c0.7-0.5,1.2-0.7,1.5-1.1c4-5.2,6.9-11.1,7.5-18
		c0.1-1.2-0.1-2.6-0.6-3.6c-1.5-4.2-3.7-8.1-6.8-11.2c-0.1-0.2-0.6-0.1-0.8-0.2c-2,4.1-4,8.3-6.1,12.3c-2.2,4-4.7,7.6-7.1,11.7
		C180.8,164.5,184.3,168.4,188.9,170.9z M140.4,125.6c-0.8,0.9-1.6,1.6-2.3,2.7c-1.8,2.7-3.6,5.2-5.1,8.1c-4.7,8.9-4.7,6.7,0.2,15.3
		c0.6,1,1,2.3,2.6,2.4c3.6-4.7,7.3-9.3,11.1-14c0.5-0.6,0.8-1.2,1.2-1.8C146.7,135.2,142.4,127.8,140.4,125.6z M145.6,120.7
		c2.3,5.5,4.7,9.3,7.2,11.6c3-3,6-6.1,8.9-9.2c3-3.2,6.8-5.5,9.7-9.2c-1.6-2.3-3.4-4-5.5-5.4C158.5,111.2,151.9,115.2,145.6,120.7z
		 M155.9,178.4c1.8,2.4,4,4,6.2,5.5c0.6,0.3,1.3,0.3,2.1,0.3c7.2-0.1,13.5-3.1,18.8-8.3c0.2-0.1,0.1-0.6,0.2-0.8
		c-3.6-3.1-7.3-6.3-11.1-9.6c-2.6,2.3-4.9,4.8-7.5,6.9C162,174.6,158.9,176.2,155.9,178.4z M135.5,105.4c2.3,3.5,4.4,6.8,6.9,9.8
		c3-2.2,5.8-4.2,8.6-6.3c2.8-2.1,6.1-3,9-5.4c-0.6-0.7-0.8-1.2-1.2-1.5c-2.2-1.9-4.4-3.7-6.5-5.5C145.4,96.9,140.4,100,135.5,105.4z
		 M137.5,119.2c-1.8-3.4-3.5-6.7-5.6-9.7c-1.9,0.9-3,2.7-4.3,4c-2.3,2.1-3.9,5-5.2,7.8c-0.5,1.1-0.9,2.4-0.7,3.5
		c0.8,4,2.4,7.5,4.7,11.1c1.8-3.1,3.3-5.8,5.1-8.5C133.3,124.8,135.2,122.2,137.5,119.2z M118.9,133.1c-3.6,7.8-3.4,20,0.1,24.3
		c0.6-2.1,1-4.2,1.6-6.3c0.6-2.1,1.4-4.1,2-6.2c0.2-0.9,0.3-1.9,0-2.7C121.6,139.1,120.5,136.2,118.9,133.1z M180.8,99.9
		c-8.3-5.2-17.2-6.9-22.7-4.6c1.1,1.5,2.6,2.3,3.9,3.3c1.4,1,2.8,2,4,2.9c2.7-0.6,5-1.1,7.3-1.4C175.6,100,178,100,180.8,99.9z
		 M124.3,171.2c3.1-3.9,5.4-7.5,7.2-11.3c-1.2-2.1-2.3-4.1-3.5-6c-0.3-0.6-1-0.9-1.5-1.3c-1.8,4.9-3.2,12.3-3,15.9
		C123.3,169.1,123.8,169.8,124.3,171.2z M181.5,116.2c2.6,2.6,4.2,5.4,6.5,7.2c0.3-0.3,0.7-0.5,0.8-0.7c0.8-3.7,1.4-7.6,2.1-11.4
		c0.1-0.5-0.3-1-0.7-1.8C187.3,111.7,184.7,113.8,181.5,116.2z M129.6,175c3,0.5,7.3-0.3,11.2-2c-1.1-2.7-3.2-4.2-4.9-6.7
		C133.7,169.1,131.8,171.8,129.6,175z M198,136.2c-0.6-6.3-1.5-11.9-3.2-17.4c0-0.1-0.5-0.1-0.9-0.2c-0.6,2.9-1.2,5.7-1.6,8.6
		c-0.1,0.7,0,1.6,0.3,2.2C194.2,131.6,195.5,134.1,198,136.2z M176,110.5c2.7-1.6,5.2-3.3,8.1-5.1c-5.2-0.3-9.2,0.2-11.9,1.5
		C173.4,108.1,174.6,109.2,176,110.5z M141.5,180.7c3.3,1.9,7.5,2.6,10.2,1.8C148.8,178.8,145.3,180,141.5,180.7z"/>
	<path class="st0" d="M142.4,230.3c0.6,1.1,1.2,1.8,1.3,2.6c0.2,1.2,0.2,2.6,0,3.6c-1.2,6-5.2,12.5-12.6,14.1
		c-2.6,0.6-5.1,0.5-7.3-1.3c-3.3-2.6-4.3-7.1-2.1-11.2c1.2-2.2,2.8-4.3,4.7-6.1c3.1-3,6.7-5.4,10.6-6.7c1.3-0.5,2.8-0.9,4.1,0.1
		c0.5,0.3,0.9,0.9,0.9,1.4c0,0.5-0.7,1.1-1,1.2c-4.8,0.9-8.5,4.1-12.1,7.2c-1.5,1.3-2.9,3-3.6,5.1c-1.5,4,0.5,7.1,4.3,6.7
		c3.9-0.5,7-2.6,8.9-6.4C139.6,237.6,140.7,234.3,142.4,230.3z"/>
	<path class="st0" d="M115.5,223.7c-1.4,2.9-2.9,5.6-4.2,8.3c-0.5,0.9-1.1,1.9-1.8,2.6c-0.5,0.5-1.4,0.6-1.9,0.3
		c-0.5-0.2-1-1.3-0.9-1.9c0.3-1.6,0.8-3.3,1.4-4.9c2.1-4.1,4.4-7.9,6.8-11.9c0.8-1.3,1.9-2.4,2.4-3.9c0.9-2.2,2.4-2.9,4.3-3
		c3.4-0.2,6.8,0,9.9,1.5c1.1,0.6,2,1.2,2.6,2.3c1.1,2.2,1,4.3-0.7,6c-1.3,1.4-2.7,2.9-4.1,4c-3.4,2.7-7.1,3.7-11.1,1.6
		C117.5,224.4,116.7,224.1,115.5,223.7z M116.7,221.2c5.4,2.9,10.7,1.9,14-2.2c1.3-1.6,1-3.2-0.8-4c-3.1-1.3-6.2-1.8-9.7-1.5
		C119,215.8,117.8,218.4,116.7,221.2z"/>
	<path class="st0" d="M150.4,237.3c1.2,3.3-1.9,5.2-1.6,8.2c2,0.3,3.6-0.1,5.4-1.2c1.6-1.2,1.8-2.2,0.7-4.2c-0.2-0.5-0.6-1-0.8-1.4
		c1.1-1.2,2.2-1,3.2-0.2c1.4,1,2.2,2.4,2.1,4.3c-0.1,2.3-1,4.2-2.7,5.6c-2.1,1.9-4.4,2.6-7.1,2.7c-1.3,0-2.8,0.1-4.3,0.1
		c0.3,4,2.9,5.7,5.1,7.7c-2.6,2.8-3.3,2.7-7.8-0.3c-0.7,0.3-1.4,0.9-2.2,1.1c-1.3,0.3-2.6-1-2.3-2.4c0.1-0.5,0.2-1,0.5-1.3
		c1.1-1.6,1.6-3.5,1.6-5.6c0-1.3,0.8-2.6,1.8-3c2.3-1.1,3.3-3.3,4.6-5.4c0.8-1.1,1.3-2.4,2.2-3.4C149,237.8,149.7,237.7,150.4,237.3
		z"/>
	<path class="st0" d="M63.4,172.5c2,0.8,3.2,1.3,4.6,1.6c1.6,0.3,3.3,0.8,4.7,2c3.4,2.7,3.5,6.9,0.3,9.8c-1.5,1.4-3.3,2.4-5.4,2.8
		c-2.6,0.3-5.1,0.5-7.5,0.5c-0.8,0-1.6-0.1-2.7-0.2c-0.9,1.4-1.8,2.8-2.7,4.2s-1.8,2.8-2.8,4.2c-0.3,0.6-0.6,1.2-0.9,1.5
		c-0.6,0.5-1.2,0.8-1.8,0.9c-0.7,0-1-1.3-0.6-2.3c0.7-1.5,1.2-3.2,2.1-4.7c3.3-5.6,6.7-11.2,10-16.8
		C61.7,174.6,62.7,173.5,63.4,172.5z M59.9,185.4c3.7,0.3,6.5,0,8.6-0.9c1-0.5,2-1.1,2.9-1.9c1.2-1.1,1.1-2.9-0.2-4
		c-2.1-1.9-4.7-2.1-7.3-1.6c-1.2,2.3-2.4,4.6-3.6,6.9C60,184.1,60,184.5,59.9,185.4z"/>
	<path class="st0" d="M74.4,200.2c-1.6-1.3-3.1-2.6-4.7-3.9c-2,0.7-3.3,2.2-5,3.3c-1.5,1.1-2.7,3.1-5.4,3.7c0.6-1.2,0.7-1.9,1.1-2.4
		c1.2-1.4,2.4-3.1,3.9-4.2c4.7-3.5,9.3-7,14-10.4c0.8-0.6,1.8-1,2.7-1.3c2.1-0.7,3.6,0.8,3.2,3.3c-0.1,0.9-0.5,1.8-0.7,2.7
		c-1.1,3.5-3.5,6.4-4,10.2c-2.2,2.1-2.8,5.4-4.4,7.9c-0.3,0.6-0.7,1.1-1.1,1.4s-1.1,0.5-1.5,0.3c-0.5-0.2-0.9-0.9-0.9-1.4
		c0.1-1.3,0.2-2.8,0.7-4.1C73,203.7,73.7,202.2,74.4,200.2z M79.7,190.5c-3.2,0.5-5.5,2.2-7.9,4.2c1.2,1.4,2.6,2.3,4.2,2.6
		C77.2,194.9,78.4,192.7,79.7,190.5z"/>
	<path class="st0" d="M173.2,249.2c-2.3,0.8-4.3-0.8-6.8-1c-0.5,0.8-0.8,1.5-1.2,2.3c-2.9,5.4-5.6,10.9-8.5,16.2
		c-0.5,0.8-0.9,1.5-1.5,2.2c-0.3,0.3-1.1,0.7-1.5,0.5c-0.6-0.3-1.3-1-1.3-1.6c0-1.2,0.1-2.6,0.6-3.6c1.4-3.2,3.1-6.3,4.9-9.3
		c1.6-2.8,3.5-5.2,5.4-7.9c-0.8-1-1.6-1.9-2.2-2.9c-0.3-0.6-0.5-1.5-0.2-2.2c0.1-0.3,1.1-1,1.2-0.9c3.5,2.9,7.8,4.3,11.1,7.6
		C173.2,248.6,173.2,248.9,173.2,249.2z"/>
	<path class="st0" d="M113.5,207.8c-2.2,0.1-4.4-0.2-6.5,1.3c0.3,1.5,0.8,3.2,1,4.9c0.7,3.6-0.2,6.9-2.8,9.5
		c-3.5,3.5-10.2,2.6-12.6-2.1c-0.3-0.6-0.1-1.4-0.2-2.6c1.8,0.5,3.2,0.9,4.7,1.2c2.1,0.5,3.9,0,5.4-1.8c1.2-1.4,1.9-3.1,1.6-5.1
		c-0.1-1.1-0.5-2.1-0.5-3.2c-0.1-2.2,0.6-3.4,2.6-4.3c2-0.9,4.1-1.1,6.2-0.3C113.4,205.4,113.8,206.1,113.5,207.8z"/>
	<path class="st0" d="M98.1,195.9c-2.1,2.4-5.1,1.6-6.9,4.1c0.3,1,0.8,2.1,1.2,3.2c0.7,1.5,1.4,3.1,1.9,4.7c1,3.5-0.3,7.5-2.9,9.7
		c-2.6,2.1-7,2.2-9.7,0.3c-1.3-0.9-2-2.1-1.3-3.9c1.6,0.5,3.2,1,4.9,1.1c3.5,0.2,7.5-4.2,5.5-9.2c-0.6-1.4-1.2-2.8-1.6-4.3
		c-0.7-2.1-0.2-3.6,1.5-4.8C93,195.5,95.3,194.8,98.1,195.9z"/>
</g>
<g>
	<path class="st0" d="M99.6,411.5v1.2c-3.2-1.6-5.8-3.5-7.9-5.6c-3-3-5.4-6.7-7-10.7c-1.6-4.1-2.4-8.4-2.4-12.8
		c0-6.5,1.5-12.5,4.8-17.9s7.5-9.2,12.6-11.6v1.3c-2.6,1.4-4.7,3.4-6.3,5.8c-1.6,2.4-2.9,5.6-3.7,9.5c-0.8,3.7-1.2,7.7-1.2,11.9
		c0,4.6,0.3,8.5,1.1,12.3c0.6,2.9,1.2,5.2,2,7c0.8,1.8,1.9,3.4,3.1,5.1C95.7,408.8,97.4,410.1,99.6,411.5z"/>
	<path class="st0" d="M125.4,387.9c-0.8,3.7-2.3,6.8-4.6,8.8c-2.3,2.1-4.8,3.1-7.5,3.1c-3.3,0-6.2-1.3-8.6-4.1
		c-2.4-2.8-3.6-6.5-3.6-11.2c0-4.6,1.3-8.2,4.1-11.1c2.7-2.9,6-4.2,9.7-4.2c2.9,0,5.2,0.8,7,2.2c1.8,1.5,2.8,3.1,2.8,4.7
		c0,0.8-0.2,1.4-0.8,2c-0.6,0.5-1.2,0.8-2.1,0.8c-1.2,0-2.2-0.5-2.8-1.2c-0.3-0.5-0.6-1.3-0.7-2.6s-0.6-2.2-1.2-2.9
		c-0.8-0.7-1.8-0.9-3.1-0.9c-2.1,0-3.7,0.8-5.1,2.3c-1.6,2.1-2.6,4.8-2.6,8.2c0,3.4,0.9,6.5,2.6,9.1c1.6,2.7,4,4,6.9,4
		c2.1,0,3.9-0.7,5.5-2.1c1.2-1,2.3-2.8,3.3-5.2L125.4,387.9z"/>
	<path class="st0" d="M137.6,354.1v38.3c0,1.9,0.1,3,0.5,3.6c0.2,0.6,0.7,1,1.2,1.3c0.6,0.3,1.5,0.5,3.1,0.5v1.1h-14.1v-1.1
		c1.3,0,2.2-0.1,2.8-0.5c0.5-0.2,0.9-0.8,1.1-1.3c0.2-0.7,0.5-1.9,0.5-3.6v-26.3c0-3.2-0.1-5.4-0.2-6c-0.1-0.8-0.3-1.2-0.7-1.5
		c-0.3-0.2-0.8-0.5-1.2-0.5c-0.6,0-1.2,0.2-2.1,0.6l-0.6-1.1l8.6-3.5L137.6,354.1L137.6,354.1z"/>
	<path class="st0" d="M153.5,369.1v23.1c0,1.9,0.1,3,0.5,3.6c0.2,0.6,0.7,1,1.1,1.3c0.6,0.3,1.4,0.5,2.9,0.5v1.1h-14v-1.1
		c1.4,0,2.3-0.1,2.9-0.5c0.5-0.2,0.9-0.8,1.1-1.3c0.2-0.7,0.5-1.9,0.5-3.6v-11c0-3.1-0.1-5.2-0.2-6.1c-0.1-0.7-0.5-1.1-0.7-1.4
		c-0.2-0.3-0.8-0.5-1.3-0.5c-0.6,0-1.3,0.1-2.1,0.5l-0.5-1.1l8.8-3.5h1.2L153.5,369.1L153.5,369.1z M151,354.1
		c0.9,0,1.6,0.3,2.2,0.9c0.7,0.7,0.9,1.3,0.9,2.3c0,0.9-0.3,1.6-0.9,2.2c-0.7,0.7-1.3,1-2.2,1s-1.6-0.3-2.3-1
		c-0.7-0.7-0.9-1.4-0.9-2.2c0-0.9,0.3-1.6,0.9-2.3C149.3,354.4,150,354.1,151,354.1z"/>
	<path class="st0" d="M184,387.9c-0.8,3.7-2.3,6.8-4.6,8.8c-2.3,2.1-4.8,3.1-7.5,3.1c-3.3,0-6.2-1.3-8.6-4.1
		c-2.4-2.8-3.6-6.5-3.6-11.2c0-4.6,1.3-8.2,4.1-11.1c2.7-2.9,6-4.2,9.7-4.2c2.9,0,5.2,0.8,7,2.2c1.8,1.5,2.8,3.1,2.8,4.7
		c0,0.8-0.2,1.4-0.8,2c-0.6,0.5-1.2,0.8-2.1,0.8c-1.2,0-2.2-0.5-2.8-1.2c-0.3-0.5-0.6-1.3-0.7-2.6c-0.1-1.2-0.6-2.2-1.2-2.9
		c-0.8-0.7-1.8-0.9-3.1-0.9c-2.1,0-3.7,0.8-5.1,2.3c-1.6,2.1-2.6,4.8-2.6,8.2c0,3.4,0.9,6.5,2.6,9.1c1.6,2.7,4,4,6.9,4
		c2.1,0,3.9-0.7,5.5-2.1c1.2-1,2.3-2.8,3.3-5.2L184,387.9z"/>
	<path class="st0" d="M185.9,355.4v-1.3c3.2,1.5,5.8,3.4,7.9,5.6c3,3.1,5.4,6.7,7,10.7c1.6,4,2.4,8.4,2.4,13
		c0,6.5-1.5,12.5-4.8,17.9s-7.5,9.2-12.6,11.6v-1.2c2.6-1.4,4.8-3.4,6.4-5.8c1.6-2.4,2.9-5.6,3.7-9.5c0.8-3.7,1.2-7.7,1.2-11.9
		c0-4.4-0.3-8.5-1.1-12.3c-0.6-2.9-1.2-5.2-2-7c-0.8-1.8-1.9-3.4-3.1-5.1C189.9,358.4,188,356.9,185.9,355.4z"/>
</g>
</svg>
