<?xml version="1.0" encoding="utf-8"?>
<!-- Generator: Adobe Illustrator 25.4.1, SVG Export Plug-In . SVG Version: 6.00 Build 0)  -->
<svg version="1.1" id="Capa_1" xmlns="http://www.w3.org/2000/svg" xmlns:xlink="http://www.w3.org/1999/xlink" x="0px" y="0px"
	 viewBox="0 0 1242 2208" style="enable-background:new 0 0 1242 2208;" xml:space="preserve">
<style type="text/css">
	.st0{display:none;}
	.st1{fill:#775F3B;}
	.st2{fill:#62391B;}
	.st3{fill:#A63434;stroke:#A63434;stroke-miterlimit:10;}
	.st4{fill:none;}
</style>
<g id="Fondo" class="st0">
</g>
<g id="mapa">
</g>
<g id="sello_onda">
</g>
<g id="sello_ciculo">
</g>
<g id="mapa_1_">
</g>
<g id="brujula">
</g>
<g id="onda_sola_grande">
	<g id="_x35_">
		<g>
			<path class="st1" d="M-20.7,1949.9c0.6,0.7,1.4,1.1,2.3,1.6c8.8-3.5,17.4-7.4,25.9-11.7c0.2-0.6,0.3-1.1,0.3-1.6l-2.5-2.1
				c1.9,0.4,2.5,1.1,2.5,2.1l1.1,0.9c0.6-0.3,1.2-0.6,1.7-0.9c1.6-3,2.5-5.1,7.5-7.6c0.2,1.5,0.9,2.3,2,2.6
				c69.5-37.5,134.4-91.4,216.3-67.5c8.4-4.4-0.7-3.5,9.5-6.4c-107-26.1-180.3,53.3-266.4,88.2c0.4,0.2,0.8,0.7,1.4,1.4
				L-20.7,1949.9z"/>
			<path class="st1" d="M-135.9,1957.6c-2.8,2,5.1,1.7,9.3,2.2c2.4,0.7,4.8,1.3,7.2,1.8c0-0.2,0.1-0.4,0.1-0.6
				C-124.8,1960.2-130.3,1959.1-135.9,1957.6z"/>
			<path class="st1" d="M-69.6,1964.1c0.1,0.2,0.1,0.4,0.2,0.6c16.4-1.7,32.3-6,47.7-11.8c-0.7-0.3-1.5-0.6-2.3-0.8
				c1.3-0.8,1.6-2.8,2.1-3.9c-6.5,2.6-13,4.9-19.6,6.9c0.2,1.2-1.1,1-2.5,0.7c-5.6,1.6-11.3,3-17,4.1l2.1,2.9l-4.3-2.4
				c-1.2,0.2-2.4,0.4-3.6,0.6c0.6,0.7,1.2,1.4,1.7,2C-66,1963.5-68.3,1963.5-69.6,1964.1z"/>
			<path class="st1" d="M-69.6,1964.1c-0.4-0.9-0.9-1.7-1.6-2.5c-6.8,0.9-13.7,1.4-20.8,1.5c-0.2,0.2-0.5,0.4-0.7,0.6l2.9,1.8
				c6.6,0.2,13,0,19.4-0.7C-70.3,1964.4-70,1964.2-69.6,1964.1z"/>
			<path class="st1" d="M-125.4,2009.2c2.3,0.6,4.7,1.1,7,1.6C-113.6,2007.7-116.4,2007.6-125.4,2009.2z"/>
			<path class="st1" d="M117.5,1934.4c41.4-19.5,85.6-31.4,137.6-18.8c-5.3-1.5,3.4-3.7-6.6-3.7c-41.7-12.5-79.3-4.1-115.8,12.3
				l0.4,1.1l-2.5,1.5l0.2-1.8c-5.2,2.4-10.3,4.9-15.5,7.5C116.5,1932.9,117.3,1933.3,117.5,1934.4z"/>
			<path class="st1" d="M49.9,1971.5c4.2-2.4,8.4-4.9,12.6-7.3c-0.3-0.5-0.6-0.9-0.9-1.3c-4.3,2.5-8.5,4.9-12.8,7.4
				C49.2,1970.5,49.6,1970.9,49.9,1971.5z"/>
			<path class="st1" d="M114.6,1935.7c-0.6-0.3-0.9-1.2-1-2.3c-16.1,8.3-32.1,17.8-48.2,27.2c-0.2,0.8-0.3,1.5-0.5,2.1
				C81.3,1953.3,97.8,1943.9,114.6,1935.7z"/>
			<path class="st1" d="M-18.7,2004.6c1.2-0.8,3.3-2.4,5.4-3.1c-0.2-0.3-0.3-0.5-0.5-0.8c-3.6,1.3-7.2,2.6-10.8,3.8
				c1.3,0.4,2.5,1.4,3.6,2.2c1.3-0.5,2.7-1,4-1.5C-17.2,2004.9-17.7,2004.7-18.7,2004.6z"/>
			<path class="st1" d="M-118.4,2010.8c-1.1,0.7-2.6,1.6-4.5,2.6c16.4,4.3,32,5.7,47.1,5c1.4-1.4,2.7-2.9,3.8-4.5
				C-86.8,2014.9-102.3,2014.1-118.4,2010.8z"/>
			<path class="st1" d="M37.5,1976.6c0,0.4,0.3,0.8,1.2,1.3c1.8-1,3.7-2.1,5.5-3.1c-0.4-0.4-0.8-0.8-1.2-1.2
				C41.1,1974.6,39.3,1975.6,37.5,1976.6z"/>
			<path class="st1" d="M-70.6,2013.8c-0.4,1.3-0.8,2.5-1.5,3.4c0.6,0.3,1.2,0.6,1.7,0.9c3.1-0.3,6.2-0.6,9.3-1
				c0.8-1.3,1.4-2.9,2-4.5C-62.9,2013.1-66.7,2013.5-70.6,2013.8z"/>
			<path class="st1" d="M-8.5,1998.7c-0.9,0.3-1.7,0.7-2.6,1c0.2,0.5,0.5,1.1,0.8,1.6c0.5,0.1,0.9,0.3,1.3,0.6
				c0.7-0.3,1.4-0.6,2-0.9C-7.2,2000.2-7.7,1999.3-8.5,1998.7z"/>
			<path class="st1" d="M-27.5,2005.4c-0.8,0.3-1.6,0.5-2.4,0.8c-0.3,1.2-0.5,2.4-0.7,3.6c0.1,0.1,0.3,0.1,0.4,0.1
				c1.6-0.5,3.1-1,4.7-1.5c0.4-0.3,0.7-0.7,0.9-1.2L-27.5,2005.4z"/>
			<path class="st1" d="M-2.4,1997.1c-1.8,0.7-2.5,1.9-2.6,3.2c1-0.4,2-0.9,3-1.3c0.4-0.5,0.7-1,1-1.6
				C-1.4,1997.2-1.9,1997.1-2.4,1997.1z"/>
			<path class="st1" d="M108.9,1997.1l0.8,0.3c15.6-8.8,31.1-16.9,47-23.2c0-0.1-0.1-0.2-0.1-0.2c0.1,0.1,0.2,0.1,0.2,0.2
				c29-11.5,59-16.9,91.9-9.7c-0.1-0.9,0.4-2.1,2-3.5c0.3,0.9,0.3,4.1,2.3,4.1c0.9-1.5,0.2-3.3-0.2-4.9
				c-37.6-7.4-71.2-0.1-103.4,13.4c-0.8,1.5-2,2.4-4.3,1.8c-0.2,0.1-0.5,0.2-0.7,0.3c0,0.1,0.1,0.2,0.1,0.3l-0.1-0.3
				c-12.1,5.3-23.9,11.5-35.7,18.1c0.1,0,0.1,0,0.2,0C109.4,1995.7,109.4,1995.7,108.9,1997.1z"/>
			<path class="st1" d="M67.4,2022c0-0.2-0.1-0.4-0.1-0.6c-0.2-1.1-0.4-2.3-0.6-3.5c-15.2,8.7-30.5,17.2-46.2,24.5l2.3,3.3
				C38.1,2038.7,52.9,2030.5,67.4,2022z"/>
			<path class="st1" d="M-10.8,2054.9c-2.1,0.7-4.1,1.3-6.2,1.9c0.8,0.5,1,1.2-0.5,2.7c-4.7-1-7.7,1.1-9.8,3.7
				c7.3-1.7,14.5-3.7,21.6-6.1c-1.5,0.4-3.3,0.3-5.8-0.2C-11.2,2056.3-11,2055.6-10.8,2054.9z"/>
			<path class="st1" d="M76,2017c-0.3-1.2-0.5-2.4,0.9-3.2c0,0.9,0.2,1.7,0.3,2.5c10.2-6,20.4-12.1,30.5-17.8l-2.4-0.2
				c0.5-1.3,0.8-2.4,1.2-3.2c-12.2,6.8-24.3,14-36.6,21.1c0.8,1.1,1.7,2.2,2.7,2.9C73.7,2018.3,74.9,2017.7,76,2017z"/>
			<path class="st1" d="M3.1,2054.1c3.8-1.4,7.5-3,11.3-4.6c-1.3-0.2-2.3-1-2.6-3.1c-3.7,1.6-7.4,3.1-11.1,4.5
				c-0.1,0.2-0.3,0.4-0.4,0.7L3.1,2054.1z"/>
			<path class="st1" d="M18.1,2043.6c-0.6,0.3-1.2,0.5-1.8,0.8C17,2044.4,17.7,2044.2,18.1,2043.6z"/>
			<path class="st1" d="M-4.5,2056.8c1.5-0.5,3-1,4.5-1.6c0.2-1.1,0.4-2.3,0-3.4C-1.4,2054.1-2.5,2055.9-4.5,2056.8z"/>
			<path class="st1" d="M254,1962.3l-0.9,3.3c2.4,0.6,4.9,1.3,7.4,2c3.5-1.8-1.8-2.4,3.8-4.8c-1.9-0.5-3.8-1-5.7-1.4
				c-0.1,0.5-0.2,1-0.4,1.5C256.8,1964.8,256.3,1963.1,254,1962.3z"/>
			<path class="st1" d="M2.5,2109.3c-0.5-0.9-0.9-1.8-1.4-2.7c-3.8,1.2-7.7,2.2-11.5,3.2l-2,3.8C-7.3,2112.4-2.4,2110.9,2.5,2109.3z
				"/>
			<path class="st1" d="M155.6,2030.6c36.9-16.5,76.7-25.9,123.5-16.4c-1.1-0.4-1.6-1,0.2-2c-44-12.7-82.9-3.4-120.3,13.9
				C158.2,2027.5,156.9,2029,155.6,2030.6z"/>
			<path class="st1" d="M6.9,2107.8c51-18,96-53.2,146-76c-0.3-0.8-0.6-1.6-0.9-2.5c-41.2,20.1-80.8,48.7-123.9,67.3
				c-0.9,0.9-2,1.3-3.2,1.4c-5.3,2.2-10.7,4.3-16.2,6.2c0,0.1,0,0.3,0,0.4C7.6,2105.1,7.1,2106.4,6.9,2107.8z"/>
			<path class="st1" d="M-32,2117.5c0.5-0.1,1-0.2,1.5-0.2c2.5-1.7,5.8-2.7,8-4.9c-4.6,0.8-9.3,1.4-14.1,1.9
				C-35.2,2115.7-33.6,2116.8-32,2117.5z"/>
			<path class="st1" d="M281.1,2014.6c0.7,0.1,1.3,0.3,2,0.4C283.3,2014.8,282.3,2014.8,281.1,2014.6z"/>
			<path class="st1" d="M279,2014.2c0.6,0.2,1.4,0.3,2.1,0.4C280.4,2014.4,279.7,2014.3,279,2014.2z"/>
			<path class="st1" d="M285.5,2064.7c1.3,0.6,7.1,1.7,14.5,1.2c-8.8-2-17.3-3.3-25.7-4.1C278,2062.6,281.7,2063.5,285.5,2064.7z"/>
			<path class="st1" d="M-58.1,2167.1c0.6-1.2,1.2-2,2-2.4c-1.6-0.2-3.2-0.4-4.8-0.7C-60.3,2165.7-59.6,2167.2-58.1,2167.1z"/>
			<path class="st1" d="M200.6,2065.8c-29.6,8.9-58.2,25.1-87,41.9c-0.8,1.9-2.9,3.8-2.6,5.2c28.2-16.3,56.7-32.4,87.5-42.2
				C199.6,2069.3,200.8,2067.7,200.6,2065.8z"/>
			<path class="st1" d="M200.7,2065.8l1.2,3.8c22.6-6.8,46.5-10.3,72.4-7.9C248.8,2056.1,224.5,2058.6,200.7,2065.8z"/>
			<path class="st1" d="M-80,2160.8c-4.7,1.9,3,0.6-2.1,4.3c1.4,0.3,2.7,0.6,4.1,0.9C-78.4,2163.7-79,2161.7-80,2160.8z"/>
			<path class="st1" d="M-20.4,2164.9c1.6,1.1,7.1-2,8.7,2.2c44.1-7.8,83.1-31.2,122.6-54.1l-2.4-2.3
				C67,2135,25.1,2159.7-20.4,2164.9z"/>
			<path class="st1" d="M-44.2,2166.8c2.2-0.6,4.4-1.8,3.7,2.4c0.2,0.3,0.5,0.4,0.7,0.6c0.7,0,1.3,0,2,0c0.7-0.8,1.1-2.4,1.5-3.9
				c-3.7,0-7.4-0.1-11.1-0.3C-46.9,2167.2-45.6,2167.1-44.2,2166.8z"/>
			<path class="st1" d="M-69.1,2164.8c-1.8-2.1-2.7,0-3.5,2.2c1.6,0.3,3.2,0.6,4.8,0.8C-68.1,2166.6-68.5,2165.6-69.1,2164.8z"/>
		</g>
	</g>
</g>
<g>
	<g>
		<g>
			<path class="st2" d="M616.1,622.3c-3.4,0-6.5-1.9-8.2-4.9l-54.7-105.8c-9.9-21.7-8.4-46.8,3.9-67.1c12.1-19.9,32.2-32,55.1-33.2
				l0,0c2.5-0.1,5.1-0.1,7.7,0c22.9,1.2,43,13.2,55.1,33.2c12.4,20.4,13.9,45.4,4,66.9l-54.8,106
				C622.6,620.4,619.5,622.3,616.1,622.3L616.1,622.3z M612.6,418.6c-20.5,1-38.4,11.9-49.2,29.7c-11.1,18.3-12.5,40.8-3.6,60.2
				L614.4,614c0.5,0.9,1.4,1,1.7,1c0.4,0,1.3-0.1,1.8-1.1l54.6-105.7c8.8-19.2,7.4-41.7-3.7-60c-10.8-17.8-28.8-28.6-49.2-29.7
				C617.3,418.4,614.9,418.4,612.6,418.6L612.6,418.6z"/>
		</g>
		<path class="st3" d="M635.5,460c-7-1.6-14.6,1.5-19.4,7.9c-4.8-6.4-12.4-9.6-19.4-7.9c-7.7,1.8-12.8,8.5-13,17.1
			c-0.4,24.2,31.7,44,32,44.1c0.1,0,0.2,0.1,0.4,0.1c0.1,0,0.2,0,0.4-0.1c0.3-0.1,32.4-20,32-44.1
			C648.3,468.5,643.2,461.8,635.5,460z"/>
	</g>
</g>
<g>
	<path class="st2" d="M451.9,758.2c0.4-1.1,0.7-1.9,1-2.5c1.9-3.2,5-7,9.4-11.3c12.8-13.2,27.9-23.3,45.4-30.1
		c11.1-4.2,21.7-6.3,31.7-6.3c19,0,34.9,4.8,47.8,14.3c11,8.2,17.3,19.7,18.9,34.7c0.2,1.6,0.3,3.9,0.3,7c0,8.4-1.4,17.8-4.3,27.9
		c-3.9,13.6-10.5,28.1-19.5,43.5c-7.6,12.8-17.3,26.2-29,40c-4,4.9-10.6,11.8-19.5,20.8c-8,7.9-16.4,15.2-25.2,21.9
		c-14.7,11.4-29.2,20.1-43.6,26.3c-9.4,3.9-17.8,6.2-25.3,7c-2.6,0.3-5.1,0.4-7.6,0.4c-5.4,0-10-0.8-13.9-2.3
		c-12.4-5.1-18.6-15-18.6-29.4c0-5,0.7-9.5,2.2-13.6c1-2.6,1.8-4.3,2.3-5.1c0.9-1.6,2-2.3,3.3-2.3c0.6,0,1.1,0.1,1.8,0.4
		c2.1,0.7,3.5,2.4,4.1,5c0.9,4,1.6,7.1,1.9,9.1c0.3,1.5,0.6,3.4,1,5.9l0.8,5.8c0.1,0.9,0.3,2,0.6,3.4c0.3,1.3,0.6,2.4,0.8,3.1
		l0.3,1.4c-0.5,0.3-0.8,0.4-1.1,0.4c-0.3,0-0.6-0.1-0.8-0.4c-1.5-1.7-2.4-3.9-2.9-6.9c-0.6-2.7-1.4-7.5-2.6-14.6
		c-0.4-1.7-0.9-3.7-1.5-6.1c-0.1-0.3-0.2-0.5-0.3-0.7c-0.1-0.2-0.2-0.4-0.3-0.6c-0.7,0.1-1.2,0.4-1.4,0.9c-0.2,0.5-0.3,0.8-0.3,0.9
		c-1.9,5.2-2.9,10.4-2.9,15.4c0,4.8,0.9,9.2,2.8,13.2c2.8,6.8,7.5,10.9,14,12.2c2.6,0.6,5.5,1,8.7,1c1.1,0,2.7-0.1,4.7-0.3
		c6.8-0.6,13.9-2.4,21.5-5.4c10.5-4.1,21.2-9.8,32.1-16.9c10.9-7.2,21.2-15.1,31-23.9c3.4-3,8.3-7.8,14.9-14.3
		c6.3-6.1,13.3-13.9,20.8-23.3c8.4-10.5,16.1-21.6,23.1-33.3c5.2-8.7,9.8-17.7,13.6-26.8c6.3-15.5,9.5-29.9,9.5-43.1
		c0-6.4-0.8-12.2-2.5-17.2c-2.4-7.9-7.1-14.3-14-19.3c-6.8-4.8-14.9-8.3-24.2-10.5c-6.7-1.6-13.3-2.3-19.7-2.3
		c-5.8,0-11.5,0.6-17.1,1.8c-7.3,1.6-15.1,4.2-23.3,7.8c-7.8,3.7-15,7.9-21.6,12.7c-8.4,5.8-16.3,12.8-23.5,21.1c-1,1.2-2,2.5-3,3.9
		L451.9,758.2z M435.5,880.2c2.8-13.4,5.3-24.3,7.6-32.8c2.4-9.2,5.7-20.2,9.9-33c4.3-12.9,9-25.3,14.2-37.2
		c2.3-5.3,4.3-9.7,5.9-13.3c1.7-3.5,3.4-7,5.4-10.4c1.3-2.1,3.3-5.3,6.1-9.5c0.6-1,1.3-1.7,1.9-2.1c0.4-0.4,1-0.4,1.8-0.1
		c0.5,0.2,0.7,0.5,0.7,0.8s0,0.5-0.1,0.7c-0.2,0.5-0.4,1-0.8,1.7c-0.3,0.7-0.8,1.5-1.3,2.4c-3,5.7-6,12-8.8,18.9l-4.3,10.5
		c-3.4,8.3-5.5,13.5-6.2,15.6c-3.2,8.4-6.3,17.2-9.2,26.3c-3.3,9.8-6.6,21.2-9.9,34.3c-4.1,15.3-7.2,31.3-9.4,47.9
		c-0.2,1.3-0.3,2.3-0.3,3c0,0.9,0.1,1.8,0.4,2.6c0.3,0.9,0.1,2.2-0.4,3.7c-0.2,0.7-0.7,1.3-1.7,1.7l-1.1,0.3c-0.8,0-1.6-0.3-2.2-0.8
		s-1.1-1.1-1.2-1.9c-0.2-0.9-0.3-1.6-0.3-2.1l0.1-1.4c0.1-0.9,0.2-2.5,0.3-4.7c0.1-2.2,0.3-4.2,0.6-6.1
		C433.7,892.7,434.4,887.7,435.5,880.2z"/>
	<path class="st2" d="M637.3,862.1c0.9,0,1.7,0.4,2.3,1.1c0,0.6,0,0.9-0.1,1c-1.7,1.7-4.3,3.7-7.7,5.9c-3.1,2-5.4,3.7-6.9,5.1
		c-1.4,1.2-5.3,5-11.8,11.3l-5.9,5.6c-2.5,2.4-5.8,5.1-10,8.1c-2.8,1.7-5.6,2.6-8.3,2.6c-2.3,0-4.4-0.7-6.4-2.1
		c-2-1.4-3.2-3.2-3.6-5.4c-0.7-2.9-1.1-5.6-1.1-8c0-2.9,0.3-5.7,0.8-8.3c0.6-2.6,1.4-6.3,2.6-11.1l0.7-2.1c0.2-0.5,0.3-1.2,0.4-2.3
		c0.1-1.1,0.3-1.9,0.5-2.5s0.7-1.1,1.4-1.4l1.8-3.2l1.7-3.2c0.6-1.3,1.8-3.2,3.4-5.8c1.7-2.3,3.1-4.1,4.4-5.4
		c1.1-1.1,2.4-2.2,3.9-3.4s2.6-2.1,3.2-2.6c0.6-0.5,1.6-1,2.9-1.5c1.3-0.4,2.3-0.6,3-0.6c2.3,0,4.2,0.8,5.8,2.3s2.4,3.5,2.4,6
		c0,1.7-0.3,3.2-0.8,4.4c-3.2,8.3-8,14.6-14.4,19.1c-3.7,2.7-6.9,4-9.8,4c-1,0-2-0.1-2.9-0.4h-0.4l-1.4,0.1
		c-1.9,6.1-2.9,12.2-2.9,18.3c0,2.1,0,3.7,0.1,4.7c0.2,1.8,0.6,3.3,1.1,4.3c0.7,1.7,1.6,2.5,2.6,2.5c0.3,0,0.8-0.2,1.5-0.6
		c2.9-1.5,5.1-2.8,6.5-4l8.7-7.4c2.3-2.1,4.6-4.1,6.9-6.1c6.1-5.2,12.1-10.4,17.9-15.4c1.4-1,3.3-2.1,5.8-3.3
		C636.1,862.2,636.8,862.1,637.3,862.1z M588.4,865.4c0,0.4,0.2,0.8,0.7,1.2c3.9-0.3,7.5-2,10.6-5.1c4.4-4.3,8.3-9.4,11.6-15.4
		c0.8-1.4,1.4-2.8,1.7-4.3c0.1-0.6,0.1-1.2,0.1-1.7s-0.1-1-0.1-1.4c-0.8-0.3-1.6-0.4-2.3-0.4c-1,0-1.9,0.3-2.6,0.8
		c-3.4,2.2-5.5,3.6-6.2,4.3c-2.9,2.5-5.4,5.4-7.4,8.9c-2,3.4-3.9,7.5-5.7,12.2C588.5,864.8,588.4,865.1,588.4,865.4z"/>
	<path class="st2" d="M691.9,866.3c-0.8,0.2-1.3,0.2-1.4,0.1c-1.1-0.6-2.2-0.8-3.3-0.8c-1,0-2,0.1-2.9,0.4
		c-5.7,1.5-9.8,2.8-12.4,4.1c-2.6,1.2-4.2,2.6-5,4s-1.4,3.5-2,6.3c-0.6,3-1.4,5.8-2.1,8.2c-0.8,2.4-2.2,5.3-4.2,8.6
		c-6.8,11-14,20.4-21.7,28.1c-3.6,3.6-6.9,6.3-10,8.1c-1.3,0.7-3.3,1.7-6.1,2.8c-0.6,0.3-1.3,0.4-1.9,0.4c-0.6,0-1.5-0.2-2.6-0.6
		c-1.8-0.6-3.1-1.4-3.9-2.2c-0.7-0.8-1.1-2-1.1-3.6c0-3.3,0.9-6.8,2.6-10.6c3.4-7.2,8.1-13.9,14-20.4c7.2-7.9,16.8-15.2,28.8-22
		l3.2-1.8c0-1.3,0-2.2-0.1-2.8c-0.3-1.9-1.3-3.2-3-3.7c-3.2-1.1-6.2-1.7-9.1-1.8l-6.6-0.3c-2.8-0.2-5-1.2-6.7-3.2
		c-0.7-0.9-1.1-1.7-1.1-2.3c0-0.7,0.3-1.5,1-2.2c1.3-1.7,2.5-2.9,3.7-3.9c6.2-5,11.9-8.7,17.1-11.3c0.3-0.1,1-0.5,2.2-1.1
		s2.4-1,3.7-1c1.6,0,2.6,0.6,3,1.8c-7.5,4.7-13,8.3-16.3,10.9c-3.4,2.6-5.9,5.1-7.8,7.6c0.2,0.6,0.7,0.8,1.7,0.8s3.8,0.2,8.4,0.7
		c3.7,0.4,6.3,0.8,8,1.3s3.5,1.8,5.5,3.8l1,0.7l2.5-1c3.1-1.4,6.7-2.8,10.9-4.1c1.6-0.6,3.9-1.1,7-1.7c1.1-0.2,2.1-0.1,3.1,0.3
		c1,0.4,2.1,1,3.4,1.8C691.2,864.9,691.5,865.4,691.9,866.3z M657.1,885.6c0.6-1.2,1-2.6,1.2-4.1c-2.5,1-6.4,3.5-11.7,7.4
		s-9.3,7.2-11.8,9.8c-5,5-9,9.9-12.2,14.9c-2.1,3.3-4,7.6-5.6,12.9c-0.2,0.7-0.3,1.6-0.3,2.6s0,1.7,0,1.9s0.1,0.6,0.4,1.1
		c0.3,0.5,0.5,0.9,0.7,1.2c0.6-0.4,1.2-0.7,2-1.1c0.8-0.4,1.4-0.7,1.9-1c1.3-0.9,3.1-2.4,5.5-4.4c3.3-2.8,7.2-7.2,11.8-12.9
		c3.9-4.9,7.2-9.4,10-13.5s5.2-8.4,7.2-12.8C656.2,887.5,656.5,886.8,657.1,885.6z"/>
	<path class="st2" d="M786.3,789c0.5,0.6,0.9,1.7,1.2,3.3c-1.1,0-1.9,0-2.3-0.1c-9.5-1.9-18.7-2.9-27.5-3
		c-14.1-0.2-24.7-0.3-31.8-0.3l-5.2,0.1c-0.2,0.5-0.4,0.9-0.7,1.3c-0.3,0.4-0.5,0.8-0.7,1.3c-2.4,5.7-5.8,14.3-10.2,25.9l-1,2.6
		c-6.2,16.2-11.1,30.5-14.6,42.8c-3.9,13.4-6.7,23.5-8.4,30.3c-1.6,5.9-3.1,12.2-4.5,19.1c-0.2,0.8-0.4,2.1-0.5,3.7
		c-0.1,0.5-0.1,1.2-0.1,2.2c0,1.5,0.3,2.6,1,3.4c-0.6,1-1.5,1.5-2.5,1.5c-0.5,0-1.2-0.2-2.3-0.6c-1.4-0.5-2.2-1.5-2.3-3.2l-0.1-1.5
		c0-0.6,0.1-1.3,0.3-2.2c0.3-1.3,0.7-3.7,1.4-7.3c0.7-3.9,1.4-7,1.9-9.2l1.2-5.2c2.9-11.5,5.4-20.6,7.3-27.5
		c4.9-16.8,9.9-31.6,15.1-44.4l4.4-11c2.3-6.1,4.8-12.3,7.4-18.6c0.2-0.5,0.5-1.5,1-3c-0.6-0.4-1.6-0.6-2.9-0.6
		c-3.6,0-8.9,0.1-16.1,0.3c-7.3,0.2-12.8,0.3-16.4,0.3c-0.6,0-1.6-0.1-2.9-0.3c-1-0.1-1.7-0.8-2.1-2.2c1.7-0.6,3.9-1.1,6.7-1.4
		c2.8-0.3,7.7-0.6,14.4-0.9l21.3-0.8c0.8-0.6,1.5-1.5,1.9-2.6c0.5-1.1,0.7-1.8,0.8-2.1c2.8-6.8,6.5-13.9,11.1-21.5
		c0.9-1.5,1.7-2.5,2.2-3c0.3-0.3,0.7-0.4,1.2-0.4c1,0,1.3,0.6,1,1.8l-0.7,1.9l-5.4,12.7l-3.3,7.4l-1.8,4.7c0.3,0.7,0.8,1.1,1.5,1.1
		c3.2,0,5.6,0,7.3-0.1c1.2,0,2.7,0,4.5-0.1c1.8,0,3.9,0,6.3,0.1l6.7,0.1c9.9,0.2,17.3,0.6,22.2,1.2c3.6,0.5,7.7,1.3,12.2,2.6
		C785,788,785.8,788.4,786.3,789z"/>
	<path class="st2" d="M715.2,854.7c0.2,0.3,0.3,0.8,0.1,1.6c-0.3,1.6-1,4.3-2.2,8.1c-1.4,4.6-2.6,9.2-3.6,14
		c-1.1,4.7-2.3,10.5-3.6,17.4c-0.1,0.5-0.1,1.2-0.1,2.2l0.1,4.7c-0.6,0.4-1.3,0.6-1.9,0.6c-0.7,0-1.4-0.3-2.1-0.8
		c-1.4-1.1-2-2.2-1.9-3.4c0.4-3.6,0.7-6.4,1-8.4c2.1-13.6,5.2-24.9,9.2-33.9c0.1-0.3,0.3-0.8,0.6-1.6s0.9-1.4,1.7-1.9
		c0.2,0.1,0.4,0.1,0.6,0.1c0.2,0,0.5,0.1,0.9,0.3C714.5,854,715,854.4,715.2,854.7z M720.8,842c0,0.7-0.3,1.3-0.8,1.7
		s-1.1,0.5-1.7,0.3c-1.4-0.6-2.3-1.5-2.9-2.9c-0.3-0.6-0.4-1.1-0.4-1.5c0-0.7,0.4-1.6,1.1-2.5c1.2,0.2,2.3,0.8,3.4,1.9
		C720.4,839.9,720.8,840.9,720.8,842z"/>
	<path class="st2" d="M763.3,905.8c1.3,0,2.2,0.4,2.8,1.2c-1,1.5-2.5,2.1-4.4,1.8c-5-0.8-8.2-3.1-9.5-6.7c-0.5-1.4-1-3.5-1.5-6.5
		c-0.5-2.9-0.7-5.5-0.7-7.7c0-3.9,0.5-8.2,1.4-12.9c0.6-3.6,1.8-8.9,3.4-16.1c0.6-1.8,0.9-3.4,1.1-4.8c0.1-0.6,0.1-1.2,0.1-1.7
		s-0.1-0.9-0.1-1.2c-0.9,0-1.6,0-1.9,0.1c-3.7,1.8-6.9,4.3-9.8,7.4c-5,5.9-9.5,12.3-13.2,19.3c-3.2,6.1-5.9,12.6-8,19.5
		c-0.4,1.5-1.1,2.2-2.2,2.2c-0.6,0-1.1-0.2-1.8-0.6c-1.3-0.6-1.9-1.4-1.9-2.2c0-0.6,0.1-1.2,0.3-1.7c0.4-1.4,0.9-3,1.5-4.8
		s1.1-3.2,1.4-4l1.9-5.6c2.8-8,5-14.3,6.9-19c0.4-1,0.7-1.9,1.1-2.6c0.4-0.7,0.7-1.4,1-1.9c1.3-2.5,2.2-4.7,2.8-6.7
		c0.3-1.1,0.9-1.7,1.9-1.7c0.2,0.6,0.3,1,0.3,1.2c0,0.6-0.2,1.4-0.6,2.5c-0.9,3.1-1.7,5.5-2.2,7l-0.4,3.3c0.3-0.4,0.7-0.8,1.2-1.3
		s0.8-0.9,1-1.3c2.5-3.7,6-7.2,10.6-10.7c1.2-0.9,2.8-1.9,4.7-2.9c0.8-0.4,1.7-0.6,2.8-0.6c1.5,0,3,0.6,4.5,1.7
		c2.8,2.2,4.1,5,3.7,8.3c-0.4,3.5-0.7,6.1-1.1,8c-1.7,7.2-2.8,13.2-3.3,17.8c-0.3,2.3-0.4,4.6-0.4,7c0,3.7,0.3,7.1,1,10.2
		c0.3,1.6,0.7,3,1.2,4.3c0.3,0.8,0.7,1.5,1.4,1.9c0.6,0.5,1.4,0.6,2.3,0.6L763.3,905.8L763.3,905.8z"/>
	<path class="st2" d="M832.6,865c0,0.2-0.1,0.4-0.2,0.5c-0.2,0.2-0.6,0.3-1.2,0.3c-0.3,0-0.5-0.1-0.7-0.3l-1-0.8
		c-2.4-2.4-5.2-3.7-8.5-4c-0.9-0.1-2.6-0.2-5.1-0.4s-4.8-0.3-6.9-0.3c0.1,0.3,0.1,0.6,0.1,1.1s0,0.8,0.1,1.1c1.2,3,1.8,6.1,1.8,9.2
		c0,4.8-1.5,10-4.5,15.6c-3.4,6.1-7.1,10.7-11,13.6c-2.4,1.7-4.5,3.1-6.5,4c-2.2,1-4.3,1.5-6.2,1.5c-3.3,0-6.2-1.1-8.7-3.3
		s-4.1-5.1-4.7-8.7c-0.2-0.8-0.3-2.2-0.3-4c0-5.9,1.6-12.5,4.7-20c1.9-4.6,3.7-8.4,5.4-11.4s3.6-5.7,5.9-8.2c2-2.2,3.8-3.8,5.4-4.7
		c0.7-0.5,1.3-0.7,1.8-0.7c0.6,0,1.1,0.3,1.5,1c0.6,0.8,1.3,1.5,2.3,2s1.6,0.9,2,1.2c0.7,0.5,3,2.1,6.9,5l10.6,1
		c2.5,0.2,4.5,0.5,6.2,1c5.2,1.6,8.9,4.3,10.9,8.1C832.6,864.6,832.6,864.8,832.6,865z M805.3,868.3c0-1.4-0.1-2.8-0.4-4.1
		c0-0.2-0.1-0.8-0.3-1.7c-0.2-1-0.6-1.9-1.4-2.7c-2.4,0-4.2,0-5.4-0.1c-2.4-0.2-4.4-0.6-6.1-1.1c-1.7-0.6-3.2-1.6-4.6-3
		c-1,1.2-1.6,1.9-1.7,2.1c-2.2,3.7-4.1,7.5-5.8,11.6c-2.4,5.7-4,11.7-4.8,18.2c-0.2,1.8-0.3,3.3-0.3,4.3c0,2.1,0.3,4.1,1,6.1
		c0.9,2.8,2.4,4.3,4.4,4.3c0.7,0,1.7-0.2,2.9-0.7c0.9-0.4,1.6-0.7,1.9-1c0.6-0.5,1.6-1.1,3-2.1c1.3-0.9,2.5-1.8,3.4-2.6
		c4.4-4.1,8-9,10.9-14.7C804.2,876.6,805.3,872.4,805.3,868.3z M796.9,854.1L796.9,854.1h-0.2H796.9z"/>
</g>
<g id="texto2">
</g>
<g>
	<g>
		<g>
			<path class="st2" d="M325.6,1527.5c3.8-21.6,26.6-32.1,45.2-34.3c1.7-0.3,3.5-0.4,5.5-0.4c10.6-12.9,24.7-17.2,31.1-18.2
				c16.4-2.5,25.1,6.9,16.1,13.3c-6.4,4.5-26.5,5-41.7,5.9c-8.4,10.5-11.9,21.4-10.5,28.6c2,9.7,8.4,12.3,24.5,5.9
				c12.3-4.9,24.1-22.4,28.2-29.4c0.6-1.3,1-2,1-2c1.8-1.1,3.4,0.4,2.8,6.3c0,0-9.7,26.2-19.9,47.8c5.3,0.8,10.6,1.8,19.1,2.5
				c16.8,1.4,25.5-1.3,35.4-5c-9.8,4.5-20.3,9.2-53.1,3.6c-0.6-0.1-1.3-0.3-2-0.4c-4.3,9.2-9,17.5-12.9,22.6
				c-9.1,11.3-20.3,14.1-28.7,13.4c-14.4-1.1-14.8-14-10.6-21c6.2-10.6,22.3-16.5,37-16.9c4.1-0.1,7.6,0,10.6,0.4
				c1.5-3.5,2.8-7.1,4.3-10.9c5.2-13.4,9.8-24,12.9-31c-5.9,9.1-15.5,18.9-27.3,22.8c-27.5,9.1-30-15.5-21-31.2
				c1.1-2,2.4-3.8,3.8-5.6C348.9,1496.2,331.9,1508.1,325.6,1527.5z M364.4,1559.1c-14.1,9.1-13.2,25.9,0.6,27.3
				c17.8,1.7,27.7-13.6,37-35.3C385,1549.6,373.4,1553.5,364.4,1559.1z M387.1,1487.8c-1.5,1.4-2.8,2.9-4.2,4.5
				c13-0.8,28.9-1.4,34.9-3.4c13.9-4.3,6.3-12.9-2-13.2C404.2,1475.2,394.4,1480.7,387.1,1487.8z"/>
			<path class="st2" d="M438,1513.7c4.5-0.1,8.3,2.7,8.3,9.9c0,2.1-0.4,5.2-1.3,8c1.4-0.6,2.9-1.5,4.5-2.8c6-4.9,7.6-9.9,10.6-9.5
				c-3.4,2.5-6.2,8.5-12,12c-1.1,0.7-2.4,1.1-3.6,1.7c-2.2,6.7-6.6,13.7-11.6,13.4c-7.1-0.3-7.7-9.7-4.3-16.2
				c0.4-0.8,0.8-1.7,1.1-2.4C425.6,1520,432.4,1513.9,438,1513.7z M433.2,1531.7c-1.1,1.8-1.8,3.6-2.4,5.5c-1.3,5,1.1,10.5,5.6,6.6
				c2.1-2,4.5-5.9,6.3-10.5C439.5,1534.1,436,1533.6,433.2,1531.7z M436.4,1519.5c2.8-0.4,3.1,2.2,2.8,3.8c0,0.1-2.9,3.2-5.3,7.4
				c2.4,1.8,5.7,2.5,9.4,1.7c2.1-6,2.8-12.9-0.8-15.7c-4.8-4.1-10.6,0.6-11.5,4.1c-0.4,2-0.4,3.8,0,5.5
				C433.5,1521.9,435.6,1519.5,436.4,1519.5z"/>
			<path class="st2" d="M460.2,1513.7c4.5-0.1,8.3,2.7,8.3,9.9c0,2.1-0.4,5.2-1.3,8c1.4-0.6,2.9-1.5,4.5-2.8c6-4.9,7.6-9.9,10.6-9.5
				c-3.4,2.5-6.2,8.5-12,12c-1.1,0.7-2.4,1.1-3.6,1.7c-2.2,6.7-6.6,13.7-11.6,13.4c-7.1-0.3-7.7-9.7-4.3-16.2
				c0.4-0.8,0.8-1.7,1.1-2.4C447.9,1520,454.6,1513.9,460.2,1513.7z M455.5,1531.7c-1.1,1.8-1.8,3.6-2.4,5.5
				c-1.3,5,1.1,10.5,5.6,6.6c2.1-2,4.5-5.9,6.3-10.5C461.6,1534.1,458.1,1533.6,455.5,1531.7z M458.7,1519.5
				c2.8-0.4,3.1,2.2,2.8,3.8c0,0.1-2.9,3.2-5.3,7.4c2.4,1.8,5.7,2.5,9.4,1.7c2.1-6,2.8-12.9-0.8-15.7c-4.8-4.1-10.6,0.6-11.5,4.1
				c-0.4,2-0.4,3.8,0,5.5C455.8,1521.9,457.9,1519.5,458.7,1519.5z"/>
			<path class="st2" d="M483.9,1537.7c3.9-1.1,7.1-1,9.5,0.3c9.8-6.2,15.4-10.5,19.9-18.6c-1,6.6-8.8,13-18.6,19.3
				c4.3,2.9,5.3,9.5,4.3,14.7c-2,9.7-7.7,17.8-18.2,24.5c-8,5-18.6,6.2-22.8,3.4c-10.6-7.4,4.5-23.8,16-31.1
				c7-4.5,12.9-8.3,17.7-11.2c-1.8-0.7-3.9-1-6.9-0.4c-4.8,1.1-8.1,2.5-8.1,2.5S479.6,1538.8,483.9,1537.7z M474.8,1551.3
				c-24.5,16.2-24.1,36.1-4.1,27c22.7-10.6,25.8-26.5,24.8-33.3c-0.4-1.8-1.1-3.8-2.8-5C487.1,1543.6,480.8,1547.2,474.8,1551.3z
				 M493.7,1517.9c0.4,0.4,1.1,0.8,1.4,1.7c1.8,5.2-4.3,13.2-11.6,17.1c-6.6,3.6-11.1,2.1-12-3.5c-1.7-9.1,9.1-16.2,13.9-17.5
				c2.1-0.6,3.8-0.7,5.2-0.7C493.7,1515.4,494.6,1517.1,493.7,1517.9z M479.7,1524.5c-5.2,5.6-6.4,12.5-2.2,12.2
				c4.3-0.4,9-3.5,13-8.5c3.2-4.1,3.1-8.3,2.1-9.9C490.8,1518.2,485,1519.3,479.7,1524.5z"/>
			<path class="st2" d="M507.3,1547.9c-0.4,2.9,0.1,5.2,2.8,1.5c8-11.2,17.7-26.5,25.9-30c-5.6,5.2-12.9,13.4-18.6,22
				c-8,11.8-9.1,12.5-11.3,11.3c-4.2-2.1-2.1-14.3,0.4-22.6c3.1-9.9,11.2-29.7,20.2-42.9c4.3-6.3,8.3-11.3,12.2-13.9
				c3.1-2.1,6.9-2.9,9.1,0.1c4.5,6.7-20.7,35.6-28.3,42.4c-1.4,1.3-2.4,2.2-3.2,2.8C509.6,1533.9,507.9,1542.5,507.3,1547.9z
				 M520.5,1509.1c-1.1,2.5-2.4,5-3.4,7.3c3.9-4.1,11.3-11.9,15.5-17.4c9.9-12.6,12.9-18.9,13.6-21.7c1.8-7.1-5.5,0.4-7.6,2.5
				C535.5,1483.6,528.9,1491.9,520.5,1509.1z"/>
			<path class="st2" d="M531,1529.7c-1.7,8,2.7,10.9,7.1,9.1c7.6-2.9,14.7-19.5,20-19.3c-5.2,4.8-5.6,6.3-9.2,10.9
				c-4.6,5.9-9.7,11.3-15.4,10.6c-7.7-0.8-8.5-10.5-6.6-14.8c2-4.6,6-9.9,12.6-10.5c5.2-0.4,7.4,4.6,2.2,9.1
				c-3.1,2.5-7.6,3.8-10.6,4.3C531.1,1529,531,1529.4,531,1529.7z M535.3,1526.6c8.3-2.8,9.8-9.1,5.3-8c0,0-6.7,0.8-9.2,9.1
				C532.5,1527.5,533.9,1527.2,535.3,1526.6z"/>
			<path class="st2" d="M597.7,1523.8c0.1,2.1-2.4,7-2.8,8c0.4,0,1.1-1.4,3.4-4.2c2.8-3.5,5.9-5.9,8.1-5.6c3.2,1.1,3.5,3.8,2.1,6.9
				c-1.3,3.1-2.8,9.1,0.4,5.2c2.4-2.9,12.9-16.7,17.1-18.6c3.5-1.7,7.6,1,5.2,7.6c-0.7,2.5-3.1,6.7-7,12.9
				c-5.9,8.8-5.9,17.7,0.4,12.5c9.9-8,14-29.3,23.4-28.9c-7.7,3.5-10.6,13.4-14,19.1c-6.3,10.9-11.6,14.4-15.4,11.8
				c-3.8-2.7-4.8-7.3-0.3-14.7c6.3-10.2,11.5-22.6,6.7-18.6c-6.6,5.6-14.1,16.5-16.2,18.6c-1.8,1.8-3.6,1.8-5,0.4
				c-1.1-1.1-1.8-3.8,0.7-9.9c2.2-5.5-0.7-2.8-3.1-0.7c-4.3,3.9-10.1,15.3-11.5,17.4c-2.2,3.5-5.3-1-4.1-4.5
				c0.3-0.6,7.6-16.7,6.6-18.5C593.9,1518.9,597.5,1518.8,597.7,1523.8z"/>
			<path class="st2" d="M660,1543.6c5.9-8.5,13-23.3,17.9-24.4c-5.2,5.9-6.4,8.5-9.4,13.2c-5.6,9.1-8.7,15.3-12,14.7
				c-3.6-0.6-7-5.3-3.2-15.7c0.1-0.4,0.4-0.8,0.4-1.1c-4.2,5.2-8.3,9.9-12.2,5.6c-3.9-4.5-0.1-12.6,3.5-16c2.7-2.5,7.7-4.5,13-3.2
				c5.9,1.5,1.4,1.5,1.4,1.5s-7.6-1.7-13,7c-3.9,6.4-1.8,12.3,1.4,9.2c1.8-1.7,5.5-6.4,8.5-10.2c1.5-2.5,3.1-5.3,4.6-5.3
				c1.5-0.1,5.2,0.4,2,4.6C653.8,1535.6,653.7,1552.7,660,1543.6z"/>
			<path class="st2" d="M635.8,1583.8c-1-13.4,23.8-35.6,27.9-39.2c1.5-1.4,2.8-2.5,3.8-3.1c1.8-5.9,2.9-10.2,3.5-11.5
				c3.2-9.5,5.2-10.8,6.6-10.4c1.8,0.8,1.7,2.8,0.6,5.9c3.2-3.9,7.6-8,13.3-8c7-0.3,9.1,6.6,6.7,14.6c5.3-1.8,10.6-4.9,15.4-12.3
				c-2.5,8.1-9,11.2-15.8,13.4c-0.8,2.4-2.1,5-3.8,7.4c-7.6,10.6-17.1,9.2-18.2,5.9c-1-2.9,1-5.6,4.1-7.7c4.3-2.8,9-3.8,13.4-5.2
				c2.4-6.3,2.9-13.9-1.5-14.3c-5.9-0.6-11.1,4.6-14.7,9.5c-1.7,4.2-4.1,9.8-5.9,16.2c-3.5,12-8.5,26.5-14.7,36
				C648.1,1593.5,636.5,1593.2,635.8,1583.8z M660.7,1549.5c-8.5,8-14.3,14.6-19.3,23.1c-5.5,9.2-4.5,16.9,0.4,16.4
				c10.6-1,20-28.4,25.2-45.7C665.6,1544.6,663.6,1546.5,660.7,1549.5z M680.6,1539.2c-3.6,2.4-4.5,5.3-3.6,6.7
				c2.1,3.5,8.7-0.7,13-7c1-1.1,1.8-2.7,2.4-4.3C688.4,1536,684.2,1537.1,680.6,1539.2z"/>
			<path class="st2" d="M715.6,1520.3c-0.4,1.4-0.4,3.5,1,5.9c1.8,3.1,3.8,5.9,4.5,8.3c10.2-5,12.7-8,17.8-14.7
				c-2.2,6.9-9.4,12-17.7,15.8c1.5,4.8,1.3,8.7-1.8,13.4c-5.2,8.3-16.2,10.9-19.9,6.6c-4.9-6,2.8-12.9,14.1-17.8
				c1.7-0.7,2.9-1.4,4.3-2c-0.4-2-1.1-3.8-2.4-5.9c-4.9-7.7-4.1-8.5-3.9-10.4c0.3-3.2,4.1-6.6,4.1-6.6c2.2-1.7,2.8,1.7,2.4,3.5
				C717.2,1517.2,716,1518.8,715.6,1520.3z M717,1537c-9.5,4.1-17.8,9.5-17.1,14.7c0.4,3.5,3.5,4.6,7.4,2.5
				c3.8-2.1,12.2-9,11.3-17.8C718,1536.9,717.4,1536.9,717,1537z"/>
			<path class="st2" d="M769.3,1547.9c-0.4,2.9,0.1,5.2,2.8,1.5c8-11.2,17.7-26.5,25.9-30c-5.6,5.2-12.9,13.4-18.6,22
				c-8,11.8-9.1,12.5-11.3,11.3c-4.2-2.1-2.1-14.3,0.4-22.6c3.1-9.9,11.2-29.7,20.2-42.9c4.3-6.3,8.3-11.3,12.2-13.9
				c3.1-2.1,6.9-2.9,9.1,0.1c4.5,6.7-20.7,35.6-28.3,42.4c-1.4,1.3-2.4,2.2-3.2,2.8C771.8,1533.9,770,1542.5,769.3,1547.9z
				 M782.7,1509.1c-1.1,2.5-2.4,5-3.4,7.3c3.9-4.1,11.3-11.9,15.5-17.4c9.9-12.6,12.9-18.9,13.6-21.7c1.8-7.1-5.5,0.4-7.6,2.5
				C797.6,1483.6,791.1,1491.9,782.7,1509.1z"/>
			<path class="st2" d="M804.8,1531.4c-4.6,6.2-8.4,10.1-12.3,9c-6.3-2-1-17.8,3.5-20.9c2-1,3.1,0.1,2.8,1.7
				c-0.4,2.5-3.1,6.3-4.3,10.8c-0.8,3.4-1.8,7.3,0.7,6.9c3.1-0.4,9.1-9.2,13-14.3c3.4-4.2,4.3-5.3,6.6-5.3
				C811.6,1521,809,1525.8,804.8,1531.4z M799.8,1515.3c-1.1-0.4-1.3-1.1-0.4-2.8c1-2,0.4-2.4,2-3.2c1.1-0.6,4.8-0.3,3.5,2.4
				C803.7,1514.2,801.2,1515.6,799.8,1515.3z"/>
			<path class="st2" d="M818.1,1522.7c0.1,3.4-1,5-2.8,9c4.3-6,14.1-16,21-17.8c3.8-1,5.6,2.5,5.2,5.2c-0.4,3.9-11.9,19.5-13.3,25.2
				c-2,8.5,3.2,5.7,4.9,4.5c4.9-3.6,14.1-20.2,18.2-25.1c5.2-5.9,7-3.9,7-3.9c-8.1,2-17.8,28-26.9,31.5c-2.7,1.1-6.7,0.4-8-3.8
				c-2.4-8.5,13.2-28.4,13.7-31.4c0.4-3.4-9.4,2.7-16.2,10.6c-4.6,5.3-7.1,9.5-9.2,12.7c-0.4,0.7-2.8,0.7-3.8-1
				c-0.4-0.7-1.7-2.4,2.1-10.1c4.2-8.5,2.4-8.3,2.4-8.3C813.5,1518.6,818.1,1519.5,818.1,1522.7z"/>
			<path class="st2" d="M895.6,1476.2c-1,12.2-27.3,37.1-36,44c-2.1,3.8-2.4,5.9-3.9,10.1c1.5-2.8,10.9-14.3,18.5-12.9
				c7,1.4,4.3,9.2-1.1,12.3c-3.8,2.1-10.8,4.6-11.1,5.5c7.7,3.4,1.8,12.6,5.2,16.2c5.9,3.8,15.4-25.6,27.3-32.1
				c-1.3,1.1-2.4,3.1-4.2,5.2c-8.5,9.5-12.9,21.4-17.8,26.5c-2.4,2.4-5.2,2.1-6.4,1.3c-8-4.5-0.6-15.1-5.9-16.2
				c-1.1-0.3-2.1-2.1-0.8-3.5c2-2.1,8.8-4.1,13.4-7.6c7.7-5.5,1.7-9.2-5.9-3.9c-9.7,6.7-11.3,12.9-14.6,22.6c-4.3,0-4.2-3.6-3.5-7.6
				c0.3-1,9.9-30.5,19.3-44.5c9.1-14.7,17.2-18.9,19.1-19.6C892.1,1470.3,895.9,1472.7,895.6,1476.2z M888.9,1475.6
				c-12.3,8-23.4,29.1-28.7,42.2c13.2-10.9,32.5-32.9,33.6-40.2C894.5,1474.4,892,1473.7,888.9,1475.6z"/>
		</g>
	</g>
</g>
<g>
	<g>
		<g>
			<path class="st2" d="M586.1,1849.6v0.8c-2.2-1.1-4.1-2.4-5.5-3.9c-2.1-2.1-3.8-4.6-4.9-7.6s-1.7-5.9-1.7-9
				c0-4.5,1.1-8.7,3.4-12.5c2.2-3.8,5.2-6.4,8.7-8v1c-1.8,1-3.2,2.4-4.3,4.1s-2.1,3.9-2.5,6.6c-0.6,2.7-0.8,5.3-0.8,8.3
				c0,3.2,0.3,6,0.7,8.5c0.4,2.1,0.8,3.6,1.4,4.9c0.4,1.3,1.3,2.4,2.2,3.5C583.4,1847.5,584.7,1848.6,586.1,1849.6z"/>
			<path class="st2" d="M606.1,1833.2c-0.4,2.7-1.5,4.8-3.2,6c-1.5,1.4-3.2,2.2-5.2,2.2c-2.4,0-4.2-1-6-2.9c-1.7-2-2.5-4.5-2.5-7.8
				c0-3.2,1-5.7,2.8-7.7s4.2-2.9,6.9-2.9c2,0,3.6,0.4,4.9,1.5c1.3,1.1,2,2.2,2,3.2c0,0.6-0.1,1-0.4,1.4c-0.4,0.4-0.8,0.4-1.4,0.4
				c-0.8,0-1.4-0.3-2-0.8c-0.3-0.4-0.4-0.8-0.4-1.7c-0.1-0.8-0.4-1.5-0.8-2s-1.3-0.6-2.1-0.6c-1.4,0-2.7,0.4-3.5,1.5
				c-1.3,1.4-1.8,3.2-1.8,5.7c0,2.4,0.6,4.5,1.7,6.3c1.3,1.8,2.8,2.8,4.8,2.8c1.4,0,2.7-0.4,3.9-1.4c0.8-0.7,1.5-2,2.4-3.6
				L606.1,1833.2z"/>
			<path class="st2" d="M616.5,1809.7v26.6c0,1.3,0.1,2.1,0.3,2.5c0.1,0.4,0.4,0.7,0.8,1c0.4,0.3,1.1,0.4,2.1,0.4v0.7h-9.8v-0.7
				c1,0,1.5-0.1,2-0.3c0.4-0.3,0.6-0.4,0.7-1c0.1-0.6,0.3-1.4,0.3-2.5v-18.2c0-2.4,0-3.6-0.1-4.1c-0.1-0.4-0.3-0.8-0.4-1.1
				c-0.3-0.3-0.4-0.3-0.8-0.3c-0.4,0-0.8,0.1-1.4,0.4l-0.4-0.7l6-2.4h1.1L616.5,1809.7L616.5,1809.7z"/>
			<path class="st2" d="M629.5,1820.2v16.2c0,1.3,0.1,2.1,0.3,2.5c0.1,0.4,0.4,0.7,0.8,1s1,0.4,2,0.4v0.7h-9.8v-0.7
				c1,0,1.5-0.1,2-0.3c0.4-0.3,0.6-0.4,0.7-1c0.3-0.4,0.3-1.4,0.3-2.5v-7.8c0-2.2-0.1-3.5-0.3-4.2c-0.1-0.4-0.3-0.8-0.4-1
				c-0.3-0.1-0.4-0.3-0.8-0.3s-0.8,0.1-1.4,0.4l-0.4-0.7l6-2.4h1.1L629.5,1820.2L629.5,1820.2z M627.7,1809.7c0.6,0,1.1,0.3,1.5,0.6
				c0.4,0.4,0.6,1,0.6,1.5c0,0.6-0.3,1.1-0.6,1.5c-0.4,0.4-1,0.6-1.5,0.6c-0.6,0-1.1-0.3-1.5-0.6c-0.4-0.4-0.6-1-0.6-1.5
				c0-0.6,0.3-1.1,0.6-1.5C626.4,1809.9,627.1,1809.7,627.7,1809.7z"/>
			<path class="st2" d="M652.6,1833.2c-0.4,2.7-1.5,4.8-3.2,6c-1.5,1.4-3.2,2.2-5.2,2.2c-2.4,0-4.2-1-6-2.9c-1.7-2-2.5-4.5-2.5-7.8
				c0-3.2,1-5.7,2.8-7.7s4.2-2.9,6.9-2.9c2,0,3.6,0.4,4.9,1.5c1.3,1.1,2,2.2,2,3.2c0,0.6-0.1,1-0.4,1.4c-0.4,0.4-0.8,0.4-1.4,0.4
				c-0.8,0-1.4-0.3-2-0.8c-0.3-0.4-0.4-0.8-0.4-1.7c-0.1-0.8-0.4-1.5-0.8-2s-1.3-0.6-2.1-0.6c-1.4,0-2.7,0.4-3.5,1.5
				c-1.3,1.4-1.8,3.2-1.8,5.7c0,2.4,0.6,4.5,1.7,6.3c1.3,1.8,2.8,2.8,4.8,2.8c1.4,0,2.7-0.4,3.9-1.4c0.8-0.7,1.5-2,2.4-3.6
				L652.6,1833.2z"/>
			<path class="st2" d="M654.7,1810.5v-1c2.2,1.1,4.1,2.4,5.6,3.9c2.1,2.1,3.6,4.6,4.9,7.6c1.1,2.9,1.7,5.9,1.7,9
				c0,4.5-1.1,8.7-3.2,12.5c-2.2,3.8-5.2,6.4-8.7,8v-0.8c1.8-1,3.2-2.4,4.3-4.1c1.3-1.7,2.1-3.9,2.5-6.6c0.6-2.7,0.8-5.5,0.8-8.3
				c0-3.2-0.3-6-0.7-8.5c-0.4-2.1-0.8-3.6-1.4-4.9c-0.4-1.3-1.3-2.4-2.2-3.5C657.3,1812.7,656.2,1811.6,654.7,1810.5z"/>
		</g>
	</g>
	<a xlink:href="https://goo.gl/maps/2P5uspBkQ15XjnrY9"  pointer-events="all" target="_blank">
		<rect x="521.7" y="1610.2" class="st4" width="203" height="252.1"/>
		<path class="st2" d="M708.5,1652.2c-12.7-28.9-51.3-36.1-73.7-14c-1,0.8-1.8,1.3-3.1,1.3c-22.4,0-44.8,0-67.2,0
			c-12.2,0-21.6,9.4-21.6,21.6c0,37.5,0,74.8,0,112.3c0,1.4,0.1,3.1,0.4,4.5c2.4,10.5,10.6,17.1,21.4,17.1c18.6,0,37.1,0,55.8,0
			s37.1,0,55.8,0c2.4,0,5-0.4,7.3-1.1c9.1-3.1,14.7-10.9,14.7-20.6c0-21.6,0-43.1,0-64.6c0-1,0.4-2,0.8-2.8
			c2.2-3.5,4.5-6.9,6.6-10.6C713.6,1681.2,715.1,1666.9,708.5,1652.2z M638,1707.1c10.5,14.3,19.5,29.7,23.7,47.6
			c-12-12-24-24-35.7-35.6C629.9,1715.1,633.9,1711.2,638,1707.1z M554.2,1779.3c-0.4,0.4-0.7,0.8-1.4,1.3c-0.1-0.8-0.1-1.1-0.1-1.7
			c0-40.5,0-81,0-121.7c0-5,3.2-8.3,8.1-8.3c22,0,44.3,0,66.3,0c0.4,0,0.7,0,0.8,0c-1,3.9-2.2,7.7-2.8,11.6c-2.1,12,0.6,23.5,6.3,34
			c0.6,1,0.8,2.1,1.7,2.8c1.3,1.5,0.7,2.5-0.6,3.9C606.2,1727.3,580.3,1753.3,554.2,1779.3z M559.8,1786.4
			c20-20,40.2-40.2,60.4-60.2c19.8,19.8,39.9,39.9,60.2,60.2C640,1786.4,599.6,1786.4,559.8,1786.4z M689.1,1775.6
			c0,1.7-0.6,3.4-1,4.9c-8.3-8.3-16.2-16.2-24.2-24.2c0.8-0.1,1.7-0.1,2.7-0.3c6.2-1.1,9.2-5.2,10.5-10.9
			c2.2-9.8,5.7-19.2,10.4-28.2c0.3-0.7,0.7-1.4,1.3-2.2c0.1,0.8,0.3,1.3,0.3,1.7C689.3,1736,689.3,1755.7,689.1,1775.6z
			 M696.8,1685.3c-3.1,5.6-6.6,10.8-10.1,16.1c-7.7,11.2-14.3,23-19.3,35.6c-0.1,0.4-0.4,0.7-0.6,1.3c-1.7-3.8-3.2-7.3-4.8-10.8
			c-5.2-11.3-12-21.6-19.1-31.8c-3.8-5.5-7.1-11.2-9.1-17.7c-5.7-19.1,7-39.9,26.8-43.3c18.2-3.2,34.9,7.4,39.6,25.4
			C702.4,1668.7,701.2,1677.3,696.8,1685.3z"/>
		<path class="st2" d="M600.3,1666.6c-1.7,1.7-3.2,3.2-5,4.9c-7.4-4.9-13.2-5.2-18.5-1c-4.9,3.8-6.7,10.1-4.6,16
			c2,5.6,7.6,9.4,13.4,9.2c4.9-0.1,10.5-3.2,11.5-7c-3.9,0-7.7,0-11.6,0c0-2.4,0-4.6,0-7c7,0,13.9,0,20.9,0
			c1.8,5.9-4.8,16.1-12.5,19.3c-9.9,4.3-21.7,0.4-27-9.1s-2.5-21.4,6.4-27.7C582.5,1658.1,594.3,1660.3,600.3,1666.6z"/>
		<path class="st2" d="M656.2,1671c0-5.9,4.8-10.6,10.6-10.5c5.9,0,10.5,4.8,10.5,10.6s-4.8,10.6-10.6,10.6
			C660.8,1681.8,656.1,1677,656.2,1671z"/>
	</a>
</g>
<g>
	<path class="st2" d="M206.4,1076.3h25.4l4-13.6c0.8-2.7,1.2-4.7,1.2-6.2c0-0.7-0.2-1.3-0.5-1.8c-0.3-0.5-0.9-0.9-1.6-1.1
		s-2.1-0.4-4.1-0.4l0.4-1.5h22.2l-0.5,1.5c-1.9,0-3.2,0.2-4.1,0.6c-1.3,0.6-2.3,1.3-2.9,2.2c-0.9,1.3-1.8,3.5-2.7,6.7l-9.7,33.3
		c-0.8,2.8-1.2,4.7-1.2,6c0,1,0.4,1.8,1.1,2.3c0.7,0.5,2.4,0.9,5.1,1.1l-0.5,1.5h-21.5l0.6-1.5c2.1,0,3.5-0.2,4.2-0.6
		c1.1-0.5,1.9-1.1,2.4-1.9c0.7-1,1.6-3.4,2.6-6.9l5-16.9h-25.6l-5,16.9c-0.8,2.7-1.2,4.7-1.2,6c0,1,0.4,1.8,1.1,2.3s2.4,0.9,5.1,1.1
		l-0.3,1.5h-21.6l0.5-1.5c2.2,0,3.6-0.2,4.3-0.6c1.1-0.5,1.9-1.1,2.4-1.9c0.7-1.1,1.6-3.4,2.6-6.9l9.8-33.3c0.8-2.7,1.2-4.8,1.2-6.2
		c0-0.7-0.2-1.3-0.5-1.8s-0.9-0.9-1.6-1.1c-0.7-0.3-2.1-0.4-4.2-0.4l0.5-1.5h21.8l-0.5,1.5c-1.8,0-3.2,0.2-4,0.6
		c-1.3,0.6-2.2,1.3-2.8,2.2c-0.8,1.2-1.8,3.5-2.7,6.8L206.4,1076.3z"/>
	<path class="st2" d="M284.5,1082.8c0,4.1-1.1,8.1-3.2,12.1c-2.2,4-5.2,7.1-9,9.5c-3.8,2.3-7.6,3.5-11.2,3.5c-3.7,0-6.7-1.2-9.1-3.6
		c-2.4-2.4-3.5-5.4-3.5-9.2c0-4,1.1-8,3.4-12c2.3-4,5.4-7.2,9.2-9.5c3.8-2.3,7.5-3.5,11.1-3.5c3.6,0,6.6,1.2,8.9,3.6
		S284.5,1079.1,284.5,1082.8z M277.8,1080c0-2.5-0.6-4.5-1.9-5.8c-1.2-1.3-2.8-2-4.8-2c-4,0-7.6,2.9-11,8.6c-3.4,5.7-5,11.4-5,17.1
		c0,2.6,0.7,4.5,2,5.9c1.3,1.4,2.9,2.1,4.9,2.1c3.8,0,7.4-2.8,10.8-8.5C276.1,1091.6,277.8,1085.9,277.8,1080z"/>
	<path class="st2" d="M309.3,1060l-3.2,11.1h6.4l-0.7,2.6h-6.3l-7,23.9c-0.7,2.6-1.1,4.3-1.1,5c0,0.5,0.1,0.8,0.3,1.1
		s0.5,0.4,0.8,0.4c0.7,0,1.6-0.5,2.7-1.5c0.7-0.5,2.1-2.2,4.4-5l1.3,1.1c-2.5,3.6-4.9,6.2-7.1,7.7c-1.5,1-3,1.5-4.6,1.5
		c-1.2,0-2.1-0.4-2.9-1.1s-1.1-1.7-1.1-2.9c0-1.4,0.4-3.7,1.3-6.7l6.8-23.5H293l0.4-1.6c3-0.8,5.5-2,7.5-3.6c2-1.6,4.2-4.4,6.6-8.4
		H309.3z"/>
	<path class="st2" d="M320.7,1091.6c-0.2,1.3-0.3,2.5-0.3,3.3c0,2.4,0.9,4.5,2.6,6.2c1.7,1.7,3.8,2.6,6.2,2.6c2,0,3.8-0.4,5.6-1.2
		c1.8-0.8,4.5-2.6,8-5.3l0.9,1.2c-6.4,6.4-12.6,9.5-18.4,9.5c-3.9,0-6.9-1.2-8.9-3.7s-3-5.2-3-8.2c0-4,1.2-8.2,3.7-12.4
		s5.6-7.5,9.4-9.9c3.8-2.4,7.6-3.5,11.6-3.5c2.9,0,5,0.6,6.4,1.8s2.1,2.6,2.1,4.1c0,2.3-0.9,4.4-2.7,6.5c-2.4,2.7-5.8,4.9-10.4,6.5
		C330.5,1090.1,326.2,1090.9,320.7,1091.6z M321,1089.6c4-0.5,7.3-1.3,9.8-2.4c3.3-1.5,5.8-3.3,7.5-5.3c1.7-2.1,2.5-4,2.5-5.9
		c0-1.1-0.4-2-1.1-2.7c-0.7-0.7-1.7-1.1-3.1-1.1c-2.8,0-5.7,1.5-8.8,4.4C324.8,1079.5,322.5,1083.8,321,1089.6z"/>
	<path class="st2" d="M372.5,1049l-13.9,48.4c-0.7,2.4-1,3.9-1,4.4c0,0.4,0.1,0.7,0.4,1c0.3,0.3,0.6,0.4,0.9,0.4
		c0.5,0,1.1-0.2,1.7-0.7c1.4-1.1,2.9-2.8,4.4-5.2l1.2,1.3c-2.6,3.6-4.9,6.2-7.1,7.6c-1.6,1-3.1,1.5-4.5,1.5c-1,0-1.9-0.4-2.6-1.1
		c-0.7-0.7-1-1.5-1-2.4c0-1,0.4-3,1.3-6l11.1-38.1c0.9-3.1,1.3-4.9,1.3-5.4c0-0.7-0.3-1.2-0.8-1.6c-0.5-0.4-1.3-0.6-2.4-0.6
		c-0.6,0-1.5,0.1-2.8,0.3v-1.5L372.5,1049z"/>
	<path class="st2" d="M426.3,1106.9l-8.8-26.8c-2.1,0-4.2-0.2-6.3-0.7l-4.7,16.7c-0.6,2.2-1,4-1,5.5c0,1.1,0.4,2,1.2,2.7
		c0.6,0.5,2.2,0.9,4.9,1.1l-0.4,1.5h-21.4l0.5-1.5c2-0.1,3.4-0.3,4.1-0.6c1.1-0.5,1.9-1.1,2.4-1.9c0.9-1.3,1.8-3.5,2.7-6.8l9.6-33.3
		c0.6-2.2,1-3.9,1-5.2c0-1.2-0.5-2.3-1.5-3.2c-1-0.9-2.5-1.3-4.4-1.3l0.5-1.5h18c6,0,10.3,1.1,13,3.4s4,5.3,4,9
		c0,3.5-1.4,6.8-4.1,9.7s-6.5,4.8-11.2,5.6l5.4,16.2c1.3,4,2.6,6.6,3.9,7.7s3.4,1.9,6.3,2l-0.5,1.5H426.3z M411.8,1077.2
		c1.8,0.2,3.3,0.4,4.6,0.4c4.7,0,8.4-1.3,11.1-3.9c2.7-2.6,4.1-5.8,4.1-9.6c0-3-0.9-5.3-2.6-6.9c-1.7-1.6-4.3-2.4-7.7-2.4
		c-0.8,0-1.9,0.1-3.1,0.4L411.8,1077.2z"/>
	<path class="st2" d="M481.8,1071.1l-7.1,24.2c-1,3.6-1.6,5.9-1.6,6.8c0,0.5,0.1,0.8,0.3,1.1c0.2,0.2,0.4,0.4,0.7,0.4
		c0.5,0,1-0.2,1.5-0.6c0.6-0.4,1.9-2.1,4.2-5l1.3,1c-2.2,3.4-4.4,5.9-6.6,7.5c-1.5,1-2.9,1.5-4.3,1.5c-1.1,0-1.9-0.3-2.5-0.9
		c-0.6-0.6-0.9-1.4-0.9-2.3c0-0.9,0.2-2.2,0.5-3.7c0.4-2,1.7-6.3,3.7-13.1c-4.6,7.6-8.5,12.8-11.6,15.7c-3.1,2.9-6,4.3-8.6,4.3
		c-1.2,0-2.3-0.4-3.2-1.3c-0.9-0.9-1.3-2-1.3-3.3c0-2,0.6-5.1,1.8-9.3l3.6-12.6c0.8-3,1.3-4.9,1.3-5.6c0-0.3-0.1-0.6-0.3-0.8
		c-0.2-0.2-0.5-0.4-0.7-0.4c-0.6,0-1.1,0.2-1.7,0.6c-0.6,0.4-1.9,1.9-3.9,4.5l-1.3-0.9c2.1-3.2,4.2-5.5,6.5-7
		c1.8-1.2,3.4-1.8,4.8-1.8c1,0,1.8,0.3,2.5,1s1,1.5,1,2.5c0,1.5-0.5,4.1-1.6,7.8l-3.8,13.1c-1,3.6-1.6,5.9-1.6,6.8
		c0,0.5,0.2,0.9,0.5,1.2c0.3,0.3,0.8,0.5,1.4,0.5c0.9,0,2-0.4,3.5-1.3s3.4-2.9,5.8-6c2.4-3.1,4.4-6,5.9-8.7c1.6-2.7,3.2-7,5-12.9
		l0.9-3.1H481.8z"/>
	<path class="st2" d="M488.6,1072.4l14-2.3l-5.9,19.8c4.7-8.1,9.1-13.8,12.9-17c2.2-1.9,4-2.8,5.4-2.8c0.9,0,1.6,0.3,2.1,0.8
		c0.5,0.5,0.8,1.3,0.8,2.3c0,1.8-0.5,3.5-1.4,5.1c-0.6,1.2-1.6,1.8-2.8,1.8c-0.6,0-1.1-0.2-1.6-0.6c-0.5-0.4-0.7-1-0.8-1.9
		c0-0.5-0.2-0.8-0.4-1c-0.2-0.2-0.5-0.3-0.8-0.3c-0.5,0-0.9,0.1-1.3,0.3c-0.7,0.4-1.8,1.4-3.2,3.2c-2.3,2.7-4.7,6.1-7.3,10.3
		c-1.1,1.8-2.1,3.8-2.9,6.1c-1.1,3.1-1.8,5-1.9,5.6l-1.3,5.1H486l7.5-25.3c0.8-2.9,1.3-5,1.3-6.3c0-0.5-0.2-0.9-0.6-1.2
		c-0.5-0.4-1.2-0.7-2.1-0.7c-0.6,0-1.6,0.1-3.1,0.4L488.6,1072.4z"/>
	<path class="st2" d="M555.8,1070.1l-7.9,27.6l-0.9,3.7c-0.1,0.3-0.1,0.6-0.1,0.9c0,0.4,0.1,0.8,0.4,1.2c0.2,0.2,0.5,0.4,0.8,0.4
		c0.3,0,0.8-0.2,1.4-0.7c1-0.8,2.5-2.4,4.2-4.8l1.4,1c-1.9,2.8-3.8,5-5.8,6.4c-2,1.5-3.8,2.2-5.5,2.2c-1.1,0-2-0.3-2.6-0.9
		s-0.9-1.4-0.9-2.5c0-1.3,0.3-3.1,0.9-5.3l0.9-3.1c-3.6,4.6-6.8,7.9-9.8,9.8c-2.2,1.3-4.3,2-6.3,2c-2,0-3.7-0.8-5.1-2.5
		c-1.4-1.6-2.1-3.9-2.1-6.7c0-4.3,1.3-8.9,3.9-13.7c2.6-4.8,5.9-8.6,9.9-11.5c3.1-2.3,6-3.4,8.8-3.4c1.7,0,3.1,0.4,4.2,1.3
		c1.1,0.9,1.9,2.3,2.5,4.3l1.5-4.6L555.8,1070.1z M541.3,1072.2c-1.7,0-3.6,0.8-5.5,2.5c-2.8,2.3-5.3,5.7-7.4,10.2
		c-2.2,4.5-3.2,8.6-3.2,12.3c0,1.8,0.5,3.3,1.4,4.3c0.9,1.1,2,1.6,3.2,1.6c2.9,0,6.1-2.2,9.6-6.6c4.6-5.8,7-11.7,7-17.8
		c0-2.3-0.4-4-1.3-5C544,1072.7,542.8,1072.2,541.3,1072.2z"/>
	<path class="st2" d="M583,1049l-13.9,48.4c-0.7,2.4-1,3.9-1,4.4c0,0.4,0.1,0.7,0.4,1c0.3,0.3,0.6,0.4,0.9,0.4
		c0.5,0,1.1-0.2,1.7-0.7c1.4-1.1,2.9-2.8,4.4-5.2l1.2,1.3c-2.6,3.6-4.9,6.2-7.1,7.6c-1.6,1-3.1,1.5-4.5,1.5c-1,0-1.9-0.4-2.6-1.1
		c-0.7-0.7-1-1.5-1-2.4c0-1,0.4-3,1.3-6l11.1-38.1c0.9-3.1,1.3-4.9,1.3-5.4c0-0.7-0.3-1.2-0.8-1.6c-0.5-0.4-1.3-0.6-2.4-0.6
		c-0.6,0-1.5,0.1-2.8,0.3v-1.5L583,1049z"/>
	<path class="st2" d="M629.2,1054.7l-6.3,21.8h5.2c3.7,0,6.4-0.6,8-1.7c1.6-1.1,3.1-3.2,4.2-6.2h1.5l-5.7,20h-1.6
		c0.5-1.7,0.7-3.1,0.7-4.3c0-1.1-0.2-2.1-0.7-2.8c-0.5-0.7-1.1-1.2-1.9-1.6s-2.6-0.5-5.2-0.5h-5.3l-5.3,18.2c-0.5,1.8-0.8,3.1-0.8,4
		c0,0.7,0.3,1.3,1,1.9c0.5,0.4,1.6,0.6,3.4,0.6h4.9c5.3,0,9.5-0.9,12.7-2.8c3.2-1.9,6-5.1,8.6-9.7h1.5l-5.2,15.3h-42.6l0.5-1.5
		c2.1,0,3.6-0.2,4.3-0.6c1.1-0.5,1.9-1.1,2.4-1.9c0.7-1.1,1.6-3.5,2.6-7l9.7-33.2c0.7-2.7,1.1-4.7,1.1-6.2c0-1-0.4-1.8-1.1-2.4
		c-0.7-0.6-2.1-0.9-4.2-0.9h-0.9l0.5-1.5h39.6l-3.4,13.3H650c0.2-1.2,0.3-2.3,0.3-3.1c0-1.4-0.4-2.7-1.1-3.6c-0.9-1.2-2.3-2.2-4-2.8
		c-1.3-0.5-4.3-0.8-9-0.8H629.2z"/>
	<path class="st2" d="M677.9,1049l-13.9,48.4c-0.7,2.4-1,3.9-1,4.4c0,0.4,0.1,0.7,0.4,1c0.3,0.3,0.6,0.4,0.9,0.4
		c0.5,0,1.1-0.2,1.7-0.7c1.4-1.1,2.9-2.8,4.4-5.2l1.2,1.3c-2.6,3.6-4.9,6.2-7.1,7.6c-1.6,1-3.1,1.5-4.5,1.5c-1,0-1.9-0.4-2.6-1.1
		c-0.7-0.7-1-1.5-1-2.4c0-1,0.4-3,1.3-6l11.1-38.1c0.9-3.1,1.3-4.9,1.3-5.4c0-0.7-0.3-1.2-0.8-1.6c-0.5-0.4-1.3-0.6-2.4-0.6
		c-0.6,0-1.5,0.1-2.8,0.3v-1.5L677.9,1049z"/>
	<path class="st2" d="M723.4,1051.7l5.1,44.4l32-44.4H774v1.5c-2.9,0.2-4.6,0.4-5.2,0.6c-0.9,0.4-1.7,1.1-2.5,2.1
		c-0.7,1.1-1.5,3.1-2.4,6.1l-10.2,35c-0.6,2.1-0.9,3.7-0.9,4.8c0,1.1,0.4,1.9,1.1,2.4c1,0.8,2.7,1.2,4.9,1.2h1l-0.4,1.5h-23.2
		l0.4-1.5h1.1c2.1,0,3.6-0.3,4.7-0.9c0.8-0.4,1.6-1.3,2.3-2.5c0.7-1.2,1.6-3.9,2.8-8l9.1-32l-32.2,44.9h-1.6l-5.2-44.9l-9.8,34.1
		c-0.8,2.9-1.3,4.9-1.3,5.9c0,1,0.4,1.8,1.1,2.3c0.7,0.5,2.5,0.9,5.3,1.1l-0.5,1.5h-18.2l0.5-1.5h1.1c2.7,0,4.6-0.7,5.8-2
		c0.9-1,1.8-3.1,2.7-6.4l12-41.1c-0.9-0.9-1.7-1.6-2.6-1.9s-2.3-0.6-4.5-0.8l0.4-1.5H723.4z"/>
	<path class="st2" d="M804.9,1082.8c0,4.1-1.1,8.1-3.2,12.1c-2.2,4-5.2,7.1-9,9.5c-3.8,2.3-7.6,3.5-11.2,3.5c-3.7,0-6.7-1.2-9.1-3.6
		c-2.4-2.4-3.5-5.4-3.5-9.2c0-4,1.1-8,3.4-12c2.3-4,5.4-7.2,9.2-9.5c3.8-2.3,7.5-3.5,11.1-3.5c3.6,0,6.6,1.2,8.9,3.6
		C803.8,1076,804.9,1079.1,804.9,1082.8z M798.2,1080c0-2.5-0.6-4.5-1.9-5.8c-1.2-1.3-2.8-2-4.8-2c-4,0-7.6,2.9-11,8.6
		c-3.4,5.7-5,11.4-5,17.1c0,2.6,0.7,4.5,2,5.9c1.3,1.4,2.9,2.1,4.9,2.1c3.8,0,7.4-2.8,10.8-8.5
		C796.5,1091.6,798.2,1085.9,798.2,1080z"/>
	<path class="st2" d="M826.5,1070.1l-5.4,18.5c5.1-7.6,8.9-12.6,11.6-15c2.7-2.4,5.3-3.6,7.8-3.6c1.3,0,2.5,0.5,3.3,1.4
		c0.9,0.9,1.3,2.1,1.3,3.5c0,1.7-0.4,3.8-1.2,6.5l-5,17.1c-0.6,2-0.9,3.2-0.9,3.6c0,0.4,0.1,0.7,0.3,0.9c0.2,0.3,0.4,0.4,0.7,0.4
		c0.3,0,0.7-0.2,1.2-0.5c1.4-1.1,3-2.9,4.7-5.2l1.3,0.8c-2.5,3.6-4.9,6.2-7.2,7.7c-1.6,1-3,1.6-4.2,1.6c-1,0-1.8-0.3-2.4-0.9
		s-0.9-1.4-0.9-2.4c0-1.3,0.5-3.6,1.4-6.7l4.7-16.4c0.6-2,0.9-3.6,0.9-4.7c0-0.5-0.2-1-0.5-1.3s-0.8-0.5-1.3-0.5
		c-0.7,0-1.7,0.3-2.7,1c-2,1.2-4.1,3.2-6.2,6c-2.2,2.8-4.5,6.4-6.9,10.7c-1.3,2.3-2.3,4.8-3.2,7.6l-2,6.7h-6.1l7.4-25.5
		c0.9-3.1,1.3-4.9,1.3-5.5s-0.2-1.1-0.7-1.6c-0.5-0.5-1.1-0.7-1.7-0.7c-0.3,0-0.9,0.1-1.7,0.2l-1.6,0.2l-0.3-1.5L826.5,1070.1z"/>
	<path class="st2" d="M894.8,1049l-14,48c-0.8,2.6-1.2,4.3-1.2,5.2c0,0.3,0.1,0.5,0.4,0.8c0.2,0.2,0.5,0.4,0.7,0.4
		c0.4,0,0.8-0.2,1.3-0.5c0.9-0.7,2.5-2.3,4.6-4.9l1.4,0.9c-2,2.7-3.9,4.9-5.9,6.6c-2,1.7-3.9,2.5-5.6,2.5c-0.9,0-1.7-0.3-2.3-1
		s-0.9-1.6-0.9-2.8c0-1.5,0.4-3.6,1.2-6.2l1.6-5.1c-3.9,6.1-7.5,10.3-10.7,12.6c-2.2,1.6-4.3,2.4-6.4,2.4c-2.1,0-3.9-0.9-5.4-2.7
		c-1.5-1.8-2.3-4.3-2.3-7.5c0-4,1.3-8.4,3.9-12.9c2.6-4.6,6-8.3,10.2-11.2c3.3-2.3,6.4-3.5,9.2-3.5c1.4,0,2.7,0.3,3.8,0.9
		c1.1,0.6,2.1,1.6,3.2,3l4-14.1c0.3-1,0.5-1.8,0.7-2.4c0.3-1.1,0.5-2,0.5-2.7c0-0.6-0.2-1-0.6-1.4c-0.6-0.5-1.3-0.7-2.2-0.7
		c-0.6,0-1.6,0.1-3.1,0.3v-1.5L894.8,1049z M879.7,1077.9c0-1.8-0.5-3.1-1.5-4.2c-1-1-2.3-1.6-3.8-1.6c-3.4,0-7,2.8-10.7,8.4
		c-3.7,5.6-5.5,11-5.5,16.2c0,2.1,0.4,3.6,1.3,4.7c0.9,1.1,2,1.6,3.2,1.6c2.8,0,6.4-3,10.6-9.1
		C877.5,1087.8,879.7,1082.5,879.7,1077.9z"/>
	<path class="st2" d="M930.4,1070.1l-7.9,27.6l-0.9,3.7c-0.1,0.3-0.1,0.6-0.1,0.9c0,0.4,0.1,0.8,0.4,1.2c0.2,0.2,0.5,0.4,0.8,0.4
		c0.3,0,0.8-0.2,1.4-0.7c1-0.8,2.5-2.4,4.2-4.8l1.4,1c-1.9,2.8-3.8,5-5.8,6.4c-2,1.5-3.8,2.2-5.5,2.2c-1.1,0-2-0.3-2.6-0.9
		s-0.9-1.4-0.9-2.5c0-1.3,0.3-3.1,0.9-5.3l0.9-3.1c-3.6,4.6-6.8,7.9-9.8,9.8c-2.2,1.3-4.3,2-6.3,2c-2,0-3.7-0.8-5.1-2.5
		c-1.4-1.6-2.1-3.9-2.1-6.7c0-4.3,1.3-8.9,3.9-13.7c2.6-4.8,5.9-8.6,9.9-11.5c3.1-2.3,6-3.4,8.8-3.4c1.7,0,3.1,0.4,4.2,1.3
		c1.1,0.9,1.9,2.3,2.5,4.3l1.5-4.6L930.4,1070.1z M915.9,1072.2c-1.7,0-3.6,0.8-5.5,2.5c-2.8,2.3-5.3,5.7-7.4,10.2
		c-2.2,4.5-3.2,8.6-3.2,12.3c0,1.8,0.5,3.3,1.4,4.3c0.9,1.1,2,1.6,3.2,1.6c2.9,0,6.1-2.2,9.6-6.6c4.6-5.8,7-11.7,7-17.8
		c0-2.3-0.4-4-1.3-5C918.7,1072.7,917.5,1072.2,915.9,1072.2z"/>
	<path class="st2" d="M957.7,1049l-13.9,48.4c-0.7,2.4-1,3.9-1,4.4c0,0.4,0.1,0.7,0.4,1c0.3,0.3,0.6,0.4,0.9,0.4
		c0.5,0,1.1-0.2,1.7-0.7c1.4-1.1,2.9-2.8,4.4-5.2l1.2,1.3c-2.6,3.6-4.9,6.2-7.1,7.6c-1.6,1-3.1,1.5-4.5,1.5c-1,0-1.9-0.4-2.6-1.1
		c-0.7-0.7-1-1.5-1-2.4c0-1,0.4-3,1.3-6l11.1-38.1c0.9-3.1,1.3-4.9,1.3-5.4c0-0.7-0.3-1.2-0.8-1.6c-0.5-0.4-1.3-0.6-2.4-0.6
		c-0.6,0-1.5,0.1-2.8,0.3v-1.5L957.7,1049z"/>
	<path class="st2" d="M994.6,1082.8c0,4.1-1.1,8.1-3.2,12.1c-2.2,4-5.2,7.1-9,9.5c-3.8,2.3-7.6,3.5-11.2,3.5c-3.7,0-6.7-1.2-9.1-3.6
		c-2.4-2.4-3.5-5.4-3.5-9.2c0-4,1.1-8,3.4-12c2.3-4,5.4-7.2,9.2-9.5c3.8-2.3,7.5-3.5,11.1-3.5c3.6,0,6.6,1.2,8.9,3.6
		C993.4,1076,994.6,1079.1,994.6,1082.8z M987.9,1080c0-2.5-0.6-4.5-1.9-5.8c-1.2-1.3-2.8-2-4.8-2c-4,0-7.6,2.9-11,8.6
		c-3.4,5.7-5,11.4-5,17.1c0,2.6,0.7,4.5,2,5.9c1.3,1.4,2.9,2.1,4.9,2.1c3.8,0,7.4-2.8,10.8-8.5
		C986.2,1091.6,987.9,1085.9,987.9,1080z M993,1049.9l-11.9,14h-1.4l4.2-14H993z"/>
	<path class="st2" d="M1016.1,1070.1l-5.4,18.5c5.1-7.6,8.9-12.6,11.6-15c2.7-2.4,5.3-3.6,7.8-3.6c1.3,0,2.5,0.5,3.3,1.4
		c0.9,0.9,1.3,2.1,1.3,3.5c0,1.7-0.4,3.8-1.2,6.5l-5,17.1c-0.6,2-0.9,3.2-0.9,3.6c0,0.4,0.1,0.7,0.3,0.9c0.2,0.3,0.4,0.4,0.7,0.4
		c0.3,0,0.7-0.2,1.2-0.5c1.4-1.1,3-2.9,4.7-5.2l1.3,0.8c-2.5,3.6-4.9,6.2-7.2,7.7c-1.6,1-3,1.6-4.2,1.6c-1,0-1.8-0.3-2.4-0.9
		s-0.9-1.4-0.9-2.4c0-1.3,0.5-3.6,1.4-6.7l4.7-16.4c0.6-2,0.9-3.6,0.9-4.7c0-0.5-0.2-1-0.5-1.3s-0.8-0.5-1.3-0.5
		c-0.7,0-1.7,0.3-2.7,1c-2,1.2-4.1,3.2-6.2,6c-2.2,2.8-4.5,6.4-6.9,10.7c-1.3,2.3-2.3,4.8-3.2,7.6l-2,6.7h-6.1l7.4-25.5
		c0.9-3.1,1.3-4.9,1.3-5.5s-0.2-1.1-0.7-1.6c-0.5-0.5-1.1-0.7-1.7-0.7c-0.3,0-0.9,0.1-1.7,0.2l-1.6,0.2l-0.3-1.5L1016.1,1070.1z"/>
</g>
<g>
	<path class="st2" d="M143.5,1183.2l1,12.6h-1c-1-3.1-2.4-5.5-4-7.1c-2.4-2.3-5.4-3.4-9.2-3.4c-5.1,0-8.9,2-11.6,6
		c-2.2,3.4-3.3,7.4-3.3,12.1c0,3.8,0.7,7.3,2.2,10.4c1.5,3.1,3.4,5.4,5.8,6.9c2.4,1.5,4.8,2.2,7.4,2.2c1.5,0,2.9-0.2,4.3-0.5
		c1.4-0.4,2.7-0.9,4-1.6v-11.5c0-2-0.2-3.3-0.5-3.9c-0.3-0.6-0.8-1.1-1.4-1.4c-0.6-0.3-1.8-0.5-3.4-0.5v-1.1h15.4v1.1h-0.7
		c-1.5,0-2.6,0.5-3.1,1.5c-0.4,0.7-0.6,2.2-0.6,4.3v12.2c-2.3,1.2-4.5,2.1-6.7,2.7c-2.2,0.6-4.6,0.9-7.3,0.9
		c-7.7,0-13.6-2.5-17.6-7.4c-3-3.7-4.5-8-4.5-12.8c0-3.5,0.8-6.9,2.5-10.1c2-3.8,4.7-6.8,8.3-8.8c2.9-1.7,6.4-2.6,10.3-2.6
		c1.5,0,2.8,0.1,4,0.4c1.2,0.2,2.9,0.8,5,1.6c1.1,0.4,1.8,0.6,2.2,0.6c0.4,0,0.7-0.2,0.9-0.5c0.3-0.3,0.4-1,0.5-2H143.5z"/>
	<path class="st2" d="M186.3,1183.2l0.9,13.6h-0.9c-1.2-4.1-3-7-5.2-8.8c-2.3-1.8-5-2.7-8.1-2.7c-2.7,0-5,0.7-7.2,2
		c-2.1,1.3-3.8,3.5-5,6.4c-1.2,2.9-1.8,6.6-1.8,11c0,3.6,0.6,6.7,1.7,9.4c1.2,2.6,2.9,4.7,5.2,6.1c2.3,1.4,5,2.1,7.9,2.1
		c2.6,0,4.9-0.6,6.9-1.7c2-1.1,4.1-3.3,6.5-6.6l0.9,0.6c-2,3.6-4.3,6.2-7,7.8c-2.7,1.6-5.8,2.5-9.5,2.5c-6.6,0-11.7-2.4-15.3-7.3
		c-2.7-3.7-4.1-7.9-4.1-12.9c0-4,0.9-7.6,2.7-11c1.8-3.3,4.2-5.9,7.4-7.8c3.1-1.8,6.5-2.8,10.2-2.8c2.9,0,5.7,0.7,8.5,2.1
		c0.8,0.4,1.4,0.7,1.8,0.7c0.5,0,1-0.2,1.4-0.5c0.5-0.5,0.9-1.3,1.1-2.2H186.3z"/>
	<path class="st2" d="M192.7,1208.3h15.2v4.5h-15.2V1208.3z"/>
	<path class="st2" d="M221.8,1203.9c-3.1-2.6-5.2-4.7-6.1-6.2c-0.9-1.6-1.4-3.2-1.4-4.9c0-2.6,1-4.8,3-6.7c2-1.9,4.6-2.8,8-2.8
		c3.2,0,5.8,0.9,7.8,2.6c2,1.7,2.9,3.7,2.9,6c0,1.5-0.5,3-1.6,4.5c-1.1,1.5-3.3,3.4-6.6,5.5c3.4,2.7,5.7,4.8,6.8,6.3
		c1.5,2,2.2,4.1,2.2,6.3c0,2.8-1.1,5.2-3.2,7.2c-2.1,2-4.9,3-8.4,3c-3.8,0-6.7-1.2-8.8-3.5c-1.7-1.9-2.5-4-2.5-6.2
		c0-1.8,0.6-3.5,1.8-5.2C216.9,1208,218.9,1206,221.8,1203.9z M223.2,1205.1c-1.6,1.4-2.8,2.9-3.6,4.5c-0.8,1.6-1.2,3.4-1.2,5.2
		c0,2.5,0.7,4.6,2.1,6.1c1.4,1.5,3.1,2.3,5.3,2.3c2.1,0,3.8-0.6,5.1-1.8c1.3-1.2,1.9-2.6,1.9-4.3c0-1.4-0.4-2.7-1.1-3.8
		C230.2,1211.1,227.4,1208.4,223.2,1205.1z M226.5,1200.8c2.3-2.1,3.8-3.8,4.5-5c0.6-1.2,0.9-2.6,0.9-4.1c0-2.1-0.6-3.7-1.7-4.8
		c-1.2-1.2-2.7-1.7-4.7-1.7c-2,0-3.6,0.6-4.9,1.7c-1.3,1.2-1.9,2.5-1.9,4c0,1,0.3,2,0.8,3.1c0.5,1,1.3,2,2.2,2.9L226.5,1200.8z"/>
	<path class="st2" d="M242.6,1204.4c0-4.6,0.7-8.5,2-11.8c1.4-3.3,3.2-5.7,5.5-7.3c1.8-1.3,3.6-1.9,5.4-1.9c3.1,0,5.8,1.6,8.3,4.7
		c3,3.8,4.6,9.1,4.6,15.7c0,4.6-0.7,8.5-2,11.8c-1.3,3.2-3,5.6-5.1,7c-2.1,1.5-4.1,2.2-6,2.2c-3.8,0-7-2.2-9.5-6.7
		C243.6,1214.2,242.6,1209.7,242.6,1204.4z M248.3,1205.1c0,5.5,0.7,10,2,13.4c1.1,2.9,2.8,4.4,5,4.4c1,0,2.1-0.5,3.3-1.4
		c1.1-0.9,2-2.5,2.6-4.8c0.9-3.4,1.4-8.1,1.4-14.3c0-4.5-0.5-8.3-1.4-11.4c-0.7-2.3-1.6-3.9-2.7-4.8c-0.8-0.7-1.8-1-2.9-1
		c-1.3,0-2.5,0.6-3.6,1.8c-1.4,1.6-2.4,4.2-2.9,7.7C248.5,1198.3,248.3,1201.7,248.3,1205.1z"/>
	<path class="st2" d="M277.5,1188.1l9.7-4.7h0.9v33.7c0,2.2,0.1,3.6,0.3,4.1c0.2,0.5,0.6,1,1.2,1.3c0.6,0.3,1.8,0.5,3.6,0.5v1.1h-15
		v-1.1c1.9,0,3.1-0.2,3.6-0.5c0.5-0.3,0.9-0.7,1.2-1.2c0.2-0.5,0.3-1.9,0.3-4.3v-21.5c0-2.9-0.1-4.8-0.3-5.6
		c-0.1-0.6-0.4-1.1-0.8-1.4c-0.4-0.3-0.8-0.5-1.3-0.5c-0.7,0-1.7,0.3-3,0.9L277.5,1188.1z"/>
	<path class="st2" d="M315.5,1199.8l8.3-3.4h1.1v6.3c1.4-2.4,2.8-4,4.2-5c1.4-0.9,2.9-1.4,4.4-1.4c2.7,0,5,1.1,6.8,3.2
		c2.2,2.6,3.3,6,3.3,10.1c0,4.6-1.3,8.5-4,11.5c-2.2,2.5-5,3.8-8.3,3.8c-1.4,0-2.7-0.2-3.8-0.6c-0.8-0.3-1.7-0.9-2.6-1.8v8.2
		c0,1.8,0.1,3,0.3,3.5c0.2,0.5,0.6,0.9,1.2,1.2c0.5,0.3,1.6,0.4,3,0.4v1.1h-14.1v-1.1h0.7c1.1,0,2-0.2,2.8-0.6
		c0.4-0.2,0.7-0.6,0.9-1s0.3-1.7,0.3-3.7V1205c0-1.8-0.1-2.9-0.2-3.3c-0.2-0.5-0.4-0.8-0.7-1.1c-0.3-0.2-0.8-0.4-1.4-0.4
		c-0.5,0-1.1,0.1-1.8,0.4L315.5,1199.8z M324.9,1204.5v10c0,2.2,0.1,3.6,0.3,4.3c0.3,1.1,1,2.1,2,3c1.1,0.9,2.4,1.3,4,1.3
		c2,0,3.6-0.8,4.7-2.3c1.6-2,2.4-4.8,2.4-8.4c0-4.1-0.9-7.3-2.7-9.5c-1.3-1.5-2.8-2.3-4.5-2.3c-0.9,0-1.8,0.2-2.8,0.7
		C327.7,1201.6,326.5,1202.7,324.9,1204.5z"/>
	<path class="st2" d="M353.2,1218.3c0.9,0,1.7,0.3,2.3,0.9c0.6,0.6,0.9,1.4,0.9,2.3c0,0.9-0.3,1.7-0.9,2.3c-0.6,0.6-1.4,1-2.3,1
		c-0.9,0-1.7-0.3-2.3-1c-0.6-0.6-0.9-1.4-0.9-2.3c0-0.9,0.3-1.7,0.9-2.3S352.3,1218.3,353.2,1218.3z"/>
	<path class="st2" d="M370.5,1182.2v26.8l6.8-6.2c1.5-1.3,2.3-2.2,2.5-2.5c0.2-0.2,0.3-0.5,0.3-0.7c0-0.4-0.2-0.7-0.5-1
		c-0.3-0.3-0.9-0.4-1.6-0.5v-0.9h11.7v0.9c-1.6,0-2.9,0.3-4,0.7c-1.1,0.5-2.2,1.3-3.5,2.4l-6.9,6.4l6.9,8.7c1.9,2.4,3.2,3.9,3.9,4.6
		c0.9,0.9,1.8,1.5,2.5,1.8c0.5,0.2,1.3,0.3,2.6,0.3v1.1h-13.1v-1.1c0.7,0,1.2-0.1,1.5-0.3c0.3-0.2,0.4-0.5,0.4-0.9
		c0-0.5-0.4-1.2-1.2-2.2l-8.3-10.6v8.9c0,1.8,0.1,2.9,0.4,3.5c0.2,0.5,0.6,0.9,1,1.2c0.5,0.2,1.4,0.4,2.9,0.4v1.1h-13.7v-1.1
		c1.4,0,2.4-0.2,3.1-0.5c0.4-0.2,0.7-0.5,0.9-1c0.3-0.7,0.4-1.8,0.4-3.4v-24.5c0-3.1-0.1-5-0.2-5.7c-0.1-0.7-0.4-1.2-0.7-1.4
		s-0.7-0.4-1.2-0.4c-0.4,0-1,0.2-1.9,0.5l-0.5-1.1l8-3.3H370.5z"/>
	<path class="st2" d="M400.6,1202.1c2-2,3.1-3.1,3.5-3.4c0.9-0.7,1.9-1.3,2.9-1.7c1-0.4,2-0.6,3-0.6c1.7,0,3.2,0.5,4.4,1.5
		c1.2,1,2,2.4,2.4,4.3c2-2.4,3.7-3.9,5.1-4.6c1.4-0.7,2.8-1.1,4.3-1.1c1.4,0,2.7,0.4,3.8,1.1c1.1,0.7,2,1.9,2.6,3.6
		c0.4,1.1,0.7,2.9,0.7,5.3v11.6c0,1.7,0.1,2.9,0.4,3.5c0.2,0.4,0.6,0.8,1.1,1.1c0.5,0.3,1.4,0.5,2.6,0.5v1.1H424v-1.1h0.6
		c1.1,0,2-0.2,2.7-0.7c0.4-0.3,0.8-0.8,0.9-1.5c0.1-0.3,0.1-1.3,0.1-2.8v-11.6c0-2.2-0.3-3.7-0.8-4.6c-0.8-1.3-2-1.9-3.7-1.9
		c-1,0-2.1,0.3-3.1,0.8c-1,0.5-2.3,1.5-3.8,2.9l-0.1,0.3l0.1,1.3v12.8c0,1.8,0.1,3,0.3,3.4c0.2,0.5,0.6,0.8,1.2,1.1
		c0.6,0.3,1.5,0.5,2.9,0.5v1.1h-13.6v-1.1c1.5,0,2.5-0.2,3.1-0.5c0.6-0.4,0.9-0.9,1.2-1.6c0.1-0.3,0.1-1.3,0.1-2.9v-11.6
		c0-2.2-0.3-3.8-0.9-4.7c-0.9-1.3-2.1-1.9-3.6-1.9c-1.1,0-2.1,0.3-3.1,0.8c-1.6,0.9-2.9,1.8-3.8,2.9v14.4c0,1.8,0.1,2.9,0.4,3.4
		c0.3,0.5,0.6,0.9,1.1,1.2c0.5,0.3,1.4,0.4,2.9,0.4v1.1h-13.3v-1.1c1.2,0,2.1-0.1,2.6-0.4c0.5-0.3,0.9-0.7,1.1-1.3
		c0.3-0.6,0.4-1.7,0.4-3.4v-10.3c0-3-0.1-4.9-0.3-5.7c-0.1-0.7-0.3-1.1-0.6-1.4c-0.3-0.2-0.7-0.4-1.2-0.4c-0.6,0-1.2,0.1-2,0.4
		l-0.4-1.1l8.1-3.3h1.2V1202.1z"/>
	<path class="st2" d="M459.7,1188.1l9.7-4.7h0.9v33.7c0,2.2,0.1,3.6,0.3,4.1c0.2,0.5,0.6,1,1.2,1.3c0.6,0.3,1.8,0.5,3.6,0.5v1.1h-15
		v-1.1c1.9,0,3.1-0.2,3.6-0.5c0.5-0.3,0.9-0.7,1.2-1.2c0.2-0.5,0.3-1.9,0.3-4.3v-21.5c0-2.9-0.1-4.8-0.3-5.6
		c-0.1-0.6-0.4-1.1-0.8-1.4c-0.4-0.3-0.8-0.5-1.3-0.5c-0.7,0-1.7,0.3-3,0.9L459.7,1188.1z"/>
	<path class="st2" d="M490.2,1218.3c0.9,0,1.7,0.3,2.3,0.9c0.6,0.6,0.9,1.4,0.9,2.3c0,0.9-0.3,1.7-0.9,2.3c-0.6,0.6-1.4,1-2.3,1
		c-0.9,0-1.7-0.3-2.3-1c-0.6-0.6-0.9-1.4-0.9-2.3c0-0.9,0.3-1.7,0.9-2.3S489.3,1218.3,490.2,1218.3z"/>
	<path class="st2" d="M509.3,1203.9c-3.1-2.6-5.2-4.7-6.1-6.2c-0.9-1.6-1.4-3.2-1.4-4.9c0-2.6,1-4.8,3-6.7c2-1.9,4.6-2.8,8-2.8
		c3.2,0,5.8,0.9,7.8,2.6c2,1.7,2.9,3.7,2.9,6c0,1.5-0.5,3-1.6,4.5c-1.1,1.5-3.3,3.4-6.6,5.5c3.4,2.7,5.7,4.8,6.8,6.3
		c1.5,2,2.2,4.1,2.2,6.3c0,2.8-1.1,5.2-3.2,7.2c-2.1,2-4.9,3-8.4,3c-3.8,0-6.7-1.2-8.8-3.5c-1.7-1.9-2.5-4-2.5-6.2
		c0-1.8,0.6-3.5,1.8-5.2C504.3,1208,506.4,1206,509.3,1203.9z M510.7,1205.1c-1.6,1.4-2.8,2.9-3.6,4.5c-0.8,1.6-1.2,3.4-1.2,5.2
		c0,2.5,0.7,4.6,2.1,6.1c1.4,1.5,3.1,2.3,5.3,2.3c2.1,0,3.8-0.6,5.1-1.8c1.3-1.2,1.9-2.6,1.9-4.3c0-1.4-0.4-2.7-1.1-3.8
		C517.7,1211.1,514.9,1208.4,510.7,1205.1z M513.9,1200.8c2.3-2.1,3.8-3.8,4.5-5c0.6-1.2,0.9-2.6,0.9-4.1c0-2.1-0.6-3.7-1.7-4.8
		c-1.2-1.2-2.7-1.7-4.7-1.7c-2,0-3.6,0.6-4.9,1.7c-1.3,1.2-1.9,2.5-1.9,4c0,1,0.3,2,0.8,3.1c0.5,1,1.3,2,2.2,2.9L513.9,1200.8z"/>
	<path class="st2" d="M531.1,1234.1v-1.3c2-0.7,3.5-1.7,4.7-3.1c1.1-1.4,1.7-2.9,1.7-4.5c0-0.4-0.1-0.7-0.3-0.9
		c-0.1-0.2-0.3-0.3-0.4-0.3c-0.2,0-0.7,0.2-1.4,0.6c-0.3,0.2-0.7,0.3-1.1,0.3c-1,0-1.7-0.3-2.3-0.9c-0.6-0.6-0.8-1.4-0.8-2.4
		c0-1,0.4-1.8,1.1-2.5c0.7-0.7,1.6-1,2.7-1c1.3,0,2.5,0.6,3.5,1.7c1,1.1,1.5,2.6,1.5,4.5c0,2-0.7,3.9-2.1,5.6
		C536.3,1231.7,534.1,1233,531.1,1234.1z"/>
	<path class="st2" d="M594.2,1183.2l0.9,13.6h-0.9c-1.2-4.1-3-7-5.2-8.8c-2.3-1.8-5-2.7-8.1-2.7c-2.7,0-5,0.7-7.2,2
		c-2.1,1.3-3.8,3.5-5,6.4c-1.2,2.9-1.8,6.6-1.8,11c0,3.6,0.6,6.7,1.7,9.4c1.2,2.6,2.9,4.7,5.2,6.1c2.3,1.4,5,2.1,7.9,2.1
		c2.6,0,4.9-0.6,6.9-1.7c2-1.1,4.1-3.3,6.5-6.6l0.9,0.6c-2,3.6-4.3,6.2-7,7.8c-2.7,1.6-5.8,2.5-9.5,2.5c-6.6,0-11.7-2.4-15.3-7.3
		c-2.7-3.7-4.1-7.9-4.1-12.9c0-4,0.9-7.6,2.7-11c1.8-3.3,4.2-5.9,7.4-7.8s6.5-2.8,10.2-2.8c2.9,0,5.7,0.7,8.5,2.1
		c0.8,0.4,1.4,0.7,1.8,0.7c0.5,0,1-0.2,1.4-0.5c0.5-0.5,0.9-1.3,1.1-2.2H594.2z"/>
	<path class="st2" d="M615.2,1220.2c-2.8,2.1-4.5,3.3-5.2,3.7c-1.1,0.5-2.2,0.7-3.4,0.7c-1.8,0-3.4-0.6-4.6-1.9
		c-1.2-1.3-1.8-2.9-1.8-5c0-1.3,0.3-2.4,0.9-3.4c0.8-1.3,2.2-2.6,4.2-3.8c2-1.2,5.3-2.6,9.9-4.3v-1.1c0-2.7-0.4-4.5-1.3-5.5
		c-0.9-1-2.1-1.5-3.7-1.5c-1.2,0-2.2,0.3-2.9,1c-0.8,0.7-1.1,1.4-1.1,2.3l0.1,1.7c0,0.9-0.2,1.6-0.7,2.1c-0.5,0.5-1.1,0.7-1.8,0.7
		s-1.3-0.3-1.8-0.8c-0.5-0.5-0.7-1.2-0.7-2.1c0-1.7,0.9-3.2,2.6-4.6c1.7-1.4,4.1-2.1,7.3-2.1c2.4,0,4.3,0.4,5.9,1.2
		c1.1,0.6,2,1.6,2.6,2.8c0.3,0.9,0.5,2.6,0.5,5.2v9.1c0,2.6,0,4.1,0.1,4.7c0.1,0.6,0.3,1,0.5,1.2c0.2,0.2,0.5,0.3,0.8,0.3
		c0.3,0,0.6-0.1,0.8-0.2c0.4-0.2,1.2-0.9,2.4-2.1v1.6c-2.2,2.9-4.3,4.4-6.3,4.4c-0.9,0-1.7-0.3-2.3-1
		C615.5,1222.9,615.2,1221.8,615.2,1220.2z M615.2,1218.2V1208c-2.9,1.2-4.9,2-5.7,2.5c-1.5,0.9-2.6,1.8-3.3,2.7c-0.7,0.9-1,2-1,3.1
		c0,1.4,0.4,2.6,1.3,3.5c0.8,0.9,1.8,1.4,2.9,1.4C610.8,1221.2,612.7,1220.2,615.2,1218.2z"/>
	<path class="st2" d="M634.5,1196.3v6.1c2.3-4,4.6-6.1,6.9-6.1c1.1,0,2,0.3,2.7,1c0.7,0.7,1,1.4,1,2.3c0,0.8-0.2,1.4-0.7,2
		c-0.5,0.5-1.1,0.8-1.8,0.8c-0.7,0-1.5-0.3-2.3-1c-0.9-0.7-1.5-1-1.9-1c-0.4,0-0.8,0.2-1.2,0.6c-0.9,0.8-1.8,2.1-2.7,3.9v12.9
		c0,1.5,0.2,2.6,0.6,3.4c0.2,0.5,0.7,1,1.3,1.3c0.6,0.4,1.6,0.5,2.8,0.5v1.1h-13.8v-1.1c1.4,0,2.4-0.2,3-0.7c0.5-0.3,0.8-0.8,1-1.5
		c0.1-0.3,0.1-1.3,0.1-2.8v-10.4c0-3.1-0.1-5-0.2-5.6s-0.4-1-0.7-1.3c-0.3-0.3-0.8-0.4-1.3-0.4c-0.6,0-1.3,0.1-2,0.4l-0.3-1.1
		l8.1-3.3H634.5z"/>
	<path class="st2" d="M654.6,1196.3v6.1c2.3-4,4.6-6.1,6.9-6.1c1.1,0,2,0.3,2.7,1c0.7,0.7,1,1.4,1,2.3c0,0.8-0.2,1.4-0.7,2
		c-0.5,0.5-1.1,0.8-1.8,0.8c-0.7,0-1.5-0.3-2.3-1c-0.9-0.7-1.5-1-1.9-1c-0.4,0-0.8,0.2-1.2,0.6c-0.9,0.8-1.8,2.1-2.7,3.9v12.9
		c0,1.5,0.2,2.6,0.6,3.4c0.2,0.5,0.7,1,1.3,1.3c0.6,0.4,1.6,0.5,2.8,0.5v1.1h-13.8v-1.1c1.4,0,2.4-0.2,3-0.7c0.5-0.3,0.8-0.8,1-1.5
		c0.1-0.3,0.1-1.3,0.1-2.8v-10.4c0-3.1-0.1-5-0.2-5.6s-0.4-1-0.7-1.3c-0.3-0.3-0.8-0.4-1.3-0.4c-0.6,0-1.3,0.1-2,0.4l-0.3-1.1
		l8.1-3.3H654.6z"/>
	<path class="st2" d="M672.4,1218.3c0.9,0,1.7,0.3,2.3,0.9c0.6,0.6,0.9,1.4,0.9,2.3c0,0.9-0.3,1.7-0.9,2.3c-0.6,0.6-1.4,1-2.3,1
		c-0.9,0-1.7-0.3-2.3-1c-0.6-0.6-0.9-1.4-0.9-2.3c0-0.9,0.3-1.7,0.9-2.3S671.5,1218.3,672.4,1218.3z"/>
	<path class="st2" d="M712.1,1220.2c-2.8,2.1-4.5,3.3-5.2,3.7c-1.1,0.5-2.2,0.7-3.4,0.7c-1.8,0-3.4-0.6-4.6-1.9
		c-1.2-1.3-1.8-2.9-1.8-5c0-1.3,0.3-2.4,0.9-3.4c0.8-1.3,2.2-2.6,4.2-3.8c2-1.2,5.3-2.6,9.9-4.3v-1.1c0-2.7-0.4-4.5-1.3-5.5
		c-0.9-1-2.1-1.5-3.7-1.5c-1.2,0-2.2,0.3-2.9,1c-0.8,0.7-1.1,1.4-1.1,2.3l0.1,1.7c0,0.9-0.2,1.6-0.7,2.1c-0.5,0.5-1.1,0.7-1.8,0.7
		c-0.7,0-1.3-0.3-1.8-0.8c-0.5-0.5-0.7-1.2-0.7-2.1c0-1.7,0.9-3.2,2.6-4.6c1.7-1.4,4.1-2.1,7.3-2.1c2.4,0,4.3,0.4,5.9,1.2
		c1.1,0.6,2,1.6,2.6,2.8c0.3,0.9,0.5,2.6,0.5,5.2v9.1c0,2.6,0,4.1,0.1,4.7c0.1,0.6,0.3,1,0.5,1.2c0.2,0.2,0.5,0.3,0.8,0.3
		c0.3,0,0.6-0.1,0.8-0.2c0.4-0.2,1.2-0.9,2.4-2.1v1.6c-2.2,2.9-4.3,4.4-6.3,4.4c-0.9,0-1.7-0.3-2.3-1
		C712.4,1222.9,712.1,1221.8,712.1,1220.2z M712.1,1218.2V1208c-2.9,1.2-4.9,2-5.7,2.5c-1.5,0.9-2.6,1.8-3.3,2.7c-0.7,0.9-1,2-1,3.1
		c0,1.4,0.4,2.6,1.3,3.5c0.8,0.9,1.8,1.4,2.9,1.4C707.7,1221.2,709.6,1220.2,712.1,1218.2z"/>
	<path class="st2" d="M771.2,1213l1,0.2l-3.4,10.8h-30.8v-1.1h1.5c1.7,0,2.9-0.5,3.6-1.6c0.4-0.6,0.6-2.1,0.6-4.3v-25.7
		c0-2.5-0.3-4.1-0.8-4.7c-0.8-0.9-1.9-1.3-3.4-1.3h-1.5v-1.1h18v1.1c-2.1,0-3.6,0.2-4.5,0.6c-0.9,0.4-1.4,0.9-1.7,1.6
		c-0.3,0.6-0.5,2.1-0.5,4.5v25c0,1.6,0.1,2.8,0.4,3.4c0.2,0.4,0.6,0.7,1.1,0.9s2,0.3,4.6,0.3h2.9c3.1,0,5.2-0.2,6.4-0.7
		c1.2-0.5,2.4-1.2,3.4-2.4C769.2,1217.3,770.2,1215.5,771.2,1213z"/>
	<path class="st2" d="M788.5,1196.3c4.1,0,7.4,1.5,9.8,4.6c2.1,2.7,3.1,5.7,3.1,9.1c0,2.4-0.6,4.8-1.7,7.3c-1.2,2.5-2.7,4.3-4.8,5.6
		c-2,1.3-4.3,1.9-6.8,1.9c-4,0-7.3-1.6-9.7-4.9c-2-2.7-3-5.8-3-9.2c0-2.5,0.6-4.9,1.8-7.4c1.2-2.4,2.8-4.2,4.8-5.4
		C784.2,1196.9,786.3,1196.3,788.5,1196.3z M787.6,1198.2c-1,0-2.1,0.3-3.1,0.9c-1.1,0.6-1.9,1.7-2.6,3.2c-0.6,1.5-1,3.5-1,6
		c0,3.9,0.8,7.3,2.3,10.1c1.6,2.8,3.6,4.3,6.2,4.3c1.9,0,3.5-0.8,4.7-2.3c1.2-1.6,1.8-4.2,1.8-8.1c0-4.8-1-8.6-3.1-11.3
		C791.5,1199.2,789.8,1198.2,787.6,1198.2z"/>
	<path class="st2" d="M822.8,1196.3v9.2h-0.9c-0.8-2.9-1.7-4.8-2.9-5.9c-1.2-1-2.7-1.6-4.5-1.6c-1.4,0-2.5,0.4-3.3,1.1
		c-0.9,0.7-1.3,1.5-1.3,2.4c0,1.1,0.3,2,0.9,2.8c0.6,0.8,1.8,1.7,3.7,2.6l4.3,2.1c4,1.9,6,4.5,6,7.7c0,2.4-0.9,4.4-2.8,5.9
		c-1.9,1.5-3.9,2.3-6.2,2.3c-1.6,0-3.5-0.3-5.6-0.9c-0.7-0.2-1.2-0.3-1.6-0.3c-0.4,0-0.8,0.3-1.1,0.8h-0.9v-9.6h0.9
		c0.6,2.8,1.6,4.8,3.2,6.2c1.5,1.4,3.3,2.1,5.2,2.1c1.3,0,2.4-0.4,3.3-1.2c0.9-0.8,1.3-1.7,1.3-2.9c0-1.4-0.5-2.5-1.4-3.4
		c-0.9-0.9-2.8-2.1-5.7-3.5c-2.8-1.4-4.7-2.7-5.6-3.8c-0.9-1.1-1.3-2.5-1.3-4.2c0-2.2,0.8-4.1,2.3-5.5c1.5-1.5,3.5-2.2,5.9-2.2
		c1.1,0,2.4,0.2,3.9,0.7c1,0.3,1.7,0.4,2,0.4c0.3,0,0.6-0.1,0.7-0.2c0.2-0.1,0.4-0.4,0.6-0.9H822.8z"/>
	<path class="st2" d="M854.4,1202.7h18.5v-11.4c0-2-0.1-3.4-0.4-4c-0.2-0.5-0.6-0.9-1.2-1.2c-0.9-0.5-1.7-0.7-2.7-0.7h-1.4v-1.1h17
		v1.1h-1.4c-0.9,0-1.8,0.2-2.7,0.7c-0.6,0.3-1.1,0.8-1.3,1.4c-0.2,0.6-0.3,1.9-0.3,3.9v25.7c0,2,0.1,3.3,0.4,4
		c0.2,0.5,0.6,0.9,1.2,1.3c0.9,0.5,1.8,0.7,2.7,0.7h1.4v1.1h-17v-1.1h1.4c1.6,0,2.8-0.5,3.5-1.4c0.5-0.6,0.7-2.1,0.7-4.5v-12.2
		h-18.5v12.2c0,2,0.1,3.3,0.4,4c0.2,0.5,0.6,0.9,1.2,1.3c0.9,0.5,1.7,0.7,2.7,0.7h1.5v1.1h-17.1v-1.1h1.4c1.6,0,2.8-0.5,3.6-1.4
		c0.5-0.6,0.7-2.1,0.7-4.5v-25.7c0-2-0.1-3.4-0.4-4c-0.2-0.5-0.6-0.9-1.2-1.2c-0.9-0.5-1.8-0.7-2.7-0.7h-1.4v-1.1h17.1v1.1h-1.5
		c-0.9,0-1.8,0.2-2.7,0.7c-0.6,0.3-1,0.8-1.3,1.4c-0.2,0.6-0.3,1.9-0.3,3.9V1202.7z"/>
	<path class="st2" d="M900.6,1196.3c4.1,0,7.4,1.5,9.8,4.6c2.1,2.7,3.1,5.7,3.1,9.1c0,2.4-0.6,4.8-1.7,7.3c-1.2,2.5-2.7,4.3-4.8,5.6
		c-2,1.3-4.3,1.9-6.8,1.9c-4,0-7.3-1.6-9.7-4.9c-2-2.7-3-5.8-3-9.2c0-2.5,0.6-4.9,1.8-7.4c1.2-2.4,2.8-4.2,4.8-5.4
		C896.2,1196.9,898.3,1196.3,900.6,1196.3z M899.6,1198.2c-1,0-2.1,0.3-3.1,0.9c-1.1,0.6-1.9,1.7-2.6,3.2c-0.6,1.5-1,3.5-1,6
		c0,3.9,0.8,7.3,2.3,10.1c1.6,2.8,3.6,4.3,6.2,4.3c1.9,0,3.5-0.8,4.7-2.3c1.2-1.6,1.8-4.2,1.8-8.1c0-4.8-1-8.6-3.1-11.3
		C903.6,1199.2,901.8,1198.2,899.6,1198.2z"/>
	<path class="st2" d="M916,1197.1h12.5v1.1h-0.6c-0.9,0-1.5,0.2-2,0.6c-0.4,0.4-0.7,0.9-0.7,1.4c0,0.8,0.3,1.8,1,3.2l6.5,13.6
		l6-14.9c0.3-0.8,0.5-1.6,0.5-2.4c0-0.3-0.1-0.6-0.2-0.8c-0.1-0.2-0.4-0.4-0.7-0.5c-0.3-0.1-0.9-0.2-1.8-0.2v-1.1h8.8v1.1
		c-0.7,0.1-1.3,0.3-1.7,0.5c-0.4,0.2-0.8,0.7-1.3,1.3c-0.2,0.3-0.5,1-1,2.2l-11,26.9c-1.1,2.6-2.5,4.6-4.2,5.9s-3.4,2-4.9,2
		c-1.1,0-2.1-0.3-2.8-1c-0.8-0.7-1.1-1.4-1.1-2.3c0-0.8,0.3-1.5,0.8-2c0.5-0.5,1.3-0.7,2.2-0.7c0.7,0,1.5,0.2,2.7,0.6
		c0.8,0.3,1.3,0.5,1.5,0.5c0.6,0,1.2-0.3,1.9-0.9c0.7-0.6,1.4-1.8,2.1-3.5l1.9-4.7l-9.7-20.3c-0.3-0.6-0.8-1.4-1.4-2.3
		c-0.5-0.7-0.9-1.1-1.2-1.4c-0.4-0.3-1.2-0.6-2.2-0.8V1197.1z"/>
	<path class="st2" d="M960.7,1196.3c4.1,0,7.4,1.5,9.8,4.6c2.1,2.7,3.1,5.7,3.1,9.1c0,2.4-0.6,4.8-1.7,7.3c-1.2,2.5-2.7,4.3-4.8,5.6
		c-2,1.3-4.3,1.9-6.8,1.9c-4,0-7.3-1.6-9.7-4.9c-2-2.7-3-5.8-3-9.2c0-2.5,0.6-4.9,1.8-7.4c1.2-2.4,2.8-4.2,4.8-5.4
		C956.4,1196.9,958.5,1196.3,960.7,1196.3z M959.8,1198.2c-1,0-2.1,0.3-3.1,0.9c-1.1,0.6-1.9,1.7-2.6,3.2c-0.6,1.5-1,3.5-1,6
		c0,3.9,0.8,7.3,2.3,10.1c1.6,2.8,3.6,4.3,6.2,4.3c1.9,0,3.5-0.8,4.7-2.3c1.2-1.6,1.8-4.2,1.8-8.1c0-4.8-1-8.6-3.1-11.3
		C963.8,1199.2,962,1198.2,959.8,1198.2z"/>
	<path class="st2" d="M995,1196.3v9.2h-0.9c-0.8-2.9-1.7-4.8-2.9-5.9c-1.2-1-2.7-1.6-4.5-1.6c-1.4,0-2.5,0.4-3.3,1.1
		c-0.9,0.7-1.3,1.5-1.3,2.4c0,1.1,0.3,2,0.9,2.8c0.6,0.8,1.8,1.7,3.7,2.6l4.3,2.1c4,1.9,6,4.5,6,7.7c0,2.4-0.9,4.4-2.8,5.9
		c-1.9,1.5-3.9,2.3-6.2,2.3c-1.6,0-3.5-0.3-5.6-0.9c-0.7-0.2-1.2-0.3-1.6-0.3c-0.4,0-0.8,0.3-1.1,0.8h-0.9v-9.6h0.9
		c0.6,2.8,1.6,4.8,3.2,6.2c1.5,1.4,3.3,2.1,5.2,2.1c1.3,0,2.4-0.4,3.3-1.2c0.9-0.8,1.3-1.7,1.3-2.9c0-1.4-0.5-2.5-1.4-3.4
		c-0.9-0.9-2.8-2.1-5.7-3.5c-2.8-1.4-4.7-2.7-5.6-3.8c-0.9-1.1-1.3-2.5-1.3-4.2c0-2.2,0.8-4.1,2.3-5.5c1.5-1.5,3.5-2.2,5.9-2.2
		c1.1,0,2.4,0.2,3.9,0.7c1,0.3,1.7,0.4,2,0.4c0.3,0,0.6-0.1,0.7-0.2c0.2-0.1,0.4-0.4,0.6-0.9H995z"/>
	<path class="st2" d="M1002.5,1234.1v-1.3c2-0.7,3.5-1.7,4.7-3.1s1.7-2.9,1.7-4.5c0-0.4-0.1-0.7-0.3-0.9c-0.1-0.2-0.3-0.3-0.4-0.3
		c-0.2,0-0.7,0.2-1.4,0.6c-0.3,0.2-0.7,0.3-1.1,0.3c-1,0-1.7-0.3-2.3-0.9c-0.6-0.6-0.8-1.4-0.8-2.4c0-1,0.4-1.8,1.1-2.5
		c0.7-0.7,1.6-1,2.7-1c1.3,0,2.5,0.6,3.5,1.7c1,1.1,1.5,2.6,1.5,4.5c0,2-0.7,3.9-2.1,5.6C1007.7,1231.7,1005.5,1233,1002.5,1234.1z"
		/>
	<path class="st2" d="M1056.9,1216.4l-2.8,7.7h-23.5v-1.1c6.9-6.3,11.8-11.5,14.6-15.4c2.8-4,4.2-7.6,4.2-11c0-2.5-0.8-4.6-2.3-6.2
		c-1.5-1.6-3.4-2.4-5.5-2.4c-2,0-3.7,0.6-5.3,1.7c-1.6,1.1-2.7,2.8-3.4,5h-1.1c0.5-3.6,1.7-6.4,3.8-8.3c2-1.9,4.6-2.9,7.6-2.9
		c3.2,0,5.9,1,8.1,3.1c2.2,2.1,3.2,4.5,3.2,7.3c0,2-0.5,4-1.4,6.1c-1.4,3.2-3.8,6.5-7,10.1c-4.9,5.3-7.9,8.5-9.1,9.6h10.4
		c2.1,0,3.6-0.1,4.5-0.2c0.9-0.1,1.6-0.5,2.3-0.9c0.7-0.5,1.3-1.2,1.8-2H1056.9z"/>
	<path class="st2" d="M1087,1216.4l-2.8,7.7h-23.5v-1.1c6.9-6.3,11.8-11.5,14.6-15.4c2.8-4,4.2-7.6,4.2-11c0-2.5-0.8-4.6-2.3-6.2
		c-1.5-1.6-3.4-2.4-5.5-2.4c-2,0-3.7,0.6-5.3,1.7c-1.6,1.1-2.7,2.8-3.4,5h-1.1c0.5-3.6,1.7-6.4,3.8-8.3c2-1.9,4.6-2.9,7.6-2.9
		c3.2,0,5.9,1,8.1,3.1c2.2,2.1,3.2,4.5,3.2,7.3c0,2-0.5,4-1.4,6.1c-1.4,3.2-3.8,6.5-7,10.1c-4.9,5.3-7.9,8.5-9.1,9.6h10.4
		c2.1,0,3.6-0.1,4.5-0.2c0.9-0.1,1.6-0.5,2.3-0.9c0.7-0.5,1.3-1.2,1.8-2H1087z"/>
	<path class="st2" d="M1116.4,1183.4v1.1c-2.6,0.2-4.7,0.8-6.3,1.5c-1.6,0.8-3.3,2-4.9,3.5c-1.6,1.6-2.9,3.3-4,5.3
		c-1,1.9-1.9,4.3-2.6,7c2.8-1.9,5.7-2.9,8.5-2.9c2.7,0,5.1,1.1,7.1,3.3c2,2.2,3,5,3,8.5c0,3.3-1,6.4-3,9.1c-2.4,3.3-5.6,5-9.6,5
		c-2.7,0-5-0.9-6.9-2.7c-3.7-3.5-5.6-8-5.6-13.6c0-3.6,0.7-7,2.1-10.2c1.4-3.2,3.5-6.1,6.1-8.5c2.7-2.5,5.2-4.2,7.6-5
		c2.4-0.9,4.7-1.3,6.8-1.3H1116.4z M1098.1,1203.9c-0.3,2.7-0.5,4.8-0.5,6.4c0,1.9,0.3,3.9,1,6.1c0.7,2.2,1.7,3.9,3.1,5.2
		c1,0.9,2.2,1.4,3.7,1.4c1.7,0,3.2-0.8,4.6-2.4c1.3-1.6,2-3.9,2-6.9c0-3.4-0.7-6.3-2-8.7c-1.3-2.4-3.2-3.7-5.7-3.7
		c-0.7,0-1.5,0.2-2.4,0.5C1101.1,1202.2,1099.8,1202.9,1098.1,1203.9z"/>
	<path class="st2" d="M1122.8,1234.1v-1.3c2-0.7,3.5-1.7,4.7-3.1c1.1-1.4,1.7-2.9,1.7-4.5c0-0.4-0.1-0.7-0.3-0.9
		c-0.1-0.2-0.3-0.3-0.4-0.3c-0.2,0-0.7,0.2-1.4,0.6c-0.3,0.2-0.7,0.3-1.1,0.3c-1,0-1.7-0.3-2.3-0.9c-0.6-0.6-0.8-1.4-0.8-2.4
		c0-1,0.4-1.8,1.1-2.5c0.7-0.7,1.6-1,2.7-1c1.3,0,2.5,0.6,3.5,1.7c1,1.1,1.5,2.6,1.5,4.5c0,2-0.7,3.9-2.1,5.6
		C1128,1231.7,1125.8,1233,1122.8,1234.1z"/>
	<path class="st2" d="M190.8,1281.5c1.1-2.7,2.6-4.7,4.3-6.2c1.7-1.5,3.9-2.2,6.5-2.2c3.2,0,5.6,1,7.3,3.1c1.3,1.6,2,3.2,2,5
		c0,2.9-1.8,5.9-5.5,9c2.4,0.9,4.3,2.3,5.5,4.1c1.3,1.8,1.9,3.9,1.9,6.3c0,3.4-1.1,6.4-3.3,8.9c-2.8,3.3-7,4.9-12.4,4.9
		c-2.7,0-4.5-0.3-5.5-1c-1-0.7-1.5-1.4-1.5-2.2c0-0.6,0.2-1.1,0.7-1.5c0.5-0.4,1-0.7,1.6-0.7c0.5,0,1,0.1,1.5,0.3
		c0.3,0.1,1.1,0.5,2.3,1.1c1.2,0.6,2,1,2.4,1.1c0.7,0.2,1.5,0.3,2.3,0.3c2,0,3.7-0.8,5.2-2.3c1.5-1.5,2.2-3.4,2.2-5.5
		c0-1.5-0.3-3-1-4.5c-0.5-1.1-1.1-1.9-1.7-2.5c-0.8-0.8-2-1.5-3.5-2.1c-1.5-0.6-3-1-4.5-1h-0.9v-0.9c1.6-0.2,3.1-0.8,4.7-1.7
		c1.6-0.9,2.7-2,3.4-3.3c0.7-1.3,1.1-2.7,1.1-4.2c0-2-0.6-3.7-1.9-4.9c-1.3-1.3-2.8-1.9-4.7-1.9c-3,0-5.6,1.6-7.6,4.9L190.8,1281.5z
		"/>
	<path class="st2" d="M243.9,1273.9l-2.3,5h-12l-2.6,5.4c5.2,0.8,9.3,2.7,12.3,5.8c2.6,2.7,3.9,5.8,3.9,9.4c0,2.1-0.4,4-1.3,5.8
		c-0.9,1.8-1.9,3.3-3.2,4.6c-1.3,1.3-2.7,2.3-4.3,3c-2.2,1.1-4.6,1.6-6.9,1.6s-4.1-0.4-5.2-1.2c-1.1-0.8-1.6-1.7-1.6-2.7
		c0-0.5,0.2-1,0.7-1.4c0.5-0.4,1-0.6,1.7-0.6c0.5,0,1,0.1,1.3,0.2c0.4,0.2,1,0.6,2,1.2c1.5,1,3,1.5,4.5,1.5c2.3,0,4.3-0.9,6-2.6
		c1.7-1.7,2.6-3.8,2.6-6.3c0-2.4-0.8-4.7-2.3-6.8c-1.5-2.1-3.7-3.7-6.4-4.8c-2.1-0.9-5.1-1.4-8.7-1.5l7.6-15.5H243.9z"/>
	<path class="st2" d="M250.1,1294.1c0-4.6,0.7-8.5,2-11.8c1.4-3.3,3.2-5.7,5.5-7.3c1.8-1.3,3.6-1.9,5.4-1.9c3.1,0,5.8,1.6,8.3,4.7
		c3,3.8,4.6,9.1,4.6,15.7c0,4.6-0.7,8.5-2,11.8c-1.3,3.2-3,5.6-5.1,7c-2.1,1.5-4.1,2.2-6,2.2c-3.8,0-7-2.2-9.5-6.7
		C251.1,1304,250.1,1299.4,250.1,1294.1z M255.8,1294.8c0,5.5,0.7,10,2,13.4c1.1,2.9,2.8,4.4,5,4.4c1,0,2.1-0.5,3.3-1.4
		c1.1-0.9,2-2.5,2.6-4.8c0.9-3.4,1.4-8.1,1.4-14.3c0-4.5-0.5-8.3-1.4-11.4c-0.7-2.3-1.6-3.9-2.7-4.8c-0.8-0.7-1.8-1-2.9-1
		c-1.3,0-2.5,0.6-3.6,1.8c-1.4,1.6-2.4,4.2-2.9,7.7C256,1288,255.8,1291.4,255.8,1294.8z"/>
	<path class="st2" d="M285,1277.8l9.7-4.7h0.9v33.7c0,2.2,0.1,3.6,0.3,4.1c0.2,0.5,0.6,1,1.2,1.3c0.6,0.3,1.8,0.5,3.6,0.5v1.1h-15
		v-1.1c1.9,0,3.1-0.2,3.6-0.5c0.5-0.3,0.9-0.7,1.2-1.2c0.2-0.5,0.3-1.9,0.3-4.3v-21.5c0-2.9-0.1-4.8-0.3-5.6
		c-0.1-0.6-0.4-1.1-0.8-1.4c-0.4-0.3-0.8-0.5-1.3-0.5c-0.7,0-1.7,0.3-3,0.9L285,1277.8z"/>
	<path class="st2" d="M314.1,1273.9h21.4v1.1l-13.3,39.6h-3.3l11.9-35.9h-11c-2.2,0-3.8,0.3-4.7,0.8c-1.6,0.9-2.9,2.3-3.9,4.2
		l-0.9-0.3L314.1,1273.9z"/>
	<path class="st2" d="M387.7,1302.7l1,0.2l-3.4,10.8h-30.8v-1.1h1.5c1.7,0,2.9-0.5,3.6-1.6c0.4-0.6,0.6-2.1,0.6-4.3V1281
		c0-2.5-0.3-4.1-0.8-4.7c-0.8-0.9-1.9-1.3-3.4-1.3h-1.5v-1.1h18v1.1c-2.1,0-3.6,0.2-4.5,0.6c-0.9,0.4-1.4,0.9-1.7,1.6
		c-0.3,0.6-0.5,2.1-0.5,4.5v25c0,1.6,0.1,2.8,0.4,3.4c0.2,0.4,0.6,0.7,1.1,0.9c0.5,0.2,2,0.3,4.6,0.3h2.9c3.1,0,5.2-0.2,6.4-0.7
		c1.2-0.5,2.4-1.2,3.4-2.4C385.6,1307,386.6,1305.2,387.7,1302.7z"/>
	<path class="st2" d="M407,1309.9c-2.8,2.1-4.5,3.3-5.2,3.7c-1.1,0.5-2.2,0.7-3.4,0.7c-1.8,0-3.4-0.6-4.6-1.9
		c-1.2-1.3-1.8-2.9-1.8-5c0-1.3,0.3-2.4,0.9-3.4c0.8-1.3,2.2-2.6,4.2-3.8c2-1.2,5.3-2.6,9.9-4.3v-1.1c0-2.7-0.4-4.5-1.3-5.5
		c-0.9-1-2.1-1.5-3.7-1.5c-1.2,0-2.2,0.3-2.9,1c-0.8,0.7-1.1,1.4-1.1,2.3l0.1,1.7c0,0.9-0.2,1.6-0.7,2.1c-0.5,0.5-1.1,0.7-1.8,0.7
		c-0.7,0-1.3-0.3-1.8-0.8c-0.5-0.5-0.7-1.2-0.7-2.1c0-1.7,0.9-3.2,2.6-4.6c1.7-1.4,4.1-2.1,7.3-2.1c2.4,0,4.3,0.4,5.9,1.2
		c1.1,0.6,2,1.6,2.6,2.8c0.3,0.9,0.5,2.6,0.5,5.2v9.1c0,2.6,0,4.1,0.1,4.7c0.1,0.6,0.3,1,0.5,1.2c0.2,0.2,0.5,0.3,0.8,0.3
		c0.3,0,0.6-0.1,0.8-0.2c0.4-0.2,1.2-0.9,2.4-2.1v1.6c-2.2,2.9-4.3,4.4-6.3,4.4c-0.9,0-1.7-0.3-2.3-1
		C407.4,1312.6,407.1,1311.5,407,1309.9z M407,1307.9v-10.3c-2.9,1.2-4.9,2-5.7,2.5c-1.5,0.9-2.6,1.8-3.3,2.7c-0.7,0.9-1,2-1,3.1
		c0,1.4,0.4,2.6,1.3,3.5c0.8,0.9,1.8,1.4,2.9,1.4C402.6,1310.9,404.6,1309.9,407,1307.9z"/>
	<path class="st2" d="M435.9,1286v9.2H435c-0.8-2.9-1.7-4.8-2.9-5.9c-1.2-1-2.7-1.6-4.5-1.6c-1.4,0-2.5,0.4-3.3,1.1
		c-0.9,0.7-1.3,1.5-1.3,2.4c0,1.1,0.3,2,0.9,2.8c0.6,0.8,1.8,1.7,3.7,2.6l4.3,2.1c4,1.9,6,4.5,6,7.7c0,2.4-0.9,4.4-2.8,5.9
		c-1.9,1.5-3.9,2.3-6.2,2.3c-1.6,0-3.5-0.3-5.6-0.9c-0.7-0.2-1.2-0.3-1.6-0.3c-0.4,0-0.8,0.3-1.1,0.8h-0.9v-9.6h0.9
		c0.6,2.8,1.6,4.8,3.2,6.2c1.5,1.4,3.3,2.1,5.2,2.1c1.3,0,2.4-0.4,3.3-1.2c0.9-0.8,1.3-1.7,1.3-2.9c0-1.4-0.5-2.5-1.4-3.4
		c-0.9-0.9-2.8-2.1-5.7-3.5c-2.8-1.4-4.7-2.7-5.6-3.8c-0.9-1.1-1.3-2.5-1.3-4.2c0-2.2,0.8-4.1,2.3-5.5c1.5-1.5,3.5-2.2,5.9-2.2
		c1.1,0,2.4,0.2,3.9,0.7c1,0.3,1.7,0.4,2,0.4s0.6-0.1,0.7-0.2c0.2-0.1,0.4-0.4,0.6-0.9H435.9z"/>
	<path class="st2" d="M467.5,1295.1v11.6c0,2.5,0.3,4.1,0.8,4.7c0.7,0.9,1.8,1.3,3.4,1.3h1.5v1.1h-17.1v-1.1h1.5
		c1.7,0,2.9-0.5,3.6-1.6c0.4-0.6,0.6-2,0.6-4.3V1281c0-2.5-0.3-4.1-0.8-4.7c-0.8-0.9-1.9-1.3-3.4-1.3h-1.5v-1.1h14.6
		c3.6,0,6.4,0.4,8.5,1.1c2.1,0.7,3.8,2,5.2,3.7c1.4,1.7,2.1,3.8,2.1,6.2c0,3.3-1.1,5.9-3.2,7.9c-2.1,2-5.2,3-9.1,3
		c-1,0-2-0.1-3.1-0.2C469.9,1295.6,468.7,1295.4,467.5,1295.1z M467.5,1293.4c1,0.2,2,0.3,2.8,0.4c0.8,0.1,1.5,0.1,2,0.1
		c2,0,3.8-0.8,5.3-2.4c1.5-1.6,2.2-3.6,2.2-6.1c0-1.7-0.4-3.3-1.1-4.8s-1.7-2.6-3-3.3c-1.3-0.7-2.7-1.1-4.4-1.1
		c-1,0-2.3,0.2-3.9,0.5V1293.4z"/>
	<path class="st2" d="M505.7,1309.9c-2.8,2.1-4.5,3.3-5.2,3.7c-1.1,0.5-2.2,0.7-3.4,0.7c-1.8,0-3.4-0.6-4.6-1.9
		c-1.2-1.3-1.8-2.9-1.8-5c0-1.3,0.3-2.4,0.9-3.4c0.8-1.3,2.2-2.6,4.2-3.8c2-1.2,5.3-2.6,9.9-4.3v-1.1c0-2.7-0.4-4.5-1.3-5.5
		c-0.9-1-2.1-1.5-3.7-1.5c-1.2,0-2.2,0.3-2.9,1c-0.8,0.7-1.1,1.4-1.1,2.3l0.1,1.7c0,0.9-0.2,1.6-0.7,2.1c-0.5,0.5-1.1,0.7-1.8,0.7
		s-1.3-0.3-1.8-0.8c-0.5-0.5-0.7-1.2-0.7-2.1c0-1.7,0.9-3.2,2.6-4.6c1.7-1.4,4.1-2.1,7.3-2.1c2.4,0,4.3,0.4,5.9,1.2
		c1.1,0.6,2,1.6,2.6,2.8c0.3,0.9,0.5,2.6,0.5,5.2v9.1c0,2.6,0,4.1,0.1,4.7c0.1,0.6,0.3,1,0.5,1.2c0.2,0.2,0.5,0.3,0.8,0.3
		c0.3,0,0.6-0.1,0.8-0.2c0.4-0.2,1.2-0.9,2.4-2.1v1.6c-2.2,2.9-4.3,4.4-6.3,4.4c-0.9,0-1.7-0.3-2.3-1
		C506,1312.6,505.7,1311.5,505.7,1309.9z M505.7,1307.9v-10.3c-2.9,1.2-4.9,2-5.7,2.5c-1.5,0.9-2.6,1.8-3.3,2.7c-0.7,0.9-1,2-1,3.1
		c0,1.4,0.4,2.6,1.3,3.5c0.8,0.9,1.8,1.4,2.9,1.4C501.3,1310.9,503.3,1309.9,505.7,1307.9z"/>
	<path class="st2" d="M526.4,1271.9v35.7c0,1.7,0.1,2.8,0.4,3.4s0.6,1,1.1,1.2c0.5,0.3,1.5,0.4,2.8,0.4v1.1h-13.2v-1.1
		c1.2,0,2.1-0.1,2.5-0.4c0.5-0.3,0.8-0.7,1-1.3c0.2-0.6,0.4-1.7,0.4-3.4v-24.4c0-3-0.1-4.9-0.2-5.6c-0.1-0.7-0.4-1.2-0.7-1.4
		c-0.3-0.3-0.7-0.4-1.1-0.4c-0.5,0-1.2,0.2-1.9,0.5l-0.5-1.1l8-3.3H526.4z"/>
	<path class="st2" d="M541.9,1291.8c2-2,3.1-3.1,3.5-3.4c0.9-0.7,1.9-1.3,2.9-1.7c1-0.4,2-0.6,3-0.6c1.7,0,3.2,0.5,4.4,1.5
		c1.2,1,2,2.4,2.4,4.3c2-2.4,3.7-3.9,5.1-4.6c1.4-0.7,2.8-1.1,4.3-1.1c1.4,0,2.7,0.4,3.8,1.1c1.1,0.7,2,1.9,2.6,3.6
		c0.4,1.1,0.7,2.9,0.7,5.3v11.6c0,1.7,0.1,2.9,0.4,3.5c0.2,0.4,0.6,0.8,1.1,1.1c0.5,0.3,1.4,0.5,2.6,0.5v1.1h-13.3v-1.1h0.6
		c1.1,0,2-0.2,2.7-0.7c0.4-0.3,0.8-0.8,0.9-1.5c0.1-0.3,0.1-1.3,0.1-2.8v-11.6c0-2.2-0.3-3.7-0.8-4.6c-0.8-1.3-2-1.9-3.7-1.9
		c-1,0-2.1,0.3-3.1,0.8s-2.3,1.5-3.8,2.9l-0.1,0.3l0.1,1.3v12.8c0,1.8,0.1,3,0.3,3.4c0.2,0.5,0.6,0.8,1.2,1.1
		c0.6,0.3,1.5,0.5,2.9,0.5v1.1H549v-1.1c1.5,0,2.5-0.2,3.1-0.5c0.6-0.4,0.9-0.9,1.2-1.6c0.1-0.3,0.1-1.3,0.1-2.9v-11.6
		c0-2.2-0.3-3.8-0.9-4.7c-0.9-1.3-2.1-1.9-3.6-1.9c-1.1,0-2.1,0.3-3.1,0.8c-1.6,0.9-2.9,1.8-3.8,2.9v14.4c0,1.8,0.1,2.9,0.4,3.4
		c0.3,0.5,0.6,0.9,1.1,1.2c0.5,0.3,1.4,0.4,2.9,0.4v1.1H533v-1.1c1.2,0,2.1-0.1,2.6-0.4c0.5-0.3,0.9-0.7,1.1-1.3
		c0.3-0.6,0.4-1.7,0.4-3.4v-10.3c0-3-0.1-4.9-0.3-5.7c-0.1-0.7-0.3-1.1-0.6-1.4c-0.3-0.2-0.7-0.4-1.2-0.4c-0.6,0-1.2,0.1-2,0.4
		l-0.4-1.1l8.1-3.3h1.2V1291.8z"/>
	<path class="st2" d="M596,1309.9c-2.8,2.1-4.5,3.3-5.2,3.7c-1.1,0.5-2.2,0.7-3.4,0.7c-1.8,0-3.4-0.6-4.6-1.9
		c-1.2-1.3-1.8-2.9-1.8-5c0-1.3,0.3-2.4,0.9-3.4c0.8-1.3,2.2-2.6,4.2-3.8c2-1.2,5.3-2.6,9.9-4.3v-1.1c0-2.7-0.4-4.5-1.3-5.5
		c-0.9-1-2.1-1.5-3.7-1.5c-1.2,0-2.2,0.3-2.9,1c-0.8,0.7-1.1,1.4-1.1,2.3l0.1,1.7c0,0.9-0.2,1.6-0.7,2.1c-0.5,0.5-1.1,0.7-1.8,0.7
		c-0.7,0-1.3-0.3-1.8-0.8c-0.5-0.5-0.7-1.2-0.7-2.1c0-1.7,0.9-3.2,2.6-4.6c1.7-1.4,4.1-2.1,7.3-2.1c2.4,0,4.3,0.4,5.9,1.2
		c1.1,0.6,2,1.6,2.6,2.8c0.3,0.9,0.5,2.6,0.5,5.2v9.1c0,2.6,0,4.1,0.1,4.7c0.1,0.6,0.3,1,0.5,1.2c0.2,0.2,0.5,0.3,0.8,0.3
		c0.3,0,0.6-0.1,0.8-0.2c0.4-0.2,1.2-0.9,2.4-2.1v1.6c-2.2,2.9-4.3,4.4-6.3,4.4c-0.9,0-1.7-0.3-2.3-1
		C596.3,1312.6,596,1311.5,596,1309.9z M596,1307.9v-10.3c-2.9,1.2-4.9,2-5.7,2.5c-1.5,0.9-2.6,1.8-3.3,2.7c-0.7,0.9-1,2-1,3.1
		c0,1.4,0.4,2.6,1.3,3.5c0.8,0.9,1.8,1.4,2.9,1.4C591.6,1310.9,593.5,1309.9,596,1307.9z"/>
	<path class="st2" d="M624.8,1286v9.2h-0.9c-0.8-2.9-1.7-4.8-2.9-5.9c-1.2-1-2.7-1.6-4.5-1.6c-1.4,0-2.5,0.4-3.3,1.1
		c-0.9,0.7-1.3,1.5-1.3,2.4c0,1.1,0.3,2,0.9,2.8c0.6,0.8,1.8,1.7,3.7,2.6l4.3,2.1c4,1.9,6,4.5,6,7.7c0,2.4-0.9,4.4-2.8,5.9
		c-1.9,1.5-3.9,2.3-6.2,2.3c-1.6,0-3.5-0.3-5.6-0.9c-0.7-0.2-1.2-0.3-1.6-0.3c-0.4,0-0.8,0.3-1.1,0.8h-0.9v-9.6h0.9
		c0.6,2.8,1.6,4.8,3.2,6.2c1.5,1.4,3.3,2.1,5.2,2.1c1.3,0,2.4-0.4,3.3-1.2c0.9-0.8,1.3-1.7,1.3-2.9c0-1.4-0.5-2.5-1.4-3.4
		c-0.9-0.9-2.8-2.1-5.7-3.5c-2.8-1.4-4.7-2.7-5.6-3.8c-0.9-1.1-1.3-2.5-1.3-4.2c0-2.2,0.8-4.1,2.3-5.5c1.5-1.5,3.5-2.2,5.9-2.2
		c1.1,0,2.4,0.2,3.9,0.7c1,0.3,1.7,0.4,2,0.4c0.3,0,0.6-0.1,0.7-0.2c0.2-0.1,0.4-0.4,0.6-0.9H624.8z"/>
	<path class="st2" d="M664.9,1310.7c-1.3,1.4-2.6,2.3-3.9,3c-1.3,0.6-2.6,0.9-4,0.9c-2.9,0-5.5-1.2-7.7-3.7
		c-2.2-2.5-3.3-5.6-3.3-9.5c0-3.9,1.2-7.4,3.6-10.6c2.4-3.2,5.5-4.8,9.4-4.8c2.4,0,4.3,0.8,5.9,2.3v-5c0-3.1-0.1-5-0.2-5.7
		c-0.1-0.7-0.4-1.2-0.7-1.4c-0.3-0.3-0.7-0.4-1.2-0.4c-0.5,0-1.2,0.2-2,0.5l-0.4-1.1l8-3.3h1.3v31.1c0,3.1,0.1,5.1,0.2,5.8
		c0.1,0.7,0.4,1.2,0.7,1.5c0.3,0.3,0.7,0.4,1.2,0.4c0.5,0,1.2-0.2,2.1-0.5l0.3,1.1l-8,3.3h-1.4V1310.7z M664.9,1308.7v-13.9
		c-0.1-1.3-0.4-2.6-1-3.7c-0.6-1.1-1.4-1.9-2.3-2.5c-1-0.6-1.9-0.8-2.8-0.8c-1.7,0-3.3,0.8-4.6,2.3c-1.8,2-2.7,5-2.7,8.9
		c0,4,0.9,7,2.6,9.1c1.7,2.1,3.7,3.2,5.8,3.2C661.6,1311.3,663.3,1310.5,664.9,1308.7z"/>
	<path class="st2" d="M680.5,1297c0,4,1,7.2,2.9,9.4c2,2.3,4.3,3.4,6.9,3.4c1.8,0,3.3-0.5,4.6-1.4c1.3-1,2.4-2.6,3.3-5l0.9,0.6
		c-0.4,2.7-1.6,5.1-3.6,7.3c-2,2.2-4.5,3.3-7.4,3.3c-3.2,0-6-1.3-8.3-3.8c-2.3-2.5-3.5-5.9-3.5-10.2c0-4.6,1.2-8.2,3.5-10.8
		c2.4-2.6,5.3-3.9,8.9-3.9c3,0,5.5,1,7.4,3c1.9,2,2.9,4.6,2.9,8H680.5z M680.5,1295.3H693c-0.1-1.7-0.3-2.9-0.6-3.7
		c-0.5-1.1-1.2-2-2.2-2.6c-1-0.6-2-0.9-3-0.9c-1.6,0-3.1,0.6-4.4,1.9C681.5,1291.2,680.7,1293,680.5,1295.3z"/>
	<path class="st2" d="M752.8,1273l1,12.6h-1c-1-3.1-2.4-5.5-4-7.1c-2.4-2.3-5.4-3.4-9.2-3.4c-5.1,0-8.9,2-11.6,6
		c-2.2,3.4-3.3,7.4-3.3,12.1c0,3.8,0.7,7.3,2.2,10.4c1.5,3.1,3.4,5.4,5.8,6.9c2.4,1.5,4.8,2.2,7.4,2.2c1.5,0,2.9-0.2,4.3-0.5
		c1.4-0.4,2.7-0.9,4-1.6v-11.5c0-2-0.2-3.3-0.5-3.9s-0.8-1.1-1.4-1.4c-0.6-0.3-1.8-0.5-3.4-0.5v-1.1h15.4v1.1h-0.7
		c-1.5,0-2.6,0.5-3.1,1.5c-0.4,0.7-0.6,2.2-0.6,4.3v12.2c-2.3,1.2-4.5,2.1-6.7,2.7c-2.2,0.6-4.6,0.9-7.3,0.9
		c-7.7,0-13.6-2.5-17.6-7.4c-3-3.7-4.5-8-4.5-12.8c0-3.5,0.8-6.9,2.5-10.1c2-3.8,4.7-6.8,8.3-8.8c2.9-1.7,6.4-2.6,10.3-2.6
		c1.5,0,2.8,0.1,4,0.4c1.2,0.2,2.9,0.8,5,1.6c1.1,0.4,1.8,0.6,2.2,0.6c0.4,0,0.7-0.2,0.9-0.5c0.3-0.3,0.4-1,0.5-2H752.8z"/>
	<path class="st2" d="M769.1,1286v6.1c2.3-4,4.6-6.1,6.9-6.1c1.1,0,2,0.3,2.7,1c0.7,0.7,1,1.4,1,2.3c0,0.8-0.2,1.4-0.7,2
		c-0.5,0.5-1.1,0.8-1.8,0.8c-0.7,0-1.5-0.3-2.3-1c-0.9-0.7-1.5-1-1.9-1c-0.4,0-0.8,0.2-1.2,0.6c-0.9,0.8-1.8,2.1-2.7,3.9v12.9
		c0,1.5,0.2,2.6,0.6,3.4c0.2,0.5,0.7,1,1.3,1.3c0.6,0.4,1.6,0.5,2.8,0.5v1.1h-13.8v-1.1c1.4,0,2.4-0.2,3-0.7c0.5-0.3,0.8-0.8,1-1.5
		c0.1-0.3,0.1-1.3,0.1-2.8v-10.4c0-3.1-0.1-5-0.2-5.6s-0.4-1-0.7-1.3c-0.3-0.3-0.8-0.4-1.3-0.4c-0.6,0-1.3,0.1-2,0.4l-0.3-1.1
		l8.1-3.3H769.1z"/>
	<path class="st2" d="M796.5,1309.9c-2.8,2.1-4.5,3.3-5.2,3.7c-1.1,0.5-2.2,0.7-3.4,0.7c-1.8,0-3.4-0.6-4.6-1.9
		c-1.2-1.3-1.8-2.9-1.8-5c0-1.3,0.3-2.4,0.9-3.4c0.8-1.3,2.2-2.6,4.2-3.8c2-1.2,5.3-2.6,9.9-4.3v-1.1c0-2.7-0.4-4.5-1.3-5.5
		c-0.9-1-2.1-1.5-3.7-1.5c-1.2,0-2.2,0.3-2.9,1c-0.8,0.7-1.1,1.4-1.1,2.3l0.1,1.7c0,0.9-0.2,1.6-0.7,2.1c-0.5,0.5-1.1,0.7-1.8,0.7
		s-1.3-0.3-1.8-0.8c-0.5-0.5-0.7-1.2-0.7-2.1c0-1.7,0.9-3.2,2.6-4.6c1.7-1.4,4.1-2.1,7.3-2.1c2.4,0,4.3,0.4,5.9,1.2
		c1.1,0.6,2,1.6,2.6,2.8c0.3,0.9,0.5,2.6,0.5,5.2v9.1c0,2.6,0,4.1,0.1,4.7c0.1,0.6,0.3,1,0.5,1.2c0.2,0.2,0.5,0.3,0.8,0.3
		c0.3,0,0.6-0.1,0.8-0.2c0.4-0.2,1.2-0.9,2.4-2.1v1.6c-2.2,2.9-4.3,4.4-6.3,4.4c-0.9,0-1.7-0.3-2.3-1
		C796.9,1312.6,796.6,1311.5,796.5,1309.9z M796.5,1307.9v-10.3c-2.9,1.2-4.9,2-5.7,2.5c-1.5,0.9-2.6,1.8-3.3,2.7
		c-0.7,0.9-1,2-1,3.1c0,1.4,0.4,2.6,1.3,3.5c0.8,0.9,1.8,1.4,2.9,1.4C792.1,1310.9,794.1,1309.9,796.5,1307.9z"/>
	<path class="st2" d="M815.8,1291.7c3.2-3.8,6.2-5.7,9.1-5.7c1.5,0,2.7,0.4,3.8,1.1c1.1,0.7,1.9,1.9,2.5,3.6c0.4,1.2,0.6,3,0.6,5.4
		v11.5c0,1.7,0.1,2.9,0.4,3.5c0.2,0.5,0.6,0.9,1,1.2c0.5,0.3,1.4,0.4,2.6,0.4v1.1h-13.3v-1.1h0.6c1.2,0,2.1-0.2,2.6-0.6
		c0.5-0.4,0.8-0.9,1-1.7c0.1-0.3,0.1-1.2,0.1-2.8v-11c0-2.4-0.3-4.2-1-5.3c-0.6-1.1-1.7-1.7-3.2-1.7c-2.3,0-4.7,1.3-7,3.8v14.2
		c0,1.8,0.1,3,0.3,3.4c0.3,0.6,0.7,1,1.1,1.2c0.5,0.3,1.4,0.4,2.9,0.4v1.1h-13.3v-1.1h0.6c1.4,0,2.3-0.3,2.8-1c0.5-0.7,0.7-2,0.7-4
		v-10c0-3.2-0.1-5.2-0.2-5.9c-0.1-0.7-0.4-1.2-0.7-1.4s-0.7-0.4-1.2-0.4c-0.6,0-1.2,0.1-2,0.4l-0.4-1.1l8.1-3.3h1.2V1291.7z"/>
	<path class="st2" d="M887.5,1273l0.9,13.6h-0.9c-1.2-4.1-3-7-5.2-8.8s-5-2.7-8.1-2.7c-2.7,0-5,0.7-7.2,2c-2.1,1.3-3.8,3.5-5,6.4
		c-1.2,2.9-1.8,6.6-1.8,11c0,3.6,0.6,6.7,1.7,9.4c1.2,2.6,2.9,4.7,5.2,6.1c2.3,1.4,5,2.1,7.9,2.1c2.6,0,4.9-0.6,6.9-1.7
		c2-1.1,4.1-3.3,6.5-6.6l0.9,0.6c-2,3.6-4.3,6.2-7,7.8c-2.7,1.6-5.8,2.5-9.5,2.5c-6.6,0-11.7-2.4-15.3-7.3
		c-2.7-3.7-4.1-7.9-4.1-12.9c0-4,0.9-7.6,2.7-11c1.8-3.3,4.2-5.9,7.4-7.8c3.1-1.8,6.5-2.8,10.2-2.8c2.9,0,5.7,0.7,8.5,2.1
		c0.8,0.4,1.4,0.7,1.8,0.7c0.5,0,1-0.2,1.4-0.5c0.5-0.5,0.9-1.3,1.1-2.2H887.5z"/>
	<path class="st2" d="M908.5,1309.9c-2.8,2.1-4.5,3.3-5.2,3.7c-1.1,0.5-2.2,0.7-3.4,0.7c-1.8,0-3.4-0.6-4.6-1.9
		c-1.2-1.3-1.8-2.9-1.8-5c0-1.3,0.3-2.4,0.9-3.4c0.8-1.3,2.2-2.6,4.2-3.8c2-1.2,5.3-2.6,9.9-4.3v-1.1c0-2.7-0.4-4.5-1.3-5.5
		c-0.9-1-2.1-1.5-3.7-1.5c-1.2,0-2.2,0.3-2.9,1c-0.8,0.7-1.1,1.4-1.1,2.3l0.1,1.7c0,0.9-0.2,1.6-0.7,2.1c-0.5,0.5-1.1,0.7-1.8,0.7
		c-0.7,0-1.3-0.3-1.8-0.8c-0.5-0.5-0.7-1.2-0.7-2.1c0-1.7,0.9-3.2,2.6-4.6c1.7-1.4,4.1-2.1,7.3-2.1c2.4,0,4.3,0.4,5.9,1.2
		c1.1,0.6,2,1.6,2.6,2.8c0.3,0.9,0.5,2.6,0.5,5.2v9.1c0,2.6,0,4.1,0.1,4.7c0.1,0.6,0.3,1,0.5,1.2c0.2,0.2,0.5,0.3,0.8,0.3
		c0.3,0,0.6-0.1,0.8-0.2c0.4-0.2,1.2-0.9,2.4-2.1v1.6c-2.2,2.9-4.3,4.4-6.3,4.4c-0.9,0-1.7-0.3-2.3-1
		C908.9,1312.6,908.6,1311.5,908.5,1309.9z M908.5,1307.9v-10.3c-2.9,1.2-4.9,2-5.7,2.5c-1.5,0.9-2.6,1.8-3.3,2.7
		c-0.7,0.9-1,2-1,3.1c0,1.4,0.4,2.6,1.3,3.5c0.8,0.9,1.8,1.4,2.9,1.4C904.1,1310.9,906.1,1309.9,908.5,1307.9z"/>
	<path class="st2" d="M927.8,1291.7c3.2-3.8,6.2-5.7,9.1-5.7c1.5,0,2.7,0.4,3.8,1.1c1.1,0.7,1.9,1.9,2.5,3.6c0.4,1.2,0.6,3,0.6,5.4
		v11.5c0,1.7,0.1,2.9,0.4,3.5c0.2,0.5,0.6,0.9,1,1.2c0.5,0.3,1.4,0.4,2.6,0.4v1.1h-13.3v-1.1h0.6c1.2,0,2.1-0.2,2.6-0.6
		c0.5-0.4,0.8-0.9,1-1.7c0.1-0.3,0.1-1.2,0.1-2.8v-11c0-2.4-0.3-4.2-1-5.3c-0.6-1.1-1.7-1.7-3.2-1.7c-2.3,0-4.7,1.3-7,3.8v14.2
		c0,1.8,0.1,3,0.3,3.4c0.3,0.6,0.7,1,1.1,1.2c0.5,0.3,1.4,0.4,2.9,0.4v1.1h-13.3v-1.1h0.6c1.4,0,2.3-0.3,2.8-1c0.5-0.7,0.7-2,0.7-4
		v-10c0-3.2-0.1-5.2-0.2-5.9c-0.1-0.7-0.4-1.2-0.7-1.4s-0.7-0.4-1.2-0.4c-0.6,0-1.2,0.1-2,0.4l-0.4-1.1l8.1-3.3h1.2V1291.7z"/>
	<path class="st2" d="M965.3,1309.9c-2.8,2.1-4.5,3.3-5.2,3.7c-1.1,0.5-2.2,0.7-3.4,0.7c-1.8,0-3.4-0.6-4.6-1.9
		c-1.2-1.3-1.8-2.9-1.8-5c0-1.3,0.3-2.4,0.9-3.4c0.8-1.3,2.2-2.6,4.2-3.8c2-1.2,5.3-2.6,9.9-4.3v-1.1c0-2.7-0.4-4.5-1.3-5.5
		c-0.9-1-2.1-1.5-3.7-1.5c-1.2,0-2.2,0.3-2.9,1c-0.8,0.7-1.1,1.4-1.1,2.3l0.1,1.7c0,0.9-0.2,1.6-0.7,2.1c-0.5,0.5-1.1,0.7-1.8,0.7
		c-0.7,0-1.3-0.3-1.8-0.8c-0.5-0.5-0.7-1.2-0.7-2.1c0-1.7,0.9-3.2,2.6-4.6c1.7-1.4,4.1-2.1,7.3-2.1c2.4,0,4.3,0.4,5.9,1.2
		c1.1,0.6,2,1.6,2.6,2.8c0.3,0.9,0.5,2.6,0.5,5.2v9.1c0,2.6,0,4.1,0.1,4.7c0.1,0.6,0.3,1,0.5,1.2c0.2,0.2,0.5,0.3,0.8,0.3
		c0.3,0,0.6-0.1,0.8-0.2c0.4-0.2,1.2-0.9,2.4-2.1v1.6c-2.2,2.9-4.3,4.4-6.3,4.4c-0.9,0-1.7-0.3-2.3-1
		C965.7,1312.6,965.4,1311.5,965.3,1309.9z M965.3,1307.9v-10.3c-2.9,1.2-4.9,2-5.7,2.5c-1.5,0.9-2.6,1.8-3.3,2.7
		c-0.7,0.9-1,2-1,3.1c0,1.4,0.4,2.6,1.3,3.5c0.8,0.9,1.8,1.4,2.9,1.4C960.9,1310.9,962.9,1309.9,965.3,1307.9z"/>
	<path class="st2" d="M984.7,1286v6.1c2.3-4,4.6-6.1,6.9-6.1c1.1,0,2,0.3,2.7,1c0.7,0.7,1,1.4,1,2.3c0,0.8-0.2,1.4-0.7,2
		c-0.5,0.5-1.1,0.8-1.8,0.8c-0.7,0-1.5-0.3-2.3-1c-0.9-0.7-1.5-1-1.9-1c-0.4,0-0.8,0.2-1.2,0.6c-0.9,0.8-1.8,2.1-2.7,3.9v12.9
		c0,1.5,0.2,2.6,0.6,3.4c0.2,0.5,0.7,1,1.3,1.3c0.6,0.4,1.6,0.5,2.8,0.5v1.1h-13.8v-1.1c1.4,0,2.4-0.2,3-0.7c0.5-0.3,0.8-0.8,1-1.5
		c0.1-0.3,0.1-1.3,0.1-2.8v-10.4c0-3.1-0.1-5-0.2-5.6s-0.4-1-0.7-1.3c-0.3-0.3-0.8-0.4-1.3-0.4c-0.6,0-1.3,0.1-2,0.4l-0.3-1.1
		l8.1-3.3H984.7z"/>
	<path class="st2" d="M1006.2,1286v21.6c0,1.7,0.1,2.8,0.4,3.4c0.2,0.5,0.6,1,1.1,1.2c0.5,0.3,1.4,0.4,2.6,0.4v1.1h-13.1v-1.1
		c1.3,0,2.2-0.1,2.6-0.4c0.5-0.3,0.8-0.7,1.1-1.3c0.3-0.6,0.4-1.7,0.4-3.4v-10.4c0-2.9-0.1-4.8-0.3-5.7c-0.1-0.6-0.4-1.1-0.7-1.3
		c-0.3-0.2-0.7-0.4-1.2-0.4c-0.5,0-1.2,0.1-2,0.4l-0.4-1.1l8.1-3.3H1006.2z M1003.7,1271.9c0.8,0,1.5,0.3,2.1,0.9
		c0.6,0.6,0.9,1.3,0.9,2.1c0,0.8-0.3,1.5-0.9,2.1c-0.6,0.6-1.3,0.9-2.1,0.9c-0.8,0-1.5-0.3-2.1-0.9c-0.6-0.6-0.9-1.3-0.9-2.1
		c0-0.8,0.3-1.5,0.9-2.1C1002.1,1272.2,1002.9,1271.9,1003.7,1271.9z"/>
	<path class="st2" d="M1028.8,1309.9c-2.8,2.1-4.5,3.3-5.2,3.7c-1.1,0.5-2.2,0.7-3.4,0.7c-1.8,0-3.4-0.6-4.6-1.9
		c-1.2-1.3-1.8-2.9-1.8-5c0-1.3,0.3-2.4,0.9-3.4c0.8-1.3,2.2-2.6,4.2-3.8c2-1.2,5.3-2.6,9.9-4.3v-1.1c0-2.7-0.4-4.5-1.3-5.5
		c-0.9-1-2.1-1.5-3.7-1.5c-1.2,0-2.2,0.3-2.9,1c-0.8,0.7-1.1,1.4-1.1,2.3l0.1,1.7c0,0.9-0.2,1.6-0.7,2.1c-0.5,0.5-1.1,0.7-1.8,0.7
		c-0.7,0-1.3-0.3-1.8-0.8c-0.5-0.5-0.7-1.2-0.7-2.1c0-1.7,0.9-3.2,2.6-4.6c1.7-1.4,4.1-2.1,7.3-2.1c2.4,0,4.3,0.4,5.9,1.2
		c1.1,0.6,2,1.6,2.6,2.8c0.3,0.9,0.5,2.6,0.5,5.2v9.1c0,2.6,0,4.1,0.1,4.7c0.1,0.6,0.3,1,0.5,1.2c0.2,0.2,0.5,0.3,0.8,0.3
		c0.3,0,0.6-0.1,0.8-0.2c0.4-0.2,1.2-0.9,2.4-2.1v1.6c-2.2,2.9-4.3,4.4-6.3,4.4c-0.9,0-1.7-0.3-2.3-1
		C1029.1,1312.6,1028.9,1311.5,1028.8,1309.9z M1028.8,1307.9v-10.3c-2.9,1.2-4.9,2-5.7,2.5c-1.5,0.9-2.6,1.8-3.3,2.7
		c-0.7,0.9-1,2-1,3.1c0,1.4,0.4,2.6,1.3,3.5c0.8,0.9,1.8,1.4,2.9,1.4C1024.4,1310.9,1026.4,1309.9,1028.8,1307.9z"/>
	<path class="st2" d="M1041.7,1323.8v-1.3c2-0.7,3.5-1.7,4.7-3.1s1.7-2.9,1.7-4.5c0-0.4-0.1-0.7-0.3-0.9c-0.1-0.2-0.3-0.3-0.4-0.3
		c-0.2,0-0.7,0.2-1.4,0.6c-0.3,0.2-0.7,0.3-1.1,0.3c-1,0-1.7-0.3-2.3-0.9c-0.6-0.6-0.8-1.4-0.8-2.4c0-1,0.4-1.8,1.1-2.5
		c0.7-0.7,1.6-1,2.7-1c1.3,0,2.5,0.6,3.5,1.7c1,1.1,1.5,2.6,1.5,4.5c0,2-0.7,3.9-2.1,5.6C1046.9,1321.4,1044.7,1322.8,1041.7,1323.8
		z"/>
	<path class="st2" d="M517.2,1392.4l1,0.2l-3.4,10.8h-30.8v-1.1h1.5c1.7,0,2.9-0.5,3.6-1.6c0.4-0.6,0.6-2.1,0.6-4.3v-25.7
		c0-2.5-0.3-4.1-0.8-4.7c-0.8-0.9-1.9-1.3-3.4-1.3h-1.5v-1.1h18v1.1c-2.1,0-3.6,0.2-4.5,0.6c-0.9,0.4-1.4,0.9-1.7,1.6
		c-0.3,0.6-0.5,2.1-0.5,4.5v25c0,1.6,0.1,2.8,0.4,3.4c0.2,0.4,0.6,0.7,1.1,0.9c0.5,0.2,2,0.3,4.6,0.3h2.9c3.1,0,5.2-0.2,6.4-0.7
		c1.2-0.4,2.4-1.2,3.4-2.4C515.1,1396.7,516.1,1394.9,517.2,1392.4z"/>
	<path class="st2" d="M536.5,1399.6c-2.8,2.1-4.5,3.3-5.2,3.7c-1.1,0.5-2.2,0.7-3.4,0.7c-1.8,0-3.4-0.6-4.6-1.9
		c-1.2-1.3-1.8-2.9-1.8-5c0-1.3,0.3-2.4,0.9-3.4c0.8-1.3,2.2-2.6,4.2-3.8c2-1.2,5.3-2.6,9.9-4.3v-1.1c0-2.7-0.4-4.5-1.3-5.5
		c-0.9-1-2.1-1.5-3.7-1.5c-1.2,0-2.2,0.3-2.9,1c-0.8,0.7-1.1,1.4-1.1,2.3l0.1,1.7c0,0.9-0.2,1.6-0.7,2.1c-0.5,0.5-1.1,0.7-1.8,0.7
		c-0.7,0-1.3-0.3-1.8-0.8c-0.5-0.5-0.7-1.2-0.7-2.1c0-1.7,0.9-3.2,2.6-4.6c1.7-1.4,4.1-2.1,7.3-2.1c2.4,0,4.3,0.4,5.9,1.2
		c1.1,0.6,2,1.6,2.6,2.8c0.3,0.9,0.5,2.6,0.5,5.2v9.1c0,2.6,0,4.1,0.1,4.7c0.1,0.6,0.3,1,0.5,1.2c0.2,0.2,0.5,0.3,0.8,0.3
		c0.3,0,0.6-0.1,0.8-0.2c0.4-0.2,1.2-0.9,2.4-2.1v1.6c-2.2,2.9-4.3,4.4-6.3,4.4c-0.9,0-1.7-0.3-2.3-1
		C536.9,1402.3,536.6,1401.2,536.5,1399.6z M536.5,1397.7v-10.3c-2.9,1.2-4.9,2-5.7,2.5c-1.5,0.9-2.6,1.8-3.3,2.7
		c-0.7,0.9-1,2-1,3.1c0,1.4,0.4,2.6,1.3,3.5c0.8,0.9,1.8,1.4,2.9,1.4C532.2,1400.6,534.1,1399.6,536.5,1397.7z"/>
	<path class="st2" d="M565.4,1375.8v9.2h-0.9c-0.8-2.9-1.7-4.8-2.9-5.9c-1.2-1-2.7-1.6-4.5-1.6c-1.4,0-2.5,0.4-3.3,1.1
		c-0.9,0.7-1.3,1.5-1.3,2.4c0,1.1,0.3,2,0.9,2.8c0.6,0.8,1.8,1.7,3.7,2.6l4.3,2.1c4,1.9,6,4.5,6,7.7c0,2.4-0.9,4.4-2.8,5.9
		c-1.9,1.5-3.9,2.3-6.2,2.3c-1.6,0-3.5-0.3-5.6-0.9c-0.7-0.2-1.2-0.3-1.6-0.3c-0.4,0-0.8,0.3-1.1,0.8h-0.9v-9.6h0.9
		c0.6,2.8,1.6,4.8,3.2,6.2c1.5,1.4,3.3,2.1,5.2,2.1c1.3,0,2.4-0.4,3.3-1.2c0.9-0.8,1.3-1.7,1.3-2.9c0-1.4-0.5-2.5-1.4-3.4
		c-0.9-0.9-2.8-2.1-5.7-3.5c-2.8-1.4-4.7-2.7-5.6-3.8c-0.9-1.1-1.3-2.5-1.3-4.2c0-2.2,0.8-4.1,2.3-5.5s3.5-2.2,5.9-2.2
		c1.1,0,2.4,0.2,3.9,0.7c1,0.3,1.7,0.4,2,0.4c0.3,0,0.6-0.1,0.7-0.2c0.2-0.1,0.4-0.4,0.6-0.9H565.4z"/>
	<path class="st2" d="M597,1384.8v11.6c0,2.5,0.3,4.1,0.8,4.7c0.7,0.9,1.8,1.3,3.4,1.3h1.5v1.1h-17.1v-1.1h1.5
		c1.7,0,2.9-0.5,3.6-1.6c0.4-0.6,0.6-2,0.6-4.3v-25.7c0-2.5-0.3-4.1-0.8-4.7c-0.8-0.9-1.9-1.3-3.4-1.3h-1.5v-1.1h14.6
		c3.6,0,6.4,0.4,8.5,1.1c2.1,0.7,3.8,2,5.2,3.7c1.4,1.7,2.1,3.8,2.1,6.2c0,3.3-1.1,5.9-3.2,7.9c-2.1,2-5.2,3-9.1,3
		c-1,0-2-0.1-3.1-0.2C599.4,1385.3,598.2,1385.1,597,1384.8z M597,1383.1c1,0.2,2,0.3,2.8,0.4c0.8,0.1,1.5,0.1,2,0.1
		c2,0,3.8-0.8,5.3-2.4c1.5-1.6,2.2-3.6,2.2-6.1c0-1.7-0.4-3.3-1.1-4.8s-1.7-2.6-3-3.3c-1.3-0.7-2.7-1.1-4.4-1.1
		c-1,0-2.3,0.2-3.9,0.5V1383.1z"/>
	<path class="st2" d="M635.2,1399.6c-2.8,2.1-4.5,3.3-5.2,3.7c-1.1,0.5-2.2,0.7-3.4,0.7c-1.8,0-3.4-0.6-4.6-1.9
		c-1.2-1.3-1.8-2.9-1.8-5c0-1.3,0.3-2.4,0.9-3.4c0.8-1.3,2.2-2.6,4.2-3.8c2-1.2,5.3-2.6,9.9-4.3v-1.1c0-2.7-0.4-4.5-1.3-5.5
		c-0.9-1-2.1-1.5-3.7-1.5c-1.2,0-2.2,0.3-2.9,1c-0.8,0.7-1.1,1.4-1.1,2.3l0.1,1.7c0,0.9-0.2,1.6-0.7,2.1c-0.5,0.5-1.1,0.7-1.8,0.7
		s-1.3-0.3-1.8-0.8c-0.5-0.5-0.7-1.2-0.7-2.1c0-1.7,0.9-3.2,2.6-4.6c1.7-1.4,4.1-2.1,7.3-2.1c2.4,0,4.3,0.4,5.9,1.2
		c1.1,0.6,2,1.6,2.6,2.8c0.3,0.9,0.5,2.6,0.5,5.2v9.1c0,2.6,0,4.1,0.1,4.7c0.1,0.6,0.3,1,0.5,1.2c0.2,0.2,0.5,0.3,0.8,0.3
		c0.3,0,0.6-0.1,0.8-0.2c0.4-0.2,1.2-0.9,2.4-2.1v1.6c-2.2,2.9-4.3,4.4-6.3,4.4c-0.9,0-1.7-0.3-2.3-1
		C635.5,1402.3,635.2,1401.2,635.2,1399.6z M635.2,1397.7v-10.3c-2.9,1.2-4.9,2-5.7,2.5c-1.5,0.9-2.6,1.8-3.3,2.7
		c-0.7,0.9-1,2-1,3.1c0,1.4,0.4,2.6,1.3,3.5c0.8,0.9,1.8,1.4,2.9,1.4C630.8,1400.6,632.8,1399.6,635.2,1397.7z"/>
	<path class="st2" d="M656,1361.7v35.7c0,1.7,0.1,2.8,0.4,3.4s0.6,1,1.1,1.2c0.5,0.3,1.5,0.4,2.8,0.4v1.1h-13.2v-1.1
		c1.2,0,2.1-0.1,2.5-0.4c0.5-0.3,0.8-0.7,1-1.3c0.2-0.6,0.4-1.7,0.4-3.4v-24.4c0-3-0.1-4.9-0.2-5.6c-0.1-0.7-0.4-1.2-0.7-1.4
		s-0.7-0.4-1.1-0.4c-0.5,0-1.2,0.2-1.9,0.5l-0.5-1.1l8-3.3H656z"/>
	<path class="st2" d="M671.4,1381.5c2-2,3.1-3.1,3.5-3.4c0.9-0.7,1.9-1.3,2.9-1.7c1-0.4,2-0.6,3-0.6c1.7,0,3.2,0.5,4.4,1.5
		c1.2,1,2,2.4,2.4,4.3c2-2.4,3.7-3.9,5.1-4.6c1.4-0.7,2.8-1.1,4.3-1.1c1.4,0,2.7,0.4,3.8,1.1c1.1,0.7,2,1.9,2.6,3.6
		c0.4,1.1,0.7,2.9,0.7,5.3v11.6c0,1.7,0.1,2.9,0.4,3.5c0.2,0.4,0.6,0.8,1.1,1.1c0.5,0.3,1.4,0.5,2.6,0.5v1.1h-13.3v-1.1h0.6
		c1.1,0,2-0.2,2.7-0.7c0.4-0.3,0.8-0.8,0.9-1.5c0.1-0.3,0.1-1.3,0.1-2.8v-11.6c0-2.2-0.3-3.7-0.8-4.6c-0.8-1.3-2-1.9-3.7-1.9
		c-1,0-2.1,0.3-3.1,0.8c-1,0.5-2.3,1.5-3.8,2.9l-0.1,0.3l0.1,1.3v12.8c0,1.8,0.1,3,0.3,3.4c0.2,0.5,0.6,0.8,1.2,1.1
		c0.6,0.3,1.5,0.5,2.9,0.5v1.1h-13.6v-1.1c1.5,0,2.5-0.2,3.1-0.5c0.6-0.4,0.9-0.9,1.2-1.6c0.1-0.3,0.1-1.3,0.1-2.9v-11.6
		c0-2.2-0.3-3.8-0.9-4.7c-0.9-1.3-2.1-1.9-3.6-1.9c-1.1,0-2.1,0.3-3.1,0.8c-1.6,0.9-2.9,1.8-3.8,2.9v14.4c0,1.8,0.1,2.9,0.4,3.4
		c0.3,0.5,0.6,0.9,1.1,1.2c0.5,0.3,1.4,0.4,2.9,0.4v1.1h-13.3v-1.1c1.2,0,2.1-0.1,2.6-0.4c0.5-0.3,0.9-0.7,1.1-1.3
		c0.3-0.6,0.4-1.7,0.4-3.4v-10.3c0-3-0.1-4.9-0.3-5.7c-0.1-0.7-0.3-1.1-0.6-1.4c-0.3-0.2-0.7-0.4-1.2-0.4c-0.6,0-1.2,0.1-2,0.4
		l-0.4-1.1l8.1-3.3h1.2V1381.5z"/>
	<path class="st2" d="M725.5,1399.6c-2.8,2.1-4.5,3.3-5.2,3.7c-1.1,0.5-2.2,0.7-3.4,0.7c-1.8,0-3.4-0.6-4.6-1.9
		c-1.2-1.3-1.8-2.9-1.8-5c0-1.3,0.3-2.4,0.9-3.4c0.8-1.3,2.2-2.6,4.2-3.8c2-1.2,5.3-2.6,9.9-4.3v-1.1c0-2.7-0.4-4.5-1.3-5.5
		c-0.9-1-2.1-1.5-3.7-1.5c-1.2,0-2.2,0.3-2.9,1c-0.8,0.7-1.1,1.4-1.1,2.3l0.1,1.7c0,0.9-0.2,1.6-0.7,2.1c-0.5,0.5-1.1,0.7-1.8,0.7
		s-1.3-0.3-1.8-0.8c-0.5-0.5-0.7-1.2-0.7-2.1c0-1.7,0.9-3.2,2.6-4.6c1.7-1.4,4.1-2.1,7.3-2.1c2.4,0,4.3,0.4,5.9,1.2
		c1.1,0.6,2,1.6,2.6,2.8c0.3,0.9,0.5,2.6,0.5,5.2v9.1c0,2.6,0,4.1,0.1,4.7c0.1,0.6,0.3,1,0.5,1.2c0.2,0.2,0.5,0.3,0.8,0.3
		c0.3,0,0.6-0.1,0.8-0.2c0.4-0.2,1.2-0.9,2.4-2.1v1.6c-2.2,2.9-4.3,4.4-6.3,4.4c-0.9,0-1.7-0.3-2.3-1
		C725.8,1402.3,725.5,1401.2,725.5,1399.6z M725.5,1397.7v-10.3c-2.9,1.2-4.9,2-5.7,2.5c-1.5,0.9-2.6,1.8-3.3,2.7
		c-0.7,0.9-1,2-1,3.1c0,1.4,0.4,2.6,1.3,3.5c0.8,0.9,1.8,1.4,2.9,1.4C721.1,1400.6,723,1399.6,725.5,1397.7z"/>
	<path class="st2" d="M754.3,1375.8v9.2h-0.9c-0.8-2.9-1.7-4.8-2.9-5.9c-1.2-1-2.7-1.6-4.5-1.6c-1.4,0-2.5,0.4-3.3,1.1
		c-0.9,0.7-1.3,1.5-1.3,2.4c0,1.1,0.3,2,0.9,2.8c0.6,0.8,1.8,1.7,3.7,2.6l4.3,2.1c4,1.9,6,4.5,6,7.7c0,2.4-0.9,4.4-2.8,5.9
		c-1.9,1.5-3.9,2.3-6.2,2.3c-1.6,0-3.5-0.3-5.6-0.9c-0.7-0.2-1.2-0.3-1.6-0.3c-0.4,0-0.8,0.3-1.1,0.8h-0.9v-9.6h0.9
		c0.6,2.8,1.6,4.8,3.2,6.2c1.5,1.4,3.3,2.1,5.2,2.1c1.3,0,2.4-0.4,3.3-1.2c0.9-0.8,1.3-1.7,1.3-2.9c0-1.4-0.5-2.5-1.4-3.4
		c-0.9-0.9-2.8-2.1-5.7-3.5c-2.8-1.4-4.7-2.7-5.6-3.8c-0.9-1.1-1.3-2.5-1.3-4.2c0-2.2,0.8-4.1,2.3-5.5s3.5-2.2,5.9-2.2
		c1.1,0,2.4,0.2,3.9,0.7c1,0.3,1.7,0.4,2,0.4c0.3,0,0.6-0.1,0.7-0.2c0.2-0.1,0.4-0.4,0.6-0.9H754.3z"/>
</g>
</svg>
