<?xml version="1.0" encoding="utf-8"?>
<!-- Generator: Adobe Illustrator 25.4.1, SVG Export Plug-In . SVG Version: 6.00 Build 0)  -->
<svg version="1.1" id="Capa_1" xmlns="http://www.w3.org/2000/svg" xmlns:xlink="http://www.w3.org/1999/xlink" x="0px" y="0px"
	 viewBox="0 0 1242 2208" style="enable-background:new 0 0 1242 2208;" xml:space="preserve">
<style type="text/css">
	.st0{display:none;}
	.st1{display:inline;}
	.st2{fill:#FFFFFF;}
	.st3{display:inline;enable-background:new    ;}
	.st4{enable-background:new    ;}
</style>
<g id="_x31_5_años" class="st0">
	<g class="st1">
		<path class="st2" d="M516.5,1090c69.7,0,139.3,0,209,0c0,95,0,190,0,285.1c-69.7,0-139.3,0-209,0
			C516.5,1280,516.5,1185,516.5,1090z M611.7,1205.4c0-0.8,0-1.5,0-2.2c0-13.4,0-26.8,0-40.2c0-4.2-1.2-7.9-3.8-11.2
			c-4.4-5.3-10-7.8-16.8-6.4c-9,1.8-14.3,8.7-14.3,17.9c0,21.2,0,42.4,0,63.6c0,1.2-0.3,1.9-1.3,2.6c-3.7,2.3-7.3,4.8-10.9,7.2
			c-11,7.6-16.3,18-15,31.3c0.7,7.2,3.2,13.9,5.8,20.6c6.7,17.3,16.5,32.6,29.6,45.9c0.5,0.6,0.9,1.5,0.9,2.3c0.1,5.7,0,11.3,0,17
			c0,3.4,1.4,4.8,4.8,4.8c8,0,16,0,24,0c18.8,0,37.6,0,56.4,0c3.5,0,4.8-1.3,4.8-4.7c0-5.8,0-11.6,0-17.3c0-0.9,0.3-2,0.8-2.8
			c11-17.5,16.9-36.5,17.4-57.2c0.3-11.6,0.1-23.2,0.1-34.8c0-2.3,0.1-4.6-0.3-6.9c-1.7-9.4-10.4-15.5-19.8-13.8
			c-2.7,0.5-5.3,1.7-8.1,2.6c-1.8-5.2-5.4-9.3-11.1-11.2c-5.7-1.9-11.2-0.9-16.1,2.4C632.2,1202.6,625.1,1200,611.7,1205.4z
			 M549.3,1109.5c-1.7,0.2-2.9,1-3.5,2.4c-0.7,1.5-0.5,3,0.7,4.2c6.8,6.9,13.7,13.7,20.6,20.5c1.7,1.7,3.9,1.6,5.4,0
			c1.5-1.5,1.4-3.8-0.3-5.4c-6.7-6.7-13.5-13.5-20.2-20.1C551.2,1110.3,550.2,1110,549.3,1109.5z M640.1,1109.5
			c-0.9,0.4-1.9,0.7-2.6,1.4c-6.9,6.8-13.8,13.6-20.6,20.5c-1,1.1-1.5,2.3-0.9,3.8c1.1,2.8,4.1,3.3,6.4,1.1c4.3-4.3,8.7-8.6,13-12.9
			c2.5-2.4,4.9-4.9,7.4-7.4c1.2-1.2,1.4-2.7,0.8-4.2C643,1110.5,641.8,1109.8,640.1,1109.5z M598.3,1115.2c0-2.9,0-5.8,0-8.7
			c0-2.4-1.5-4-3.6-4c-2.1-0.1-3.8,1.7-3.8,4c0,5.8,0,11.7,0,17.5c0,2.4,1.7,4,3.8,4s3.6-1.6,3.6-4
			C598.3,1121.1,598.3,1118.2,598.3,1115.2z M548.8,1162.4c2.9,0,5.8,0,8.7,0c2.4,0,4-1.4,4.1-3.5c0.1-2.2-1.5-3.9-3.9-3.9
			c-5.9-0.1-11.8-0.1-17.6,0c-2.4,0-4.1,1.8-4,3.9s1.7,3.5,4.1,3.5C543,1162.5,545.9,1162.4,548.8,1162.4z M640.3,1162.4
			c3,0,6.1,0,9.1,0c2.2,0,3.7-1.4,3.8-3.4c0.1-2.1-1.3-3.9-3.5-3.9c-6.1-0.1-12.2-0.1-18.3,0c-2.2,0-3.8,1.9-3.7,3.8
			c0.1,2.1,1.6,3.5,3.9,3.5C634.5,1162.5,637.4,1162.4,640.3,1162.4z"/>
		<path d="M611.7,1205.4c13.4-5.4,20.4-2.9,27,9.7c5-3.4,10.4-4.4,16.1-2.4c5.7,1.9,9.3,6,11.1,11.2c2.8-0.9,5.4-2.1,8.1-2.6
			c9.3-1.7,18,4.4,19.8,13.8c0.4,2.2,0.3,4.6,0.3,6.9c0,11.6,0.2,23.2-0.1,34.8c-0.5,20.6-6.4,39.7-17.4,57.2
			c-0.5,0.8-0.8,1.9-0.8,2.8c-0.1,5.8,0,11.6,0,17.3c0,3.4-1.4,4.7-4.8,4.7c-18.8,0-37.6,0-56.4,0c-8,0-16,0-24,0
			c-3.4,0-4.8-1.4-4.8-4.8c0-5.7,0-11.3,0-17c0-0.8-0.4-1.8-0.9-2.3c-13-13.2-22.9-28.5-29.6-45.9c-2.6-6.7-5.1-13.5-5.8-20.6
			c-1.3-13.3,3.9-23.8,15-31.3c3.6-2.5,7.2-4.9,10.9-7.2c1-0.7,1.3-1.4,1.3-2.6c0-21.2,0-42.4,0-63.6c0-9.2,5.3-16.1,14.3-17.9
			c6.8-1.4,12.4,1.1,16.8,6.4c2.7,3.2,3.8,7,3.8,11.2c0,13.4,0,26.8,0,40.2C611.7,1203.9,611.7,1204.6,611.7,1205.4z M576.7,1237.6
			c-3.4,2.3-6.7,4.3-9.7,6.5c-6.4,4.8-9.8,11.2-10.3,19.2c-0.3,5,1.2,9.6,2.7,14.3c6.2,20.5,17,38.2,32.3,53.2
			c1.2,1.2,1.7,2.4,1.7,4c0,4.8,0.1,9.7-0.1,14.5c0,1.7,0.4,2.2,2.1,2.2c21.7-0.1,43.4,0,65.1,0c2.6,0,5.1,0,7.8,0
			c0-5.6-0.1-10.9,0.1-16.2c0-1.4,0.5-2.9,1.2-4.1c10.3-15.9,16.2-33.3,16.8-52.2c0.5-13.6,0.3-27.1,0.2-40.7c0-6-4.9-9.6-8.8-9.8
			c-6.9-0.4-11.2,3.9-11.2,10.8c0,4.2,0,8.4,0,12.6c0,2.5-1.7,4-4.1,3.8c-2-0.2-3.3-1.7-3.3-4.1c0-7.3,0-14.6,0-21.9
			c0-1.1-0.1-2.1-0.4-3.1c-1.2-4.7-5.7-7.7-10.7-7.3c-4.6,0.4-8.4,4.3-8.8,9c-0.1,1.6-0.1,3.2-0.1,4.9c0,6.1,0,12.1,0,18.2
			c0,2.9-1.6,4.5-4.1,4.4c-2.1-0.2-3.4-1.7-3.4-4.4c0-10.2,0-20.3,0-30.4c0-2.2-0.4-4.3-1.6-6.2c-2.6-3.9-7-5.3-11.7-3.9
			c-3.8,1.2-6.6,5.1-6.7,9.5c0,9.7,0,19.3,0,28.9c0,1.1,0.1,2.2-0.1,3.4c-0.2,1.9-1.8,3.2-3.7,3.2c-2,0-3.5-1.4-3.7-3.4
			c0-0.5,0-1,0-1.5c0-20.8,0-41.5,0-62.2c0-8.5-0.1-17.1,0-25.6c0.1-6.5-5.3-10.9-10.8-10.3c-5.4,0.5-9.3,4.8-9.3,10.5
			c0,23.8,0,47.7,0,71.5c0,11.7,0,23.3,0,35c0,1-0.2,2-0.7,2.8c-0.8,1.3-2.6,1.8-4.2,1.3c-1.5-0.5-2.5-1.9-2.5-3.8
			c0-6.7,0-13.5,0-20.2C576.7,1245.8,576.7,1241.9,576.7,1237.6z"/>
		<path d="M549.3,1109.5c0.9,0.5,1.9,0.8,2.6,1.5c6.8,6.7,13.5,13.4,20.2,20.1c1.6,1.6,1.7,3.9,0.3,5.4c-1.5,1.6-3.7,1.6-5.4,0
			c-6.9-6.8-13.7-13.7-20.6-20.5c-1.2-1.2-1.4-2.6-0.7-4.2C546.4,1110.4,547.5,1109.7,549.3,1109.5z"/>
		<path d="M640.1,1109.5c1.7,0.2,2.9,0.9,3.5,2.4s0.5,3-0.8,4.2c-2.5,2.5-4.9,4.9-7.4,7.4c-4.3,4.3-8.6,8.6-13,12.9
			c-2.2,2.2-5.3,1.7-6.4-1.1c-0.6-1.5-0.2-2.8,0.9-3.8c6.8-6.9,13.7-13.7,20.6-20.5C638.2,1110.2,639.2,1110,640.1,1109.5z"/>
		<path d="M598.3,1115.2c0,2.9,0,5.8,0,8.7c0,2.4-1.5,4-3.6,4c-2.2,0-3.8-1.6-3.8-4c0-5.8,0-11.7,0-17.5c0-2.4,1.7-4.1,3.8-4
			s3.6,1.6,3.6,4C598.3,1109.4,598.3,1112.3,598.3,1115.2z"/>
		<path d="M548.8,1162.4c-2.9,0-5.8,0-8.7,0c-2.4,0-4-1.4-4.1-3.5s1.6-3.8,4-3.9c5.9-0.1,11.8-0.1,17.6,0c2.4,0,4,1.7,3.9,3.9
			c-0.1,2.1-1.6,3.5-4.1,3.5C554.7,1162.5,551.8,1162.4,548.8,1162.4z"/>
		<path d="M640.3,1162.4c-2.9,0-5.8,0-8.8,0c-2.3,0-3.8-1.4-3.9-3.5c-0.1-2,1.5-3.8,3.7-3.8c6.1-0.1,12.2-0.1,18.3,0
			c2.2,0,3.6,1.8,3.5,3.9s-1.5,3.4-3.8,3.4C646.4,1162.5,643.3,1162.4,640.3,1162.4z"/>
		<path class="st2" d="M576.7,1237.6c0,4.3,0,8.2,0,12.1c0,6.7,0,13.5,0,20.2c0,1.9,1,3.3,2.5,3.8c1.6,0.5,3.4,0.1,4.2-1.3
			c0.5-0.8,0.7-1.9,0.7-2.8c0-11.7,0-23.3,0-35c0-23.8,0-47.7,0-71.5c0-5.7,3.9-10,9.3-10.5c5.5-0.5,10.9,3.8,10.8,10.3
			c-0.1,8.5,0,17.1,0,25.6c0,20.8,0,41.5,0,62.2c0,0.5,0,1,0,1.5c0.2,2,1.7,3.4,3.7,3.4c1.9,0,3.5-1.3,3.7-3.2
			c0.1-1.1,0.1-2.2,0.1-3.4c0-9.7,0-19.3,0-28.9c0-4.4,2.8-8.3,6.7-9.5c4.7-1.4,9.1,0.1,11.7,3.9c1.3,1.9,1.7,4,1.6,6.2
			c0,10.2,0,20.3,0,30.4c0,2.7,1.3,4.2,3.4,4.4c2.5,0.2,4.1-1.5,4.1-4.4c0-6.1,0-12.1,0-18.2c0-1.6,0-3.3,0.1-4.9
			c0.3-4.7,4.1-8.5,8.8-9c5-0.5,9.5,2.6,10.7,7.3c0.3,1,0.4,2.1,0.4,3.1c0,7.3,0,14.6,0,21.9c0,2.4,1.3,3.9,3.3,4.1
			c2.4,0.2,4.1-1.4,4.1-3.8c0-4.2,0-8.4,0-12.6c0-6.9,4.3-11.2,11.2-10.8c4,0.2,8.8,3.9,8.8,9.8c0.1,13.6,0.2,27.2-0.2,40.7
			c-0.6,18.9-6.6,36.3-16.8,52.2c-0.7,1.2-1.2,2.7-1.2,4.1c-0.1,5.3-0.1,10.6-0.1,16.2c-2.7,0-5.3,0-7.8,0c-21.7,0-43.4,0-65.1,0
			c-1.7,0-2.2-0.5-2.1-2.2c0.1-4.8,0-9.7,0.1-14.5c0-1.6-0.5-2.9-1.7-4c-15.2-15-26-32.7-32.3-53.2c-1.4-4.7-3-9.3-2.7-14.3
			c0.5-7.9,3.9-14.4,10.3-19.2C570.1,1241.9,573.3,1239.9,576.7,1237.6z"/>
	</g>
	<g class="st3">
		<path d="M286,1498.3v-35.8h4.7v14.7h18.6v-14.7h4.7v35.8h-4.7v-16.9h-18.6v16.9H286z"/>
		<path d="M338.3,1495.2c-1.6,1.4-3.2,2.4-4.7,2.9c-1.5,0.6-3.1,0.8-4.9,0.8c-2.9,0-5-0.7-6.6-2.1s-2.3-3.2-2.3-5.3
			c0-1.3,0.3-2.4,0.9-3.5s1.3-1.9,2.3-2.5c0.9-0.6,2-1.1,3.2-1.4c0.9-0.2,2.2-0.4,3.9-0.7c3.5-0.4,6.2-0.9,7.8-1.5c0-0.6,0-1,0-1.2
			c0-1.8-0.4-3.1-1.2-3.8c-1.1-1-2.8-1.5-5-1.5c-2.1,0-3.6,0.4-4.6,1.1s-1.7,2-2.2,3.8l-4.3-0.6c0.4-1.8,1-3.3,1.9-4.5
			c0.9-1.1,2.2-2,3.9-2.6s3.6-0.9,5.9-0.9c2.2,0,4,0.3,5.4,0.8s2.4,1.2,3,2s1.1,1.8,1.4,3c0.1,0.8,0.2,2.1,0.2,4.1v5.9
			c0,4.1,0.1,6.7,0.3,7.8s0.6,2.1,1.1,3.1h-4.6C338.7,1497.4,338.4,1496.4,338.3,1495.2z M337.9,1485.3c-1.6,0.7-4,1.2-7.2,1.7
			c-1.8,0.3-3.1,0.6-3.8,0.9s-1.3,0.8-1.7,1.4c-0.4,0.6-0.6,1.3-0.6,2.1c0,1.2,0.4,2.2,1.3,2.9c0.9,0.8,2.2,1.2,3.9,1.2
			c1.7,0,3.2-0.4,4.5-1.1s2.3-1.8,2.9-3c0.5-1,0.7-2.5,0.7-4.4L337.9,1485.3L337.9,1485.3z"/>
		<path d="M346.9,1498.3v-3.6l16.5-18.9c-1.9,0.1-3.5,0.2-5,0.2h-10.6v-3.6H369v2.9l-14,16.5l-2.7,3c2-0.2,3.8-0.2,5.5-0.2h12v3.8
			L346.9,1498.3L346.9,1498.3z"/>
		<path d="M405,1488.8l4.3,0.6c-0.5,3-1.7,5.3-3.6,7c-2,1.7-4.3,2.5-7.2,2.5c-3.5,0-6.4-1.2-8.6-3.5s-3.2-5.6-3.2-10
			c0-2.8,0.5-5.2,1.4-7.3s2.3-3.7,4.2-4.7c1.9-1.1,4-1.6,6.2-1.6c2.8,0,5.1,0.7,6.9,2.1s2.9,3.4,3.4,6.1l-4.3,0.7
			c-0.4-1.7-1.1-3.1-2.2-3.9s-2.3-1.3-3.8-1.3c-2.2,0-4,0.8-5.4,2.4s-2.1,4.1-2.1,7.5c0,3.5,0.7,6,2,7.6s3.1,2.4,5.2,2.4
			c1.7,0,3.2-0.5,4.3-1.6C403.9,1492.7,404.7,1491.1,405,1488.8z"/>
		<path d="M413,1498.3v-35.8h4.4v35.8H413z"/>
		<path d="M424.2,1467.6v-5.1h4.4v5.1H424.2z M424.2,1498.3v-25.9h4.4v25.9H424.2z"/>
		<path d="M452.2,1488.8l4.3,0.6c-0.5,3-1.7,5.3-3.6,7c-2,1.7-4.3,2.5-7.2,2.5c-3.5,0-6.4-1.2-8.6-3.5s-3.2-5.6-3.2-10
			c0-2.8,0.5-5.2,1.4-7.3s2.3-3.7,4.2-4.7c1.9-1.1,4-1.6,6.2-1.6c2.8,0,5.1,0.7,6.9,2.1s2.9,3.4,3.4,6.1l-4.3,0.7
			c-0.4-1.7-1.1-3.1-2.2-3.9s-2.3-1.3-3.8-1.3c-2.2,0-4,0.8-5.4,2.4s-2.1,4.1-2.1,7.5c0,3.5,0.7,6,2,7.6s3.1,2.4,5.2,2.4
			c1.7,0,3.2-0.5,4.3-1.6C451.2,1492.7,451.9,1491.1,452.2,1488.8z"/>
		<path d="M460.3,1498.3v-35.8h4.4v20.4l10.4-10.6h5.7l-9.9,9.6l10.9,16.3h-5.4l-8.6-13.3l-3.1,3v10.3L460.3,1498.3L460.3,1498.3z"
			/>
		<path d="M499,1508.3l-0.5-4.1c1,0.3,1.8,0.4,2.5,0.4c1,0,1.8-0.2,2.3-0.5c0.6-0.3,1.1-0.8,1.4-1.4c0.3-0.4,0.7-1.5,1.3-3.3
			c0.1-0.2,0.2-0.6,0.4-1.1l-9.8-26h4.7l5.4,15c0.7,1.9,1.3,3.9,1.9,6c0.5-2,1.1-4,1.8-5.9l5.5-15.1h4.4l-9.9,26.4
			c-1.1,2.8-1.9,4.8-2.5,5.9c-0.8,1.4-1.7,2.5-2.7,3.2s-2.2,1-3.6,1C501,1508.9,500,1508.7,499,1508.3z"/>
		<path d="M554.9,1498.3v-3.3c-1.6,2.6-4.1,3.9-7.2,3.9c-2.1,0-4-0.6-5.7-1.7s-3.1-2.7-4-4.8s-1.4-4.4-1.4-7s0.4-4.9,1.3-7
			c0.9-2.1,2.2-3.7,3.9-4.8c1.7-1.1,3.7-1.7,5.8-1.7c1.6,0,3,0.3,4.2,1s2.2,1.5,3,2.6v-12.8h4.4v35.8L554.9,1498.3L554.9,1498.3z
			 M541,1485.4c0,3.3,0.7,5.8,2.1,7.4c1.4,1.6,3,2.5,5,2.5c1.9,0,3.5-0.8,4.9-2.4c1.3-1.6,2-4,2-7.2c0-3.6-0.7-6.2-2-7.8
			s-3-2.5-5-2.5s-3.6,0.8-4.9,2.4C541.7,1479.5,541,1482,541,1485.4z"/>
		<path d="M583.6,1490l4.5,0.6c-0.7,2.7-2,4.7-4,6.2c-1.9,1.5-4.4,2.2-7.4,2.2c-3.8,0-6.8-1.2-9-3.5s-3.3-5.6-3.3-9.8
			c0-4.4,1.1-7.8,3.4-10.2s5.2-3.6,8.7-3.6s6.3,1.2,8.5,3.5s3.3,5.7,3.3,10c0,0.3,0,0.7,0,1.2H569c0.2,2.8,1,5,2.4,6.5
			s3.2,2.3,5.4,2.3c1.6,0,3-0.4,4.1-1.3C582,1493.2,583,1491.9,583.6,1490z M569.2,1482.9h14.5c-0.2-2.2-0.8-3.8-1.7-4.9
			c-1.4-1.7-3.2-2.5-5.4-2.5c-2,0-3.7,0.7-5.1,2C570.1,1478.8,569.3,1480.6,569.2,1482.9z"/>
		<path d="M591.9,1490.6l4.3-0.7c0.2,1.7,0.9,3.1,2,4s2.7,1.4,4.7,1.4s3.5-0.4,4.5-1.2c1-0.8,1.5-1.8,1.5-2.9c0-1-0.4-1.8-1.3-2.3
			c-0.6-0.4-2.1-0.9-4.5-1.5c-3.2-0.8-5.5-1.5-6.7-2.1s-2.2-1.4-2.8-2.5s-1-2.2-1-3.5c0-1.2,0.3-2.2,0.8-3.2s1.2-1.8,2.2-2.4
			c0.7-0.5,1.6-0.9,2.8-1.3s2.5-0.5,3.8-0.5c2,0,3.8,0.3,5.4,0.9s2.7,1.4,3.4,2.4s1.2,2.3,1.5,4l-4.3,0.6c-0.2-1.3-0.8-2.4-1.7-3.1
			c-0.9-0.8-2.3-1.1-4-1.1c-2,0-3.5,0.3-4.3,1s-1.3,1.4-1.3,2.3c0,0.6,0.2,1.1,0.5,1.5c0.4,0.5,0.9,0.9,1.7,1.2
			c0.4,0.2,1.7,0.5,3.9,1.1c3.1,0.8,5.3,1.5,6.5,2s2.2,1.3,2.9,2.3s1,2.3,1,3.8s-0.4,2.8-1.3,4.1c-0.8,1.3-2.1,2.3-3.7,3
			s-3.4,1.1-5.5,1.1c-3.4,0-5.9-0.7-7.7-2.1C593.5,1495.4,592.4,1493.4,591.9,1490.6z"/>
		<path d="M618.6,1498.3v-35.8h4.4v35.8H618.6z"/>
		<path d="M629.8,1467.6v-5.1h4.4v5.1H629.8z M629.8,1498.3v-25.9h4.4v25.9H629.8z"/>
		<path d="M638.6,1498.3v-3.6l16.5-18.9c-1.9,0.1-3.5,0.2-5,0.2h-10.6v-3.6h21.2v2.9l-14,16.5l-2.7,3c2-0.2,3.8-0.2,5.5-0.2h12v3.8
			L638.6,1498.3L638.6,1498.3z"/>
		<path d="M682.8,1495.2c-1.6,1.4-3.2,2.4-4.7,2.9s-3.1,0.8-4.8,0.8c-2.8,0-5-0.7-6.6-2.1s-2.3-3.2-2.3-5.3c0-1.3,0.3-2.4,0.9-3.5
			c0.6-1.1,1.3-1.9,2.3-2.5c0.9-0.6,2-1.1,3.2-1.4c0.9-0.2,2.2-0.4,3.9-0.7c3.5-0.4,6.2-0.9,7.8-1.5c0-0.6,0-1,0-1.2
			c0-1.8-0.4-3.1-1.2-3.8c-1.1-1-2.8-1.5-5-1.5c-2.1,0-3.6,0.4-4.6,1.1s-1.7,2-2.2,3.8l-4.3-0.6c0.4-1.8,1-3.3,1.9-4.5
			c0.9-1.1,2.2-2,3.9-2.6s3.7-0.9,5.9-0.9s4,0.3,5.4,0.8s2.4,1.2,3,2c0.7,0.8,1.1,1.8,1.4,3c0.2,0.8,0.2,2.1,0.2,4.1v5.9
			c0,4.1,0.1,6.7,0.3,7.8s0.6,2.1,1.1,3.1h-4.6C683.2,1497.4,682.9,1496.4,682.8,1495.2z M682.5,1485.3c-1.6,0.7-4,1.2-7.2,1.7
			c-1.8,0.3-3.1,0.6-3.8,0.9s-1.3,0.8-1.7,1.4s-0.6,1.3-0.6,2.1c0,1.2,0.4,2.2,1.3,2.9s2.2,1.2,3.9,1.2s3.2-0.4,4.5-1.1
			s2.3-1.8,2.9-3c0.5-1,0.7-2.5,0.7-4.4L682.5,1485.3L682.5,1485.3z"/>
		<path d="M707.6,1498.3v-35.8h4.4v12.8c2-2.4,4.6-3.6,7.8-3.6c1.9,0,3.6,0.4,5,1.1c1.4,0.8,2.4,1.8,3,3.1c0.6,1.3,0.9,3.3,0.9,5.8
			v16.4h-4.4v-16.4c0-2.2-0.5-3.8-1.4-4.8s-2.3-1.5-4-1.5c-1.3,0-2.5,0.3-3.7,1s-2,1.6-2.5,2.8s-0.7,2.8-0.7,4.8v14.2L707.6,1498.3
			L707.6,1498.3z"/>
		<path d="M752.3,1495.2c-1.6,1.4-3.2,2.4-4.7,2.9c-1.5,0.6-3.1,0.8-4.8,0.8c-2.8,0-5-0.7-6.6-2.1s-2.3-3.2-2.3-5.3
			c0-1.3,0.3-2.4,0.9-3.5c0.6-1.1,1.3-1.9,2.3-2.5s2-1.1,3.2-1.4c0.9-0.2,2.2-0.4,3.9-0.7c3.5-0.4,6.2-0.9,7.8-1.5c0-0.6,0-1,0-1.2
			c0-1.8-0.4-3.1-1.2-3.8c-1.1-1-2.8-1.5-5-1.5c-2.1,0-3.6,0.4-4.6,1.1s-1.7,2-2.2,3.8l-4.3-0.6c0.4-1.8,1-3.3,1.9-4.5
			c0.9-1.1,2.2-2,3.9-2.6s3.7-0.9,5.9-0.9s4,0.3,5.4,0.8s2.4,1.2,3,2c0.7,0.8,1.1,1.8,1.4,3c0.2,0.8,0.2,2.1,0.2,4.1v5.9
			c0,4.1,0.1,6.7,0.3,7.8s0.6,2.1,1.1,3.1h-4.6C752.7,1497.4,752.5,1496.4,752.3,1495.2z M752,1485.3c-1.6,0.7-4,1.2-7.2,1.7
			c-1.8,0.3-3.1,0.6-3.8,0.9s-1.3,0.8-1.7,1.4s-0.6,1.3-0.6,2.1c0,1.2,0.4,2.2,1.3,2.9s2.2,1.2,3.9,1.2s3.2-0.4,4.5-1.1
			s2.3-1.8,2.9-3c0.5-1,0.7-2.5,0.7-4.4L752,1485.3L752,1485.3z"/>
		<path d="M780.1,1488.8l4.3,0.6c-0.5,3-1.7,5.3-3.6,7c-2,1.7-4.3,2.5-7.2,2.5c-3.5,0-6.4-1.2-8.6-3.5s-3.2-5.6-3.2-10
			c0-2.8,0.5-5.2,1.4-7.3s2.3-3.7,4.2-4.7c1.9-1.1,4-1.6,6.2-1.6c2.8,0,5.1,0.7,6.9,2.1c1.8,1.4,2.9,3.4,3.4,6.1l-4.3,0.7
			c-0.4-1.7-1.1-3.1-2.2-3.9c-1-0.9-2.3-1.3-3.8-1.3c-2.2,0-4,0.8-5.4,2.4s-2.1,4.1-2.1,7.5c0,3.5,0.7,6,2,7.6s3.1,2.4,5.2,2.4
			c1.7,0,3.2-0.5,4.3-1.6C779.1,1492.7,779.8,1491.1,780.1,1488.8z"/>
		<path d="M788.2,1467.6v-5.1h4.4v5.1H788.2z M788.2,1498.3v-25.9h4.4v25.9H788.2z"/>
		<path d="M816.2,1495.2c-1.6,1.4-3.2,2.4-4.7,2.9c-1.5,0.6-3.1,0.8-4.8,0.8c-2.8,0-5-0.7-6.6-2.1s-2.3-3.2-2.3-5.3
			c0-1.3,0.3-2.4,0.9-3.5c0.6-1.1,1.3-1.9,2.3-2.5s2-1.1,3.2-1.4c0.9-0.2,2.2-0.4,3.9-0.7c3.5-0.4,6.2-0.9,7.8-1.5c0-0.6,0-1,0-1.2
			c0-1.8-0.4-3.1-1.2-3.8c-1.1-1-2.8-1.5-5-1.5c-2.1,0-3.6,0.4-4.6,1.1s-1.7,2-2.2,3.8l-4.3-0.6c0.4-1.8,1-3.3,1.9-4.5
			c0.9-1.1,2.2-2,3.9-2.6s3.7-0.9,5.9-0.9s4,0.3,5.4,0.8s2.4,1.2,3,2c0.7,0.8,1.1,1.8,1.4,3c0.2,0.8,0.2,2.1,0.2,4.1v5.9
			c0,4.1,0.1,6.7,0.3,7.8s0.6,2.1,1.1,3.1h-4.6C816.7,1497.4,816.4,1496.4,816.2,1495.2z M815.9,1485.3c-1.6,0.7-4,1.2-7.2,1.7
			c-1.8,0.3-3.1,0.6-3.8,0.9s-1.3,0.8-1.7,1.4s-0.6,1.3-0.6,2.1c0,1.2,0.4,2.2,1.3,2.9s2.2,1.2,3.9,1.2s3.2-0.4,4.5-1.1
			s2.3-1.8,2.9-3c0.5-1,0.7-2.5,0.7-4.4L815.9,1485.3L815.9,1485.3z"/>
		<path d="M857.9,1495.2c-1.6,1.4-3.2,2.4-4.7,2.9c-1.5,0.6-3.1,0.8-4.8,0.8c-2.8,0-5-0.7-6.6-2.1s-2.3-3.2-2.3-5.3
			c0-1.3,0.3-2.4,0.9-3.5c0.6-1.1,1.3-1.9,2.3-2.5s2-1.1,3.2-1.4c0.9-0.2,2.2-0.4,3.9-0.7c3.5-0.4,6.2-0.9,7.8-1.5c0-0.6,0-1,0-1.2
			c0-1.8-0.4-3.1-1.2-3.8c-1.1-1-2.8-1.5-5-1.5c-2.1,0-3.6,0.4-4.6,1.1s-1.7,2-2.2,3.8l-4.3-0.6c0.4-1.8,1-3.3,1.9-4.5
			c0.9-1.1,2.2-2,3.9-2.6s3.7-0.9,5.9-0.9s4,0.3,5.4,0.8s2.4,1.2,3,2c0.7,0.8,1.1,1.8,1.4,3c0.2,0.8,0.2,2.1,0.2,4.1v5.9
			c0,4.1,0.1,6.7,0.3,7.8s0.6,2.1,1.1,3.1h-4.6C858.4,1497.4,858.1,1496.4,857.9,1495.2z M857.6,1485.3c-1.6,0.7-4,1.2-7.2,1.7
			c-1.8,0.3-3.1,0.6-3.8,0.9s-1.3,0.8-1.7,1.4s-0.6,1.3-0.6,2.1c0,1.2,0.4,2.2,1.3,2.9s2.2,1.2,3.9,1.2s3.2-0.4,4.5-1.1
			s2.3-1.8,2.9-3c0.5-1,0.7-2.5,0.7-4.4L857.6,1485.3L857.6,1485.3z"/>
		<path d="M872.9,1498.3h-4.1v-35.8h4.4v12.8c1.9-2.3,4.2-3.5,7.1-3.5c1.6,0,3.1,0.3,4.5,1c1.4,0.6,2.6,1.6,3.5,2.7
			c0.9,1.2,1.6,2.6,2.2,4.2c0.5,1.6,0.8,3.4,0.8,5.3c0,4.4-1.1,7.9-3.3,10.3s-4.8,3.6-7.9,3.6c-3.1,0-5.5-1.3-7.2-3.8V1498.3
			L872.9,1498.3z M872.8,1485.2c0,3.1,0.4,5.4,1.3,6.7c1.4,2.3,3.2,3.4,5.6,3.4c1.9,0,3.6-0.8,5-2.5s2.1-4.2,2.1-7.5
			c0-3.4-0.7-5.9-2-7.5s-3-2.4-4.9-2.4s-3.6,0.8-5,2.5C873.5,1479.6,872.8,1482,872.8,1485.2z"/>
		<path d="M913.5,1495.2c-1.6,1.4-3.2,2.4-4.7,2.9c-1.5,0.6-3.1,0.8-4.8,0.8c-2.8,0-5-0.7-6.6-2.1s-2.3-3.2-2.3-5.3
			c0-1.3,0.3-2.4,0.9-3.5c0.6-1.1,1.3-1.9,2.3-2.5s2-1.1,3.2-1.4c0.9-0.2,2.2-0.4,3.9-0.7c3.5-0.4,6.2-0.9,7.8-1.5c0-0.6,0-1,0-1.2
			c0-1.8-0.4-3.1-1.2-3.8c-1.1-1-2.8-1.5-5-1.5c-2.1,0-3.6,0.4-4.6,1.1s-1.7,2-2.2,3.8l-4.3-0.6c0.4-1.8,1-3.3,1.9-4.5
			c0.9-1.1,2.2-2,3.9-2.6s3.7-0.9,5.9-0.9s4,0.3,5.4,0.8s2.4,1.2,3,2c0.7,0.8,1.1,1.8,1.4,3c0.2,0.8,0.2,2.1,0.2,4.1v5.9
			c0,4.1,0.1,6.7,0.3,7.8s0.6,2.1,1.1,3.1h-4.6C914,1497.4,913.7,1496.4,913.5,1495.2z M913.2,1485.3c-1.6,0.7-4,1.2-7.2,1.7
			c-1.8,0.3-3.1,0.6-3.8,0.9s-1.3,0.8-1.7,1.4s-0.6,1.3-0.6,2.1c0,1.2,0.4,2.2,1.3,2.9s2.2,1.2,3.9,1.2s3.2-0.4,4.5-1.1
			s2.3-1.8,2.9-3c0.5-1,0.7-2.5,0.7-4.4L913.2,1485.3L913.2,1485.3z"/>
		<path d="M918.8,1508.4l0.8-3.7c0.9,0.2,1.6,0.3,2.1,0.3c0.9,0,1.6-0.3,2-0.9s0.7-2.1,0.7-4.5v-27.2h4.4v27.3
			c0,3.2-0.4,5.4-1.2,6.7c-1.1,1.6-2.8,2.4-5.3,2.4C921.1,1508.9,920,1508.7,918.8,1508.4z M924.4,1467.7v-5.1h4.4v5.1H924.4z"/>
		<path d="M933.9,1485.4c0-4.8,1.3-8.4,4-10.7c2.2-1.9,5-2.9,8.2-2.9c3.6,0,6.5,1.2,8.7,3.5s3.4,5.6,3.4,9.7c0,3.3-0.5,6-1.5,7.9
			s-2.5,3.4-4.4,4.5s-4,1.6-6.3,1.6c-3.6,0-6.6-1.2-8.8-3.5C935,1493.1,933.9,1489.8,933.9,1485.4z M938.4,1485.4
			c0,3.3,0.7,5.8,2.2,7.5s3.3,2.5,5.5,2.5s4-0.8,5.4-2.5c1.5-1.7,2.2-4.2,2.2-7.6c0-3.2-0.7-5.6-2.2-7.3s-3.3-2.5-5.4-2.5
			c-2.2,0-4,0.8-5.5,2.5C939.2,1479.6,938.4,1482.1,938.4,1485.4z"/>
	</g>
	<g class="st1">
		<path d="M227,907.4c17.5,14.1,43.1-11.6,44.6-26.8c0.3-0.1,0.8,18.2-12.8,27.3c-28.7,19.6-51.2-7.9-35.7-31.1
			c5.8-8.8,29.6-27.2,74.5-21.5c42.3,5.4,53.6,3,63.6,0.1c18.5-5.4,25.1-15.6,25.1-15.6c-14.7,26.2-60.9,24.6-84.7,20.4
			C226.1,846.8,209.1,892.8,227,907.4z M280.7,930.5c-10.3,27-23.5,44.6-32.5,50.3s-14.7,2-14.7,2s14.7-2.9,28.1-27.7
			c15.5-28.5,31.9-77.5,37.2-87c4.3-7.9,5.7-4.1,5.7-4.1C309.3,866.9,293.8,896.4,280.7,930.5z"/>
		<path d="M306,937.1c-2.2,10.5,3.5,14.5,9.5,12.1c10.1-3.9,19.6-26,26.6-25.8c-6.9,6.4-7.5,8.4-12.2,14.5c-6.3,8-12.8,15-20.5,14.1
			c-10.2-1.1-11.4-13.9-8.8-19.8c2.7-6.3,8.2-13.3,16.7-13.9c7.1-0.4,9.8,6.3,3,12c-4.1,3.4-10.1,5-14,5.7
			C306.3,936.3,306,936.9,306,937.1z M311.9,933.2c11-3.7,12.9-12,7.2-10.6c0,0-9,1.1-12.4,12C308,934.3,309.9,933.9,311.9,933.2z"
			/>
		<path d="M347.6,927.8c0.1,4.5-1.4,6.7-3.8,11.8c5.7-8.2,18.9-21.2,27.9-23.7c5.2-1.4,7.5,3.4,7.1,6.9c-0.7,5.3-15.8,26-17.7,33.6
			c-2.7,11.3,4.3,7.6,6.5,6c6.5-4.9,18.8-26.9,24.3-33.3c6.8-7.9,9.4-5.3,9.4-5.3c-10.7,2.6-23.8,37.2-35.7,42
			c-3.5,1.5-9,0.5-10.6-5.2c-3.1-11.4,17.5-37.8,18.2-41.7c0.7-4.5-12.5,3.5-21.7,14.1c-6.3,7.2-9.5,12.6-12.2,16.9
			c-0.5,1-3.7,1-5-1.4c-0.5-1-2.2-3.1,2.9-13.5c5.6-11.3,3.3-10.9,3.3-10.9C341.5,922.5,347.5,923.4,347.6,927.8z"/>
		<path d="M402.6,947.9c5.3-1.5,9.5-1.2,12.6,0.3c12.9-8.3,20.4-13.9,26.5-24.7c-1.4,8.7-11.7,17.3-24.9,25.8
			c5.8,3.9,7.2,12.6,5.8,19.7c-2.6,12.8-10.2,23.7-24.3,32.5c-10.6,6.7-24.9,8.3-30.3,4.5c-14.1-9.8,6.1-31.5,21.2-41.3
			c9.4-6.1,17-10.9,23.4-14.8c-2.3-1-5.3-1.4-9.2-0.4c-6.4,1.5-10.7,3.3-10.7,3.3S397.1,949.2,402.6,947.9z M390.8,965.8
			c-32.6,21.5-32.1,48.1-5.4,35.9c30.2-14,34.4-35.2,32.9-44.3c-0.4-2.4-1.5-5-3.8-6.7C407,955.6,398.7,960.5,390.8,965.8z
			 M415.8,921.7c0.7,0.4,1.5,1.1,1.9,2.3c2.3,6.9-5.8,17.5-15.5,22.8c-8.8,4.9-14.7,2.9-16-4.6c-2.2-12.1,12-21.5,18.5-23.2
			c2.9-0.8,5-1,6.8-1C415.8,918.1,417.1,920.4,415.8,921.7z M397.3,930.3c-7.1,7.5-8.6,16.6-3,16.2c5.7-0.4,11.8-4.6,17.3-11.3
			c4.3-5.4,4.1-11,2.9-13.2C412,922.1,404.1,923.3,397.3,930.3z"/>
		<path d="M443,915.9c6.1-0.1,11,3.5,11,13.2c0,2.9-0.7,6.8-1.8,10.6c1.9-0.8,3.9-2,6-3.7c8.2-6.5,10.1-13,14.3-12.6
			c-4.5,3.4-8.3,11.3-15.9,15.9c-1.5,1-3.1,1.6-4.9,2.2c-3,9.1-8.8,18.2-15.5,17.9c-9.5-0.3-10.2-12.8-5.7-21.6
			c0.5-1.1,1.1-2.2,1.6-3.1C426.6,924.2,435.5,916.1,443,915.9z M436.6,939.9c-1.4,2.4-2.4,4.9-3.1,7.3c-1.8,6.7,1.6,13.9,7.5,8.7
			c2.9-2.6,6.1-7.9,8.4-13.9C444.9,942.9,440.3,942.4,436.6,939.9z M441,923.4c3.7-0.5,4.1,3,3.8,5c0,0.1-3.9,4.3-7.2,9.8
			c3.1,2.4,7.6,3.4,12.5,2.2c2.9-8.2,3.7-17-1.1-20.9c-6.4-5.4-14,0.8-15.4,5.4c-0.7,2.6-0.7,5.2,0,7.3
			C437,926.7,439.9,923.6,441,923.4z"/>
		<path d="M518.2,923.6c4.9-1.1,7.6,1.8,2.4,11.6c-4.8,9.1,0.1,12.5,5.4,8.3c6.1-4.9,12.6-16,14.8-18.5c3.7-4.2,5.8-2.2,6.5,1.4
			c1.1,4.9-2.2,7.1-8.4,20.9c-5.7,12.5,1.6,14.3,9.1,5.6c12-14,15.1-27.9,23.8-29.2c-7.3,3.5-7.2,10.6-20.1,27.6
			c-3.5,4.6-10.2,12.6-17.3,6.8c-9-7.5,3.8-24.9,3.4-26.2c0,0-2.3,5.6-9.1,11.6c-7.2,6.4-13.6,3-15.5-1.2
			C511,937,516.5,931.4,518.2,923.6z"/>
		<path d="M576.5,927.8c0.1,4.5-1.4,6.7-3.8,11.8c5.7-8.2,18.9-21.2,27.9-23.7c5.2-1.4,7.5,3.4,7.1,6.9c-0.7,5.3-15.8,26-17.7,33.6
			c-2.7,11.3,4.3,7.6,6.5,6c6.5-4.9,18.8-26.9,24.3-33.3c6.8-7.9,9.4-5.3,9.4-5.3c-10.7,2.6-23.8,37.2-35.7,42
			c-3.5,1.5-9,0.5-10.6-5.2c-3.1-11.4,17.5-37.8,18.2-41.7c0.7-4.5-12.5,3.5-21.7,14.1c-6.3,7.2-9.5,12.6-12.2,16.9
			c-0.5,1-3.7,1-5-1.4c-0.5-1-2.2-3.1,2.9-13.5c5.6-11.3,3.3-10.9,3.3-10.9C570.4,922.5,576.4,923.4,576.5,927.8z"/>
		<path d="M645.5,955.6c7.7-11.4,17.3-30.9,23.9-32.4c-6.8,7.7-8.6,11.3-12.5,17.5c-7.5,12.1-11.6,20.3-15.9,19.6
			c-4.9-0.8-9.4-7.2-4.3-20.9c0.1-0.5,0.4-1.1,0.5-1.6c-5.6,6.8-10.9,13.3-16,7.5c-5.3-6-0.1-16.7,4.8-21.2
			c3.5-3.3,10.2-6.1,17.3-4.3c7.9,2,1.9,2,1.9,2s-10.1-2.2-17.3,9.4c-5.3,8.6-2.3,16.3,1.9,12.4c2.3-2.2,7.3-8.6,11.3-13.6
			c2-3.3,4.2-7.2,6.3-7.2c2-0.1,7.1,0.5,2.6,6.3C637.5,945,637.2,967.7,645.5,955.6z"/>
		<path d="M722.6,927.8c0.1,4.5-1.4,6.7-3.8,11.8c5.7-8.2,18.9-21.2,27.9-23.7c5.2-1.4,7.5,3.4,7.1,6.9c-0.7,5.3-15.8,26-17.7,33.6
			c-2.7,11.3,4.3,7.6,6.5,6c6.5-4.9,18.8-26.9,24.3-33.3c6.8-7.9,9.4-5.3,9.4-5.3c-10.7,2.6-23.8,37.2-35.7,42
			c-3.5,1.5-9,0.5-10.6-5.2c-3.1-11.4,17.5-37.8,18.2-41.7c0.7-4.5-12.5,3.5-21.7,14.1c-6.3,7.2-9.5,12.6-12.2,16.9
			c-0.5,1-3.7,1-5-1.4c-0.5-1-2.2-3.1,2.9-13.5c5.6-11.3,3.3-10.9,3.3-10.9C716.5,922.5,722.5,923.4,722.6,927.8z"/>
		<path d="M775.8,915.9c6.1-0.1,11,3.5,11,13.2c0,2.9-0.7,6.8-1.8,10.6c1.9-0.8,3.9-2,6-3.7c8.2-6.5,10.1-13,14.3-12.6
			c-4.5,3.4-8.3,11.3-15.9,15.9c-1.5,1-3.1,1.6-4.9,2.2c-3,9.1-8.8,18.2-15.5,17.9c-9.5-0.3-10.2-12.8-5.7-21.6
			c0.5-1.1,1.1-2.2,1.6-3.1C759.3,924.2,768.3,916.1,775.8,915.9z M769.4,939.9c-1.4,2.4-2.4,4.9-3.1,7.3c-1.8,6.7,1.6,13.9,7.5,8.7
			c2.9-2.6,6.1-7.9,8.4-13.9C777.7,942.9,773,942.4,769.4,939.9z M773.7,923.4c3.7-0.5,4.1,3,3.8,5c0,0.1-3.9,4.3-7.2,9.8
			c3.1,2.4,7.6,3.4,12.5,2.2c2.9-8.2,3.7-17-1.1-20.9c-6.4-5.4-14,0.8-15.4,5.4c-0.7,2.6-0.7,5.2,0,7.3
			C769.8,926.7,772.6,923.6,773.7,923.4z"/>
		<path d="M771.5,870.8c-3.4,2.3-6.3,6.8-2.6,10.5c6.5,6.5,25.3,5.8,47.6,3.5c5.7-10.6,8.8-13.5,8.8-13.5c1.4-2.2,5.8,2.7,4.5,5
			c-1.5,2.4-3,4.9-4.5,7.5c31-3.7,66.1-9.4,83.5-4.1c6.5,2,9,4.3,8.3,7.6c-0.3,1.8-2.2,2.9-3,1.1c-0.7-1.5,2.9-5-6.1-7.6
			c-17.9-5-52.7,0.8-83.6,4.5c-9,15.4-18.3,34.8-26.1,62.3c-5.6,19.7-0.5,28.7,8.4,17.4c10.1-12.6,19.7-39.8,30.4-41.6
			c-8.6,7.6-11.6,13.3-19.6,28.3c-11.3,21.2-17.7,22.4-22.2,18.8c-5.7-4.6-8.7-16.4,6.1-53.1c5.7-14,10.5-24.1,14.1-31
			c-22.4,2.3-41.3,2.7-48.1-4.5c-3.4-3.7-2-10.1,2.4-13C771.4,867.8,775.1,868.5,771.5,870.8z"/>
		<path d="M846.4,939.6c-6.3,8.3-11.1,13.5-16.4,11.8c-8.4-2.7-1.4-23.8,4.6-27.7c2.7-1.4,4.1,0.1,3.7,2.3
			c-0.5,3.4-4.2,8.4-5.7,14.4c-1.1,4.5-2.4,9.7,1,9.2c4.2-0.4,12-12.4,17.4-19c4.5-5.6,5.8-7.2,8.7-7.2
			C855.5,925.5,852.1,932.1,846.4,939.6z M839.9,918c-1.6-0.5-1.8-1.5-0.5-3.8c1.4-2.6,0.5-3.1,2.7-4.3c1.5-0.8,6.4-0.3,4.8,3.1
			C845.1,916.6,841.8,918.5,839.9,918z"/>
		<path d="M855.5,934c-3.5,4.8-6.1,10.6-4.5,17.4c0.7,3.3,5.7,5.6,11.6,1.8c11.3-7.3,21.5-25.4,30.2-29.8
			c-6.3,5.2-12.9,16-22.7,25.6c-9,8.7-15.6,10.9-21.2,6.3c-6.5-5.4-4.3-18.8,1.1-25.4c6.3-7.7,13.9-11.8,20.9-9.8
			c7.5,2,4.8,8.3,2.6,11.4c-2.2,3.1-5.3,6-8.3,3.5s1.1-5,1.9-4.8c0.8,0.3,3.5,0,5.4-2.2c2.6-2.9,0.4-5.2-2.9-4.6
			C867.6,923.7,861.9,925.5,855.5,934z"/>
		<path d="M901.6,939.6c-6.3,8.3-11.1,13.5-16.4,11.8c-8.4-2.7-1.4-23.8,4.6-27.7c2.7-1.4,4.1,0.1,3.7,2.3
			c-0.5,3.4-4.2,8.4-5.7,14.4c-1.1,4.5-2.4,9.7,1,9.2c4.2-0.4,12-12.4,17.4-19c4.5-5.6,5.8-7.2,8.7-7.2
			C910.7,925.5,907.3,932.1,901.6,939.6z M895.1,918c-1.6-0.5-1.8-1.5-0.5-3.8c1.4-2.6,0.5-3.1,2.7-4.3c1.5-0.8,6.4-0.3,4.8,3.1
			C900.3,916.6,897,918.5,895.1,918z"/>
		<path d="M930.6,955.6c7.7-11.4,17.3-30.9,23.9-32.4c-6.8,7.7-8.6,11.3-12.5,17.5c-7.5,12.1-11.6,20.3-15.9,19.6
			c-4.9-0.8-9.4-7.2-4.3-20.9c0.1-0.5,0.4-1.1,0.5-1.6c-5.6,6.8-10.9,13.3-16,7.5c-5.3-6-0.1-16.7,4.8-21.2
			c3.5-3.3,10.2-6.1,17.3-4.3c7.9,2,1.9,2,1.9,2s-10.1-2.2-17.3,9.4c-5.3,8.6-2.3,16.3,1.9,12.4c2.3-2.2,7.3-8.6,11.3-13.6
			c2-3.3,4.2-7.2,6.3-7.2c2-0.1,7.1,0.5,2.6,6.3C922.5,945,922.3,967.7,930.6,955.6z"/>
		<path d="M962.8,950.1c-1.8,1.8-4.3,1.2-4.8-1c-0.4-2.3,0.1-4.3,2.7-4.3C963.9,944.8,964.5,948.3,962.8,950.1z"/>
		<path d="M984.8,950.1c-1.8,1.8-4.3,1.2-4.8-1c-0.4-2.3,0.1-4.3,2.7-4.3C985.9,944.8,986.6,948.3,984.8,950.1z"/>
		<path d="M1006.8,950.1c-1.8,1.8-4.3,1.2-4.8-1c-0.4-2.3,0.1-4.3,2.7-4.3C1007.9,944.8,1008.6,948.3,1006.8,950.1z"/>
		<path d="M1028.8,950.1c-1.8,1.8-4.3,1.2-4.8-1c-0.4-2.3,0.1-4.3,2.7-4.3C1029.9,944.8,1030.6,948.3,1028.8,950.1z"/>
	</g>
</g>
<g>
	<path class="st2" d="M516.5,1090c69.7,0,139.3,0,209,0c0,95,0,190,0,285.1c-69.7,0-139.3,0-209,0C516.5,1280,516.5,1185,516.5,1090
		z M611.7,1205.4c0-0.8,0-1.5,0-2.2c0-13.4,0-26.8,0-40.2c0-4.2-1.2-7.9-3.8-11.2c-4.4-5.3-10-7.8-16.8-6.4
		c-9,1.8-14.3,8.7-14.3,17.9c0,21.2,0,42.4,0,63.6c0,1.2-0.3,1.9-1.3,2.6c-3.7,2.3-7.3,4.8-10.9,7.2c-11,7.6-16.3,18-15,31.3
		c0.7,7.2,3.2,13.9,5.8,20.6c6.7,17.3,16.5,32.6,29.6,45.9c0.5,0.6,0.9,1.5,0.9,2.3c0.1,5.7,0,11.3,0,17c0,3.4,1.4,4.8,4.8,4.8
		c8,0,16,0,24,0c18.8,0,37.6,0,56.4,0c3.5,0,4.8-1.3,4.8-4.7c0-5.8,0-11.6,0-17.3c0-0.9,0.3-2,0.8-2.8c11-17.5,16.9-36.5,17.4-57.2
		c0.3-11.6,0.1-23.2,0.1-34.8c0-2.3,0.1-4.6-0.3-6.9c-1.7-9.4-10.4-15.5-19.8-13.8c-2.7,0.5-5.3,1.7-8.1,2.6
		c-1.8-5.2-5.4-9.3-11.1-11.2c-5.7-1.9-11.2-0.9-16.1,2.4C632.2,1202.6,625.1,1200,611.7,1205.4z M549.3,1109.5
		c-1.7,0.2-2.9,1-3.5,2.4c-0.7,1.5-0.5,3,0.7,4.2c6.8,6.9,13.7,13.7,20.6,20.5c1.7,1.7,3.9,1.6,5.4,0c1.5-1.5,1.4-3.8-0.3-5.4
		c-6.7-6.7-13.5-13.5-20.2-20.1C551.2,1110.3,550.2,1110,549.3,1109.5z M640.1,1109.5c-0.9,0.4-1.9,0.7-2.6,1.4
		c-6.9,6.8-13.8,13.6-20.6,20.5c-1,1.1-1.5,2.3-0.9,3.8c1.1,2.8,4.1,3.3,6.4,1.1c4.3-4.3,8.7-8.6,13-12.9c2.5-2.4,4.9-4.9,7.4-7.4
		c1.2-1.2,1.4-2.7,0.8-4.2C643,1110.5,641.8,1109.8,640.1,1109.5z M598.3,1115.2c0-2.9,0-5.8,0-8.7c0-2.4-1.5-4-3.6-4
		c-2.1-0.1-3.8,1.7-3.8,4c0,5.8,0,11.7,0,17.5c0,2.4,1.7,4,3.8,4s3.6-1.6,3.6-4C598.3,1121.1,598.3,1118.2,598.3,1115.2z
		 M548.8,1162.4c2.9,0,5.8,0,8.7,0c2.4,0,4-1.4,4.1-3.5c0.1-2.2-1.5-3.9-3.9-3.9c-5.9-0.1-11.8-0.1-17.6,0c-2.4,0-4.1,1.8-4,3.9
		s1.7,3.5,4.1,3.5C543,1162.5,545.9,1162.4,548.8,1162.4z M640.3,1162.4c3,0,6.1,0,9.1,0c2.2,0,3.7-1.4,3.8-3.4
		c0.1-2.1-1.3-3.9-3.5-3.9c-6.1-0.1-12.2-0.1-18.3,0c-2.2,0-3.8,1.9-3.7,3.8c0.1,2.1,1.6,3.5,3.9,3.5
		C634.5,1162.5,637.4,1162.4,640.3,1162.4z"/>
	<path d="M611.7,1205.4c13.4-5.4,20.4-2.9,27,9.7c5-3.4,10.4-4.4,16.1-2.4c5.7,1.9,9.3,6,11.1,11.2c2.8-0.9,5.4-2.1,8.1-2.6
		c9.3-1.7,18,4.4,19.8,13.8c0.4,2.2,0.3,4.6,0.3,6.9c0,11.6,0.2,23.2-0.1,34.8c-0.5,20.6-6.4,39.7-17.4,57.2
		c-0.5,0.8-0.8,1.9-0.8,2.8c-0.1,5.8,0,11.6,0,17.3c0,3.4-1.4,4.7-4.8,4.7c-18.8,0-37.6,0-56.4,0c-8,0-16,0-24,0
		c-3.4,0-4.8-1.4-4.8-4.8c0-5.7,0-11.3,0-17c0-0.8-0.4-1.8-0.9-2.3c-13-13.2-22.9-28.5-29.6-45.9c-2.6-6.7-5.1-13.5-5.8-20.6
		c-1.3-13.3,3.9-23.8,15-31.3c3.6-2.5,7.2-4.9,10.9-7.2c1-0.7,1.3-1.4,1.3-2.6c0-21.2,0-42.4,0-63.6c0-9.2,5.3-16.1,14.3-17.9
		c6.8-1.4,12.4,1.1,16.8,6.4c2.7,3.2,3.8,7,3.8,11.2c0,13.4,0,26.8,0,40.2C611.7,1203.9,611.7,1204.6,611.7,1205.4z M576.7,1237.6
		c-3.4,2.3-6.7,4.3-9.7,6.5c-6.4,4.8-9.8,11.2-10.3,19.2c-0.3,5,1.2,9.6,2.7,14.3c6.2,20.5,17,38.2,32.3,53.2c1.2,1.2,1.7,2.4,1.7,4
		c0,4.8,0.1,9.7-0.1,14.5c0,1.7,0.4,2.2,2.1,2.2c21.7-0.1,43.4,0,65.1,0c2.6,0,5.1,0,7.8,0c0-5.6-0.1-10.9,0.1-16.2
		c0-1.4,0.5-2.9,1.2-4.1c10.3-15.9,16.2-33.3,16.8-52.2c0.5-13.6,0.3-27.1,0.2-40.7c0-6-4.9-9.6-8.8-9.8
		c-6.9-0.4-11.2,3.9-11.2,10.8c0,4.2,0,8.4,0,12.6c0,2.5-1.7,4-4.1,3.8c-2-0.2-3.3-1.7-3.3-4.1c0-7.3,0-14.6,0-21.9
		c0-1.1-0.1-2.1-0.4-3.1c-1.2-4.7-5.7-7.7-10.7-7.3c-4.6,0.4-8.4,4.3-8.8,9c-0.1,1.6-0.1,3.2-0.1,4.9c0,6.1,0,12.1,0,18.2
		c0,2.9-1.6,4.5-4.1,4.4c-2.1-0.2-3.4-1.7-3.4-4.4c0-10.2,0-20.3,0-30.4c0-2.2-0.4-4.3-1.6-6.2c-2.6-3.9-7-5.3-11.7-3.9
		c-3.8,1.2-6.6,5.1-6.7,9.5c0,9.7,0,19.3,0,28.9c0,1.1,0.1,2.2-0.1,3.4c-0.2,1.9-1.8,3.2-3.7,3.2c-2,0-3.5-1.4-3.7-3.4
		c0-0.5,0-1,0-1.5c0-20.8,0-41.5,0-62.2c0-8.5-0.1-17.1,0-25.6c0.1-6.5-5.3-10.9-10.8-10.3c-5.4,0.5-9.3,4.8-9.3,10.5
		c0,23.8,0,47.7,0,71.5c0,11.7,0,23.3,0,35c0,1-0.2,2-0.7,2.8c-0.8,1.3-2.6,1.8-4.2,1.3c-1.5-0.5-2.5-1.9-2.5-3.8
		c0-6.7,0-13.5,0-20.2C576.7,1245.8,576.7,1241.9,576.7,1237.6z"/>
	<path d="M549.3,1109.5c0.9,0.5,1.9,0.8,2.6,1.5c6.8,6.7,13.5,13.4,20.2,20.1c1.6,1.6,1.7,3.9,0.3,5.4c-1.5,1.6-3.7,1.6-5.4,0
		c-6.9-6.8-13.7-13.7-20.6-20.5c-1.2-1.2-1.4-2.6-0.7-4.2C546.4,1110.4,547.5,1109.7,549.3,1109.5z"/>
	<path d="M640.1,1109.5c1.7,0.2,2.9,0.9,3.5,2.4s0.5,3-0.8,4.2c-2.5,2.5-4.9,4.9-7.4,7.4c-4.3,4.3-8.6,8.6-13,12.9
		c-2.2,2.2-5.3,1.7-6.4-1.1c-0.6-1.5-0.2-2.8,0.9-3.8c6.8-6.9,13.7-13.7,20.6-20.5C638.2,1110.2,639.2,1110,640.1,1109.5z"/>
	<path d="M598.3,1115.2c0,2.9,0,5.8,0,8.7c0,2.4-1.5,4-3.6,4c-2.2,0-3.8-1.6-3.8-4c0-5.8,0-11.7,0-17.5c0-2.4,1.7-4.1,3.8-4
		s3.6,1.6,3.6,4C598.3,1109.4,598.3,1112.3,598.3,1115.2z"/>
	<path d="M548.8,1162.4c-2.9,0-5.8,0-8.7,0c-2.4,0-4-1.4-4.1-3.5s1.6-3.8,4-3.9c5.9-0.1,11.8-0.1,17.6,0c2.4,0,4,1.7,3.9,3.9
		c-0.1,2.1-1.6,3.5-4.1,3.5C554.7,1162.5,551.8,1162.4,548.8,1162.4z"/>
	<path d="M640.3,1162.4c-2.9,0-5.8,0-8.8,0c-2.3,0-3.8-1.4-3.9-3.5c-0.1-2,1.5-3.8,3.7-3.8c6.1-0.1,12.2-0.1,18.3,0
		c2.2,0,3.6,1.8,3.5,3.9s-1.5,3.4-3.8,3.4C646.4,1162.5,643.3,1162.4,640.3,1162.4z"/>
	<path class="st2" d="M576.7,1237.6c0,4.3,0,8.2,0,12.1c0,6.7,0,13.5,0,20.2c0,1.9,1,3.3,2.5,3.8c1.6,0.5,3.4,0.1,4.2-1.3
		c0.5-0.8,0.7-1.9,0.7-2.8c0-11.7,0-23.3,0-35c0-23.8,0-47.7,0-71.5c0-5.7,3.9-10,9.3-10.5c5.5-0.5,10.9,3.8,10.8,10.3
		c-0.1,8.5,0,17.1,0,25.6c0,20.8,0,41.5,0,62.2c0,0.5,0,1,0,1.5c0.2,2,1.7,3.4,3.7,3.4c1.9,0,3.5-1.3,3.7-3.2
		c0.1-1.1,0.1-2.2,0.1-3.4c0-9.7,0-19.3,0-28.9c0-4.4,2.8-8.3,6.7-9.5c4.7-1.4,9.1,0.1,11.7,3.9c1.3,1.9,1.7,4,1.6,6.2
		c0,10.2,0,20.3,0,30.4c0,2.7,1.3,4.2,3.4,4.4c2.5,0.2,4.1-1.5,4.1-4.4c0-6.1,0-12.1,0-18.2c0-1.6,0-3.3,0.1-4.9
		c0.3-4.7,4.1-8.5,8.8-9c5-0.5,9.5,2.6,10.7,7.3c0.3,1,0.4,2.1,0.4,3.1c0,7.3,0,14.6,0,21.9c0,2.4,1.3,3.9,3.3,4.1
		c2.4,0.2,4.1-1.4,4.1-3.8c0-4.2,0-8.4,0-12.6c0-6.9,4.3-11.2,11.2-10.8c4,0.2,8.8,3.9,8.8,9.8c0.1,13.6,0.2,27.2-0.2,40.7
		c-0.6,18.9-6.6,36.3-16.8,52.2c-0.7,1.2-1.2,2.7-1.2,4.1c-0.1,5.3-0.1,10.6-0.1,16.2c-2.7,0-5.3,0-7.8,0c-21.7,0-43.4,0-65.1,0
		c-1.7,0-2.2-0.5-2.1-2.2c0.1-4.8,0-9.7,0.1-14.5c0-1.6-0.5-2.9-1.7-4c-15.2-15-26-32.7-32.3-53.2c-1.4-4.7-3-9.3-2.7-14.3
		c0.5-7.9,3.9-14.4,10.3-19.2C570.1,1241.9,573.3,1239.9,576.7,1237.6z"/>
</g>
<g class="st4">
	<path d="M286,1498.3v-35.8h4.7v14.7h18.6v-14.7h4.7v35.8h-4.7v-16.9h-18.6v16.9H286z"/>
	<path d="M338.3,1495.2c-1.6,1.4-3.2,2.4-4.7,2.9c-1.5,0.6-3.1,0.8-4.9,0.8c-2.9,0-5-0.7-6.6-2.1s-2.3-3.2-2.3-5.3
		c0-1.3,0.3-2.4,0.9-3.5s1.3-1.9,2.3-2.5c0.9-0.6,2-1.1,3.2-1.4c0.9-0.2,2.2-0.4,3.9-0.7c3.5-0.4,6.2-0.9,7.8-1.5c0-0.6,0-1,0-1.2
		c0-1.8-0.4-3.1-1.2-3.8c-1.1-1-2.8-1.5-5-1.5c-2.1,0-3.6,0.4-4.6,1.1s-1.7,2-2.2,3.8l-4.3-0.6c0.4-1.8,1-3.3,1.9-4.5
		c0.9-1.1,2.2-2,3.9-2.6s3.6-0.9,5.9-0.9c2.2,0,4,0.3,5.4,0.8s2.4,1.2,3,2s1.1,1.8,1.4,3c0.1,0.8,0.2,2.1,0.2,4.1v5.9
		c0,4.1,0.1,6.7,0.3,7.8s0.6,2.1,1.1,3.1h-4.6C338.7,1497.4,338.4,1496.4,338.3,1495.2z M337.9,1485.3c-1.6,0.7-4,1.2-7.2,1.7
		c-1.8,0.3-3.1,0.6-3.8,0.9s-1.3,0.8-1.7,1.4c-0.4,0.6-0.6,1.3-0.6,2.1c0,1.2,0.4,2.2,1.3,2.9c0.9,0.8,2.2,1.2,3.9,1.2
		c1.7,0,3.2-0.4,4.5-1.1s2.3-1.8,2.9-3c0.5-1,0.7-2.5,0.7-4.4L337.9,1485.3L337.9,1485.3z"/>
	<path d="M346.9,1498.3v-3.6l16.5-18.9c-1.9,0.1-3.5,0.2-5,0.2h-10.6v-3.6H369v2.9l-14,16.5l-2.7,3c2-0.2,3.8-0.2,5.5-0.2h12v3.8
		L346.9,1498.3L346.9,1498.3z"/>
	<path d="M405,1488.8l4.3,0.6c-0.5,3-1.7,5.3-3.6,7c-2,1.7-4.3,2.5-7.2,2.5c-3.5,0-6.4-1.2-8.6-3.5s-3.2-5.6-3.2-10
		c0-2.8,0.5-5.2,1.4-7.3s2.3-3.7,4.2-4.7c1.9-1.1,4-1.6,6.2-1.6c2.8,0,5.1,0.7,6.9,2.1s2.9,3.4,3.4,6.1l-4.3,0.7
		c-0.4-1.7-1.1-3.1-2.2-3.9s-2.3-1.3-3.8-1.3c-2.2,0-4,0.8-5.4,2.4s-2.1,4.1-2.1,7.5c0,3.5,0.7,6,2,7.6s3.1,2.4,5.2,2.4
		c1.7,0,3.2-0.5,4.3-1.6C403.9,1492.7,404.7,1491.1,405,1488.8z"/>
	<path d="M413,1498.3v-35.8h4.4v35.8H413z"/>
	<path d="M424.2,1467.6v-5.1h4.4v5.1H424.2z M424.2,1498.3v-25.9h4.4v25.9H424.2z"/>
	<path d="M452.2,1488.8l4.3,0.6c-0.5,3-1.7,5.3-3.6,7c-2,1.7-4.3,2.5-7.2,2.5c-3.5,0-6.4-1.2-8.6-3.5s-3.2-5.6-3.2-10
		c0-2.8,0.5-5.2,1.4-7.3s2.3-3.7,4.2-4.7c1.9-1.1,4-1.6,6.2-1.6c2.8,0,5.1,0.7,6.9,2.1s2.9,3.4,3.4,6.1l-4.3,0.7
		c-0.4-1.7-1.1-3.1-2.2-3.9s-2.3-1.3-3.8-1.3c-2.2,0-4,0.8-5.4,2.4s-2.1,4.1-2.1,7.5c0,3.5,0.7,6,2,7.6s3.1,2.4,5.2,2.4
		c1.7,0,3.2-0.5,4.3-1.6C451.2,1492.7,451.9,1491.1,452.2,1488.8z"/>
	<path d="M460.3,1498.3v-35.8h4.4v20.4l10.4-10.6h5.7l-9.9,9.6l10.9,16.3h-5.4l-8.6-13.3l-3.1,3v10.3L460.3,1498.3L460.3,1498.3z"/>
	<path d="M499,1508.3l-0.5-4.1c1,0.3,1.8,0.4,2.5,0.4c1,0,1.8-0.2,2.3-0.5c0.6-0.3,1.1-0.8,1.4-1.4c0.3-0.4,0.7-1.5,1.3-3.3
		c0.1-0.2,0.2-0.6,0.4-1.1l-9.8-26h4.7l5.4,15c0.7,1.9,1.3,3.9,1.9,6c0.5-2,1.1-4,1.8-5.9l5.5-15.1h4.4l-9.9,26.4
		c-1.1,2.8-1.9,4.8-2.5,5.9c-0.8,1.4-1.7,2.5-2.7,3.2s-2.2,1-3.6,1C501,1508.9,500,1508.7,499,1508.3z"/>
	<path d="M554.9,1498.3v-3.3c-1.6,2.6-4.1,3.9-7.2,3.9c-2.1,0-4-0.6-5.7-1.7s-3.1-2.7-4-4.8s-1.4-4.4-1.4-7s0.4-4.9,1.3-7
		c0.9-2.1,2.2-3.7,3.9-4.8c1.7-1.1,3.7-1.7,5.8-1.7c1.6,0,3,0.3,4.2,1s2.2,1.5,3,2.6v-12.8h4.4v35.8L554.9,1498.3L554.9,1498.3z
		 M541,1485.4c0,3.3,0.7,5.8,2.1,7.4c1.4,1.6,3,2.5,5,2.5c1.9,0,3.5-0.8,4.9-2.4c1.3-1.6,2-4,2-7.2c0-3.6-0.7-6.2-2-7.8
		s-3-2.5-5-2.5s-3.6,0.8-4.9,2.4C541.7,1479.5,541,1482,541,1485.4z"/>
	<path d="M583.6,1490l4.5,0.6c-0.7,2.7-2,4.7-4,6.2c-1.9,1.5-4.4,2.2-7.4,2.2c-3.8,0-6.8-1.2-9-3.5s-3.3-5.6-3.3-9.8
		c0-4.4,1.1-7.8,3.4-10.2s5.2-3.6,8.7-3.6s6.3,1.2,8.5,3.5s3.3,5.7,3.3,10c0,0.3,0,0.7,0,1.2H569c0.2,2.8,1,5,2.4,6.5
		s3.2,2.3,5.4,2.3c1.6,0,3-0.4,4.1-1.3C582,1493.2,583,1491.9,583.6,1490z M569.2,1482.9h14.5c-0.2-2.2-0.8-3.8-1.7-4.9
		c-1.4-1.7-3.2-2.5-5.4-2.5c-2,0-3.7,0.7-5.1,2C570.1,1478.8,569.3,1480.6,569.2,1482.9z"/>
	<path d="M591.9,1490.6l4.3-0.7c0.2,1.7,0.9,3.1,2,4s2.7,1.4,4.7,1.4s3.5-0.4,4.5-1.2c1-0.8,1.5-1.8,1.5-2.9c0-1-0.4-1.8-1.3-2.3
		c-0.6-0.4-2.1-0.9-4.5-1.5c-3.2-0.8-5.5-1.5-6.7-2.1s-2.2-1.4-2.8-2.5s-1-2.2-1-3.5c0-1.2,0.3-2.2,0.8-3.2s1.2-1.8,2.2-2.4
		c0.7-0.5,1.6-0.9,2.8-1.3s2.5-0.5,3.8-0.5c2,0,3.8,0.3,5.4,0.9s2.7,1.4,3.4,2.4s1.2,2.3,1.5,4l-4.3,0.6c-0.2-1.3-0.8-2.4-1.7-3.1
		c-0.9-0.8-2.3-1.1-4-1.1c-2,0-3.5,0.3-4.3,1s-1.3,1.4-1.3,2.3c0,0.6,0.2,1.1,0.5,1.5c0.4,0.5,0.9,0.9,1.7,1.2
		c0.4,0.2,1.7,0.5,3.9,1.1c3.1,0.8,5.3,1.5,6.5,2s2.2,1.3,2.9,2.3s1,2.3,1,3.8s-0.4,2.8-1.3,4.1c-0.8,1.3-2.1,2.3-3.7,3
		s-3.4,1.1-5.5,1.1c-3.4,0-5.9-0.7-7.7-2.1C593.5,1495.4,592.4,1493.4,591.9,1490.6z"/>
	<path d="M618.6,1498.3v-35.8h4.4v35.8H618.6z"/>
	<path d="M629.8,1467.6v-5.1h4.4v5.1H629.8z M629.8,1498.3v-25.9h4.4v25.9H629.8z"/>
	<path d="M638.6,1498.3v-3.6l16.5-18.9c-1.9,0.1-3.5,0.2-5,0.2h-10.6v-3.6h21.2v2.9l-14,16.5l-2.7,3c2-0.2,3.8-0.2,5.5-0.2h12v3.8
		L638.6,1498.3L638.6,1498.3z"/>
	<path d="M682.8,1495.2c-1.6,1.4-3.2,2.4-4.7,2.9s-3.1,0.8-4.8,0.8c-2.8,0-5-0.7-6.6-2.1s-2.3-3.2-2.3-5.3c0-1.3,0.3-2.4,0.9-3.5
		c0.6-1.1,1.3-1.9,2.3-2.5c0.9-0.6,2-1.1,3.2-1.4c0.9-0.2,2.2-0.4,3.9-0.7c3.5-0.4,6.2-0.9,7.8-1.5c0-0.6,0-1,0-1.2
		c0-1.8-0.4-3.1-1.2-3.8c-1.1-1-2.8-1.5-5-1.5c-2.1,0-3.6,0.4-4.6,1.1s-1.7,2-2.2,3.8l-4.3-0.6c0.4-1.8,1-3.3,1.9-4.5
		c0.9-1.1,2.2-2,3.9-2.6s3.7-0.9,5.9-0.9s4,0.3,5.4,0.8s2.4,1.2,3,2c0.7,0.8,1.1,1.8,1.4,3c0.2,0.8,0.2,2.1,0.2,4.1v5.9
		c0,4.1,0.1,6.7,0.3,7.8s0.6,2.1,1.1,3.1h-4.6C683.2,1497.4,682.9,1496.4,682.8,1495.2z M682.5,1485.3c-1.6,0.7-4,1.2-7.2,1.7
		c-1.8,0.3-3.1,0.6-3.8,0.9s-1.3,0.8-1.7,1.4s-0.6,1.3-0.6,2.1c0,1.2,0.4,2.2,1.3,2.9s2.2,1.2,3.9,1.2s3.2-0.4,4.5-1.1
		s2.3-1.8,2.9-3c0.5-1,0.7-2.5,0.7-4.4L682.5,1485.3L682.5,1485.3z"/>
	<path d="M707.6,1498.3v-35.8h4.4v12.8c2-2.4,4.6-3.6,7.8-3.6c1.9,0,3.6,0.4,5,1.1c1.4,0.8,2.4,1.8,3,3.1c0.6,1.3,0.9,3.3,0.9,5.8
		v16.4h-4.4v-16.4c0-2.2-0.5-3.8-1.4-4.8s-2.3-1.5-4-1.5c-1.3,0-2.5,0.3-3.7,1s-2,1.6-2.5,2.8s-0.7,2.8-0.7,4.8v14.2L707.6,1498.3
		L707.6,1498.3z"/>
	<path d="M752.3,1495.2c-1.6,1.4-3.2,2.4-4.7,2.9c-1.5,0.6-3.1,0.8-4.8,0.8c-2.8,0-5-0.7-6.6-2.1s-2.3-3.2-2.3-5.3
		c0-1.3,0.3-2.4,0.9-3.5c0.6-1.1,1.3-1.9,2.3-2.5s2-1.1,3.2-1.4c0.9-0.2,2.2-0.4,3.9-0.7c3.5-0.4,6.2-0.9,7.8-1.5c0-0.6,0-1,0-1.2
		c0-1.8-0.4-3.1-1.2-3.8c-1.1-1-2.8-1.5-5-1.5c-2.1,0-3.6,0.4-4.6,1.1s-1.7,2-2.2,3.8l-4.3-0.6c0.4-1.8,1-3.3,1.9-4.5
		c0.9-1.1,2.2-2,3.9-2.6s3.7-0.9,5.9-0.9s4,0.3,5.4,0.8s2.4,1.2,3,2c0.7,0.8,1.1,1.8,1.4,3c0.2,0.8,0.2,2.1,0.2,4.1v5.9
		c0,4.1,0.1,6.7,0.3,7.8s0.6,2.1,1.1,3.1h-4.6C752.7,1497.4,752.5,1496.4,752.3,1495.2z M752,1485.3c-1.6,0.7-4,1.2-7.2,1.7
		c-1.8,0.3-3.1,0.6-3.8,0.9s-1.3,0.8-1.7,1.4s-0.6,1.3-0.6,2.1c0,1.2,0.4,2.2,1.3,2.9s2.2,1.2,3.9,1.2s3.2-0.4,4.5-1.1
		s2.3-1.8,2.9-3c0.5-1,0.7-2.5,0.7-4.4L752,1485.3L752,1485.3z"/>
	<path d="M780.1,1488.8l4.3,0.6c-0.5,3-1.7,5.3-3.6,7c-2,1.7-4.3,2.5-7.2,2.5c-3.5,0-6.4-1.2-8.6-3.5s-3.2-5.6-3.2-10
		c0-2.8,0.5-5.2,1.4-7.3s2.3-3.7,4.2-4.7c1.9-1.1,4-1.6,6.2-1.6c2.8,0,5.1,0.7,6.9,2.1c1.8,1.4,2.9,3.4,3.4,6.1l-4.3,0.7
		c-0.4-1.7-1.1-3.1-2.2-3.9c-1-0.9-2.3-1.3-3.8-1.3c-2.2,0-4,0.8-5.4,2.4s-2.1,4.1-2.1,7.5c0,3.5,0.7,6,2,7.6s3.1,2.4,5.2,2.4
		c1.7,0,3.2-0.5,4.3-1.6C779.1,1492.7,779.8,1491.1,780.1,1488.8z"/>
	<path d="M788.2,1467.6v-5.1h4.4v5.1H788.2z M788.2,1498.3v-25.9h4.4v25.9H788.2z"/>
	<path d="M816.2,1495.2c-1.6,1.4-3.2,2.4-4.7,2.9c-1.5,0.6-3.1,0.8-4.8,0.8c-2.8,0-5-0.7-6.6-2.1s-2.3-3.2-2.3-5.3
		c0-1.3,0.3-2.4,0.9-3.5c0.6-1.1,1.3-1.9,2.3-2.5s2-1.1,3.2-1.4c0.9-0.2,2.2-0.4,3.9-0.7c3.5-0.4,6.2-0.9,7.8-1.5c0-0.6,0-1,0-1.2
		c0-1.8-0.4-3.1-1.2-3.8c-1.1-1-2.8-1.5-5-1.5c-2.1,0-3.6,0.4-4.6,1.1s-1.7,2-2.2,3.8l-4.3-0.6c0.4-1.8,1-3.3,1.9-4.5
		c0.9-1.1,2.2-2,3.9-2.6s3.7-0.9,5.9-0.9s4,0.3,5.4,0.8s2.4,1.2,3,2c0.7,0.8,1.1,1.8,1.4,3c0.2,0.8,0.2,2.1,0.2,4.1v5.9
		c0,4.1,0.1,6.7,0.3,7.8s0.6,2.1,1.1,3.1h-4.6C816.7,1497.4,816.4,1496.4,816.2,1495.2z M815.9,1485.3c-1.6,0.7-4,1.2-7.2,1.7
		c-1.8,0.3-3.1,0.6-3.8,0.9s-1.3,0.8-1.7,1.4s-0.6,1.3-0.6,2.1c0,1.2,0.4,2.2,1.3,2.9s2.2,1.2,3.9,1.2s3.2-0.4,4.5-1.1
		s2.3-1.8,2.9-3c0.5-1,0.7-2.5,0.7-4.4L815.9,1485.3L815.9,1485.3z"/>
	<path d="M857.9,1495.2c-1.6,1.4-3.2,2.4-4.7,2.9c-1.5,0.6-3.1,0.8-4.8,0.8c-2.8,0-5-0.7-6.6-2.1s-2.3-3.2-2.3-5.3
		c0-1.3,0.3-2.4,0.9-3.5c0.6-1.1,1.3-1.9,2.3-2.5s2-1.1,3.2-1.4c0.9-0.2,2.2-0.4,3.9-0.7c3.5-0.4,6.2-0.9,7.8-1.5c0-0.6,0-1,0-1.2
		c0-1.8-0.4-3.1-1.2-3.8c-1.1-1-2.8-1.5-5-1.5c-2.1,0-3.6,0.4-4.6,1.1s-1.7,2-2.2,3.8l-4.3-0.6c0.4-1.8,1-3.3,1.9-4.5
		c0.9-1.1,2.2-2,3.9-2.6s3.7-0.9,5.9-0.9s4,0.3,5.4,0.8s2.4,1.2,3,2c0.7,0.8,1.1,1.8,1.4,3c0.2,0.8,0.2,2.1,0.2,4.1v5.9
		c0,4.1,0.1,6.7,0.3,7.8s0.6,2.1,1.1,3.1h-4.6C858.4,1497.4,858.1,1496.4,857.9,1495.2z M857.6,1485.3c-1.6,0.7-4,1.2-7.2,1.7
		c-1.8,0.3-3.1,0.6-3.8,0.9s-1.3,0.8-1.7,1.4s-0.6,1.3-0.6,2.1c0,1.2,0.4,2.2,1.3,2.9s2.2,1.2,3.9,1.2s3.2-0.4,4.5-1.1
		s2.3-1.8,2.9-3c0.5-1,0.7-2.5,0.7-4.4L857.6,1485.3L857.6,1485.3z"/>
	<path d="M872.9,1498.3h-4.1v-35.8h4.4v12.8c1.9-2.3,4.2-3.5,7.1-3.5c1.6,0,3.1,0.3,4.5,1c1.4,0.6,2.6,1.6,3.5,2.7
		c0.9,1.2,1.6,2.6,2.2,4.2c0.5,1.6,0.8,3.4,0.8,5.3c0,4.4-1.1,7.9-3.3,10.3s-4.8,3.6-7.9,3.6c-3.1,0-5.5-1.3-7.2-3.8V1498.3
		L872.9,1498.3z M872.8,1485.2c0,3.1,0.4,5.4,1.3,6.7c1.4,2.3,3.2,3.4,5.6,3.4c1.9,0,3.6-0.8,5-2.5s2.1-4.2,2.1-7.5
		c0-3.4-0.7-5.9-2-7.5s-3-2.4-4.9-2.4s-3.6,0.8-5,2.5C873.5,1479.6,872.8,1482,872.8,1485.2z"/>
	<path d="M913.5,1495.2c-1.6,1.4-3.2,2.4-4.7,2.9c-1.5,0.6-3.1,0.8-4.8,0.8c-2.8,0-5-0.7-6.6-2.1s-2.3-3.2-2.3-5.3
		c0-1.3,0.3-2.4,0.9-3.5c0.6-1.1,1.3-1.9,2.3-2.5s2-1.1,3.2-1.4c0.9-0.2,2.2-0.4,3.9-0.7c3.5-0.4,6.2-0.9,7.8-1.5c0-0.6,0-1,0-1.2
		c0-1.8-0.4-3.1-1.2-3.8c-1.1-1-2.8-1.5-5-1.5c-2.1,0-3.6,0.4-4.6,1.1s-1.7,2-2.2,3.8l-4.3-0.6c0.4-1.8,1-3.3,1.9-4.5
		c0.9-1.1,2.2-2,3.9-2.6s3.7-0.9,5.9-0.9s4,0.3,5.4,0.8s2.4,1.2,3,2c0.7,0.8,1.1,1.8,1.4,3c0.2,0.8,0.2,2.1,0.2,4.1v5.9
		c0,4.1,0.1,6.7,0.3,7.8s0.6,2.1,1.1,3.1h-4.6C914,1497.4,913.7,1496.4,913.5,1495.2z M913.2,1485.3c-1.6,0.7-4,1.2-7.2,1.7
		c-1.8,0.3-3.1,0.6-3.8,0.9s-1.3,0.8-1.7,1.4s-0.6,1.3-0.6,2.1c0,1.2,0.4,2.2,1.3,2.9s2.2,1.2,3.9,1.2s3.2-0.4,4.5-1.1
		s2.3-1.8,2.9-3c0.5-1,0.7-2.5,0.7-4.4L913.2,1485.3L913.2,1485.3z"/>
	<path d="M918.8,1508.4l0.8-3.7c0.9,0.2,1.6,0.3,2.1,0.3c0.9,0,1.6-0.3,2-0.9s0.7-2.1,0.7-4.5v-27.2h4.4v27.3c0,3.2-0.4,5.4-1.2,6.7
		c-1.1,1.6-2.8,2.4-5.3,2.4C921.1,1508.9,920,1508.7,918.8,1508.4z M924.4,1467.7v-5.1h4.4v5.1H924.4z"/>
	<path d="M933.9,1485.4c0-4.8,1.3-8.4,4-10.7c2.2-1.9,5-2.9,8.2-2.9c3.6,0,6.5,1.2,8.7,3.5s3.4,5.6,3.4,9.7c0,3.3-0.5,6-1.5,7.9
		s-2.5,3.4-4.4,4.5s-4,1.6-6.3,1.6c-3.6,0-6.6-1.2-8.8-3.5C935,1493.1,933.9,1489.8,933.9,1485.4z M938.4,1485.4
		c0,3.3,0.7,5.8,2.2,7.5s3.3,2.5,5.5,2.5s4-0.8,5.4-2.5c1.5-1.7,2.2-4.2,2.2-7.6c0-3.2-0.7-5.6-2.2-7.3s-3.3-2.5-5.4-2.5
		c-2.2,0-4,0.8-5.5,2.5C939.2,1479.6,938.4,1482.1,938.4,1485.4z"/>
</g>
<g>
	<path d="M339.5,912c21.7,17.5,53.4-14.3,55.2-33.2c0.3-0.2,1,22.6-15.8,33.9c-35.5,24.3-63.5-9.8-44.3-38.6
		c7.2-10.9,36.7-33.7,92.3-26.6c52.4,6.7,66.4,3.7,78.8,0.2c22.9-6.7,31.2-19.4,31.2-19.4c-18.2,32.5-75.4,30.5-104.9,25.3
		C338.3,836.9,317.2,894,339.5,912z M406,940.7c-12.8,33.5-29.1,55.2-40.3,62.3s-18.2,2.5-18.2,2.5s18.2-3.5,34.9-34.4
		c19.2-35.4,39.6-96,46.1-107.8c5.4-9.8,7.1-5.1,7.1-5.1C441.3,861.8,422.1,898.4,406,940.7z"/>
	<path d="M445.2,922.6c7.6-0.2,13.6,4.4,13.6,16.3c0,3.5-0.8,8.4-2.2,13.1c2.4-1,4.9-2.5,7.4-4.5c10.1-8.1,12.5-16.2,17.7-15.7
		c-5.6,4.2-10.3,14-19.7,19.7c-1.9,1.2-3.9,2-6.1,2.7c-3.7,11.3-10.9,22.6-19.2,22.2c-11.8-0.3-12.6-15.8-7.1-26.8
		c0.7-1.3,1.3-2.7,2-3.9C424.8,932.9,436,922.8,445.2,922.6z M437.3,952.3c-1.7,3-3,6.1-3.9,9.1c-2.2,8.3,2,17.2,9.3,10.8
		c3.5-3.2,7.6-9.8,10.4-17.2C447.6,956,441.8,955.5,437.3,952.3z M442.7,931.9c4.5-0.7,5.1,3.7,4.7,6.2c0,0.2-4.9,5.4-8.9,12.1
		c3.9,3,9.4,4.2,15.5,2.7c3.5-10.1,4.5-21.1-1.3-25.9c-7.9-6.7-17.3,1-19,6.7c-0.8,3.2-0.8,6.4,0,9.1
		C437.8,935.9,441.3,932.1,442.7,931.9z"/>
	<path d="M561.4,852.6c4.2,0.5,7.4,6.7,4,14c-4.2,10.4-42.1,51.7-48.7,53.9c-0.2,0-0.3,0.2-0.5,0.2c-4.2,9.9-6.7,19.4-9.3,27.1
		c-2,6.7-8.3,49.7-0.2,31.7c5.1-11.3,22.9-44.3,33-46.8c-14.5,14.5-25.1,36.9-28.5,43.3c-3.5,6.7-5.2,13.1-8.8,12.3
		c-6.6-1.3-8.8-21.4-3-44c0.7-2.7,1.5-5.6,2.5-8.6c-2,3.5-4.7,7.7-7.9,11.6c-7.4,9.1-15,18-21.4,10.1c-6.9-7.9,1.3-23.1,6.6-27.5
		c4.5-3.9,12.1-7.6,21.2-5.9c2.9,0.7,4.5,1.3,5.2,1.7c7.9-19.9,20.4-42.8,31.2-56.4c11.1-13.8,18.7-16.7,23.1-16.7H561.4z
		 M481.4,938.8c-7.1,11.3-3.9,21.6,1.9,16.7c8.1-7.1,15.2-17.7,22.2-29.1c-0.7,0-1.3,0.2-1.3,0.2s-1-0.3-2.7-0.3
		C497.1,926.2,488.2,927.9,481.4,938.8z M554.5,863.7c-16.8,15.7-28.8,35.5-36.9,53.9c1-1,2-2,3-2.9c13.1-12,37.6-40.4,41.6-48.3
		c2.7-5.4,2-7.1,0.3-7.1C560.4,859.3,556.2,862.2,554.5,863.7z"/>
	<path d="M540.9,922.6c7.6-0.2,13.6,4.4,13.6,16.3c0,3.5-0.8,8.4-2.2,13.1c2.4-1,4.9-2.5,7.4-4.5c10.1-8.1,12.5-16.2,17.7-15.7
		c-5.6,4.2-10.3,14-19.7,19.7c-1.9,1.2-3.9,2-6.1,2.7c-3.7,11.3-10.9,22.6-19.2,22.2c-11.8-0.3-12.6-15.8-7.1-26.8
		c0.7-1.3,1.3-2.7,2-3.9C520.5,932.9,531.6,922.8,540.9,922.6z M533,952.3c-1.7,3-3,6.1-3.9,9.1c-2.2,8.3,2,17.2,9.3,10.8
		c3.5-3.2,7.6-9.8,10.4-17.2C543.2,956,537.5,955.5,533,952.3z M538.3,931.9c4.5-0.7,5.1,3.7,4.7,6.2c0,0.2-4.9,5.4-8.9,12.1
		c3.9,3,9.4,4.2,15.5,2.7c3.5-10.1,4.5-21.1-1.3-25.9c-7.9-6.7-17.3,1-19,6.7c-0.8,3.2-0.8,6.4,0,9.1
		C533.5,935.9,537,932.1,538.3,931.9z"/>
	<path d="M625.7,979.1c-0.5,4.9,0.2,8.8,4.5,2.5c13.1-18.4,29.1-43.6,42.6-49.5c-9.3,8.6-21.1,22.1-30.7,36.2
		c-13.1,19.4-15,20.5-18.7,18.5c-6.9-3.5-3.5-23.6,0.7-37.2c5.1-16.3,18.4-49,33.3-70.6c7.2-10.4,13.5-18.5,19.9-22.7
		c5.1-3.5,11.5-4.9,14.8,0.2c7.4,11.1-34.2,58.8-46.6,70.1c-2.4,2.2-4,3.7-5.4,4.7C629.8,955.8,626.8,970.1,625.7,979.1z
		 M647.6,915.1c-2,4.2-3.9,8.3-5.6,12c6.6-6.7,18.7-19.5,25.8-28.6c16.2-20.7,21.2-31.2,22.4-35.9c2.9-11.8-9.1,0.5-12.5,4.2
		C672.2,873,661.4,886.6,647.6,915.1z"/>
	<path d="M661.3,979.1c-0.5,4.9,0.2,8.8,4.5,2.5c13.1-18.4,29.1-43.6,42.6-49.5c-9.3,8.6-21.1,22.1-30.7,36.2
		c-13.1,19.4-15,20.5-18.7,18.5c-6.9-3.5-3.5-23.6,0.7-37.2c5.1-16.3,18.4-49,33.3-70.6c7.2-10.4,13.5-18.5,19.9-22.7
		c5.1-3.5,11.5-4.9,14.8,0.2c7.4,11.1-34.2,58.8-46.7,70.1c-2.4,2.2-4,3.7-5.4,4.7C665.3,955.8,662.3,970.1,661.3,979.1z
		 M683.2,915.1c-2,4.2-3.9,8.3-5.6,12c6.6-6.7,18.7-19.5,25.8-28.6c16.2-20.7,21.2-31.2,22.4-35.9c2.9-11.8-9.1,0.5-12.5,4.2
		C707.8,873,697,886.6,683.2,915.1z"/>
	<path d="M700.3,948.9c-2.7,13,4.4,18,11.8,15c12.5-4.9,24.3-32.2,33-32c-8.6,7.9-9.3,10.4-15.2,18c-7.7,9.9-15.8,18.5-25.4,17.5
		c-12.6-1.3-14.1-17.2-10.9-24.6c3.4-7.7,10.1-16.5,20.7-17.2c8.8-0.5,12.1,7.7,3.7,14.8c-5.1,4.2-12.5,6.2-17.3,7.1
		C700.7,947.9,700.3,948.6,700.3,948.9z M707.6,944c13.6-4.5,16-14.8,8.9-13.1c0,0-11.1,1.3-15.3,14.8
		C702.9,945.4,705.2,944.9,707.6,944z"/>
	<path d="M748.3,962.2c6.6-1.9,11.8-1.5,15.7,0.3c16-10.3,25.3-17.2,32.8-30.7c-1.7,10.8-14.5,21.4-30.8,32
		c7.2,4.9,8.9,15.7,7.2,24.4c-3.2,15.8-12.6,29.3-30.1,40.3c-13.1,8.3-30.8,10.3-37.6,5.6c-17.5-12.1,7.6-39.1,26.3-51.2
		c11.6-7.6,21.1-13.5,29-18.4c-2.9-1.2-6.6-1.7-11.5-0.5c-7.9,1.9-13.3,4-13.3,4S741.4,963.9,748.3,962.2z M733.7,984.4
		c-40.4,26.6-39.7,59.6-6.7,44.5c37.4-17.3,42.6-43.6,40.8-54.9c-0.5-3-1.9-6.2-4.7-8.3C753.7,971.8,743.5,977.9,733.7,984.4z
		 M764.7,929.7c0.8,0.5,1.9,1.3,2.4,2.9c2.9,8.6-7.2,21.7-19.2,28.3c-10.9,6.1-18.2,3.5-19.9-5.7c-2.7-15,14.8-26.6,22.9-28.8
		c3.5-1,6.2-1.2,8.4-1.2C764.7,925.3,766.2,928.2,764.7,929.7z M741.8,940.5c-8.8,9.3-10.6,20.5-3.7,20c7.1-0.5,14.7-5.7,21.4-14
		c5.4-6.7,5.1-13.6,3.5-16.3C760,930.2,750.2,931.7,741.8,940.5z"/>
	<path d="M818.1,971.8c9.6-14.1,21.4-38.2,29.6-40.1c-8.4,9.6-10.6,14-15.5,21.7c-9.3,15-14.3,25.1-19.7,24.3
		c-6.1-1-11.6-8.9-5.4-25.9c0.2-0.7,0.5-1.3,0.7-2c-6.9,8.4-13.5,16.5-19.9,9.3c-6.6-7.4-0.2-20.7,5.9-26.3c4.4-4,12.6-7.6,21.4-5.4
		c9.8,2.5,2.4,2.5,2.4,2.5s-12.5-2.7-21.4,11.6c-6.6,10.6-2.9,20.2,2.4,15.3c2.9-2.7,9.1-10.6,14-16.8c2.5-4,5.2-8.9,7.7-8.9
		c2.5-0.2,8.8,0.7,3.2,7.7C808.1,958.7,807.8,986.8,818.1,971.8z"/>
	<path d="M858,964.9c-2.2,2.2-5.4,1.5-5.9-1.2c-0.5-2.9,0.2-5.4,3.4-5.4C859.3,958.3,860.2,962.7,858,964.9z"/>
	<path d="M885.2,964.9c-2.2,2.2-5.4,1.5-5.9-1.2c-0.5-2.9,0.2-5.4,3.4-5.4C886.6,958.3,887.4,962.7,885.2,964.9z"/>
	<path d="M912.5,964.9c-2.2,2.2-5.4,1.5-5.9-1.2c-0.5-2.9,0.2-5.4,3.4-5.4C913.9,958.3,914.7,962.7,912.5,964.9z"/>
</g>
</svg>
